<?xml version="1.0" encoding="utf-8"?><svg xmlns="http://www.w3.org/2000/svg" xmlns:xlink="http://www.w3.org/1999/xlink"><symbol id="YouTube" viewBox="0 0 16.99 12.68" xml:space="preserve" xmlns="http://www.w3.org/2000/svg"><style/><path fill-rule="evenodd" clip-rule="evenodd" stroke="#201600" stroke-width=".567" stroke-miterlimit="22.926" d="M-1801.37 1967.65V-252.21H339.35v2219.86h-2140.72z"/><path d="M5.91 10.42V2.26l6.97 4.08-6.97 4.08zM13.8 0H3.19C1.43 0 0 1.43 0 3.19v6.3c0 1.76 1.43 3.19 3.19 3.19H13.8c1.76 0 3.19-1.43 3.19-3.19v-6.3C16.99 1.43 15.56 0 13.8 0z"/></symbol><symbol stroke="currentColor" stroke-width="2" stroke-linecap="round" stroke-linejoin="round" class="abfeather abfeather-arrow-left" viewBox="0 0 14 14" id="arrow-left" xmlns="http://www.w3.org/2000/svg"><path d="M19 12H5m7 7l-7-7 7-7"/></symbol><symbol stroke="currentColor" stroke-width="2" stroke-linecap="round" stroke-linejoin="round" class="acfeather acfeather-arrow-right" viewBox="0 0 14 14" id="arrow-right" xmlns="http://www.w3.org/2000/svg"><path d="M5 12h14m-7-7l7 7-7 7"/></symbol><symbol id="f" viewBox="0 0 7.53 16.06" xml:space="preserve" xmlns="http://www.w3.org/2000/svg"><style/><g fill-rule="evenodd" clip-rule="evenodd"><path stroke="#201600" stroke-width=".567" stroke-miterlimit="22.926" d="M-1761.03 1969.37V-250.48H379.69v2219.85h-2140.72z"/><path d="M7.51 0v2.58s-1.9-.19-2.38.54c-.26.41-.1 1.58-.13 2.42h2.53c-.21.98-.37 1.65-.52 2.5H4.99v8.03h-3.5v-8H0V5.54h1.47c.08-1.85.1-3.68 1.02-4.61C3.52-.12 4.51 0 7.51 0z"/></g></symbol><symbol id="g+" viewBox="0 0 17.81 15.31" xml:space="preserve" xmlns="http://www.w3.org/2000/svg"><style/><path fill-rule="evenodd" clip-rule="evenodd" stroke="#201600" stroke-width=".567" stroke-miterlimit="22.926" d="M-1843.82 1967.66V-252.2H296.9v2219.86h-2140.72z"/><path d="M7.21 3.71C7 2.15 5.8.9 4.59.86 3.38.83 2.56 2.02 2.77 3.58c.21 1.56 1.36 2.86 2.57 2.89 1.21.04 2.08-1.2 1.87-2.76zM5.18 9.5c-1.8-.02-3.42 1.08-3.42 2.4 0 1.35 1.3 2.33 3.11 2.33 2.53 0 3.42-.92 3.42-2.26 0-.16-.02-.32-.06-.48-.2-.76-.9-1.14-1.88-1.81-.35-.11-.75-.17-1.17-.18zm2.15-8.41c.99.55 1.57 1.44 1.57 2.6 0 .98-.6 1.74-1.38 2.34-.76.58-.9.82-.9 1.32 0 .42.81 1.14 1.24 1.44 1.24.86 1.61 1.66 1.61 3 0 1.67-1.61 3.53-4.58 3.53C2.27 15.31 0 14.06 0 12.4c0-1.69 2.08-3.33 4.69-3.33.28 0 .55-.01.81-.01-.36-.34-.64-.77-.64-1.28 0-.31.1-.61.24-.87-.14 0-.29-.02-.44-.02-2.14 0-3.58-1.55-3.58-3.4C1.09 1.67 3.07 0 5.17 0h4.7L8.82 1.09H7.33zm7.7 2.75v2.72h-1.11V3.84h-2.78V2.73h2.78V.02h1.11v2.72h2.78v1.11h-2.78v-.01z" fill-rule="evenodd" clip-rule="evenodd"/></symbol><symbol id="geography1" viewBox="0 0 88.82 88.82" xml:space="preserve" xmlns="http://www.w3.org/2000/svg"><style/><switch><g><path fill-rule="evenodd" clip-rule="evenodd" stroke="#201600" stroke-width=".567" stroke-miterlimit="22.926" d="M-236.69 279.45V-1940.4h2140.72V279.45H-236.69z"/><path d="M40.48 50.37h-3.3l-6.87 8.59h16.57m3.04-.01h6.15l-2.53-3.63m-9.89-4.95h6.42l2.23 3.16m-8.65-8.06v9.14m6.45-22.6a8.257 8.257 0 011.81 5.16c0 4.58-3.7 8.3-8.26 8.3-1.95 0-3.74-.68-5.16-1.82m-1.3-1.29a8.279 8.279 0 01-1.81-5.19c0-4.58 3.7-8.27 8.27-8.27 1.95 0 3.74.66 5.15 1.82m.62 5.03c-.09-.47-.37-1.19-.73-1.63m-5.1-2.79c1.29 0 2.5.32 3.68 1.37" stroke="#fff" stroke-width="1.417" stroke-linecap="round" stroke-linejoin="round" stroke-miterlimit="10"/><path stroke="#fff" stroke-width="1.417" stroke-miterlimit="22.926" d="M1 44.41L44.41 1l43.41 43.41-43.41 43.41L1 44.41z"/></g></switch></symbol><symbol id="geography2" viewBox="0 0 88.82 88.82" xml:space="preserve" xmlns="http://www.w3.org/2000/svg"><style>.agst48{fill:none;stroke:#fff;stroke-width:1.4173;stroke-miterlimit:22.9256}</style><switch><g><path fill-rule="evenodd" clip-rule="evenodd" stroke="#201600" stroke-width=".567" stroke-miterlimit="22.926" d="M-363.44 279.45V-1940.4h2140.72V279.45H-363.44z"/><path class="agst48" d="M1 44.41L44.41 1l43.41 43.41-43.41 43.41L1 44.41z"/><path class="agst48" d="M57.35 31.84l-11.77-.15-14.48 14.7 11.55 11.92 14.78-14.92-.08-11.55z"/><path d="M53.42 34.09c.66 0 1.2.54 1.2 1.2 0 .66-.54 1.2-1.2 1.2-.66 0-1.2-.54-1.2-1.2 0-.67.53-1.2 1.2-1.2z" fill-rule="evenodd" clip-rule="evenodd"/></g></switch></symbol><symbol id="geography3" viewBox="0 0 88.82 88.82" xml:space="preserve" xmlns="http://www.w3.org/2000/svg"><style>.ahst48{fill:none;stroke:#fff;stroke-width:1.4173;stroke-miterlimit:22.9256}</style><switch><g><path fill-rule="evenodd" clip-rule="evenodd" stroke="#201600" stroke-width=".567" stroke-miterlimit="22.926" d="M-486.75 279.45V-1940.4h2140.72V279.45H-486.75z"/><path class="ahst48" d="M1 44.41L44.41 1l43.41 43.41-43.41 43.41L1 44.41z"/><path class="ahst48" d="M34.29 39.03c2.06-1.04 4.04-2.09 5.55-4.2 1.4-1.89 1.9-4.75 2.85-7.13.81-1.31 2.98-1.15 3.15.08v9.3h10.35c1.5-.12 3.24 2.01 3.37 3.53 0 12.03.58 15.6-13.16 15.15-3.14-.2-5.11-3.21-7.09-3.15h-5.1c.03-4.53.06-9.05.08-13.58z"/><path d="M31.25 36.67c.39 0 .71.32.71.71v17.14c0 .39-.32.71-.71.71-.39 0-.71-.32-.71-.71V37.38c0-.39.32-.71.71-.71z" fill-rule="evenodd" clip-rule="evenodd"/></g></switch></symbol><symbol id="howwework1" viewBox="0 0 155.23 154.03" xml:space="preserve" xmlns="http://www.w3.org/2000/svg"><style>.aist6{fill:none;stroke:#fffeff;stroke-width:2.8347;stroke-miterlimit:22.9256}.aist9{fill:#fffeff}</style><switch><g><path fill-rule="evenodd" clip-rule="evenodd" stroke="#201600" stroke-width=".567" stroke-miterlimit="22.926" d="M-236.7 1346.67V-873.19h2140.72v2219.86H-236.7z"/><path stroke="#ececec" stroke-width="1.701" stroke-miterlimit="22.926" stroke-dasharray="3.4015,5.1022" d="M60.07 23.19h93.56v129.84H23.07V57.59"/><path d="M1.58 21.74L21.74 1.58c.78-.78 2.06-.78 2.84 0L44.9 21.9c.78.78.78 2.06 0 2.84L24.74 44.9c-.78.78-2.06.78-2.84 0L1.58 24.57c-.78-.78-.78-2.05 0-2.83h0z" fill-rule="evenodd" clip-rule="evenodd" stroke="#fffeff" stroke-width="1.984" stroke-miterlimit="22.926"/><path class="aist9" d="M25.89 31.87h-3.32V18.83l-3.25 1.25v-2.76l6.22-2.54h.35v17.09z"/><path class="aist6" d="M87.91 59.28h-34.8v58.8h69.9v-36"/><path class="aist9" d="M79.47 87.68l-7.03 14.67 14.97-7.08 2.78 2.15-24.13 11.26 10.92-23.46 2.49 2.46z"/><path class="aist6" d="M105.66 59.09L81.81 82.94l10.28 10.28 23.55-23.55m5.15-16.07l1.11 1.18c2.53 2.69 2.4 6.97-.29 9.51l-2.01 1.89-10.33-10.98 2.01-1.89c2.7-2.54 6.98-2.41 9.51.29zm696.33 227.8h17.34v27.07m-28.59 30.56h-37.78V281.4h17.34m6.37-9.21h18.38v40.97H791.8v-40.97z"/></g></switch></symbol><symbol id="howwework2" viewBox="0 0 154.48 153.88" xml:space="preserve" xmlns="http://www.w3.org/2000/svg"><style>.ajst6{fill:none;stroke:#fffeff;stroke-width:2.8347;stroke-miterlimit:22.9256}</style><switch><g><path fill-rule="evenodd" clip-rule="evenodd" stroke="#201600" stroke-width=".567" stroke-miterlimit="22.926" d="M-522.13 1346.67V-873.19h2140.72v2219.86H-522.13z"/><path class="ajst6" d="M91.61 55.39c10.34 0 18.72 8.38 18.72 18.72 0 10.34-8.38 18.72-18.72 18.72-10.34 0-18.72-8.38-18.72-18.72.01-10.34 8.39-18.72 18.72-18.72zM77.72 99.06l-11.66 6.91v12.12h51.62v-4.6M68.16 68.32h-1.49c-6.71 0-12.19 5.49-12.19 12.19 0 6.71 5.49 12.19 12.19 12.19h1.49V68.32zm46.85 0h1.49c6.71 0 12.19 5.49 12.19 12.19 0 6.71-5.49 12.19-12.19 12.19h-1.49V68.32zm-46.89 4.91c0-12.52 10.51-22.68 23.47-22.68 12.96 0 23.47 10.15 23.47 22.68m5.23 23.21v4.96c-.09 1.65-.68 2.58-2.59 2.52h-11m-5.14-5.78c2.94 0 5.33 2.39 5.33 5.33s-2.39 5.33-5.33 5.33-5.33-2.39-5.33-5.33 2.39-5.33 5.33-5.33zM-52.2 291.93l-20.25 12.15-3.75 40.05 44.1-7.8 6.75-19.05m-8.8-40.16l22.72 24.62-5.88 5.43c-6.3 5.82-16.22 5.42-22.03-.88l-1.57-1.7c-5.82-6.3-5.42-16.22.88-22.03l5.88-5.44zm-17.22 33.48a8.03 8.03 0 110 16.06 8.03 8.03 0 110-16.06zm-24.23 32.47l18.58-18.75m247.12-41.63l8.4-8.59 3.9 3.9-.6 7.2-7.65.82-4.05-3.33zm11.7 2.52l13.28 12.75m28.27 14.4l13.36 13.91c3.09 3.21 2.98 8.37-.23 11.46l-2.02 1.94c-3.21 3.09-8.37 2.98-11.46-.23l-13.36-13.91m-7.23-6.95l-18.77 22.75c-2.04 2.48-5.94 2.44-8.27.23l-3.8-3.6c-2.33-2.21-2.64-6.13-.23-8.27l22.06-19.63m23.55 9.5l12.52 13.43m-30.59-31.28l11.47 11.63m8.67-40.07l5.33 6.28-3.36 2.76c-2.18 1.79-2.51 5.04-.72 7.23l.99 1.21c1.79 2.18 5.04 2.51 7.23.72l3.36-2.76 5.1 5.69-11.6 9.46c-3.62 2.95-10.71 2.43-13.67-1.19l-5-6.1c-2.96-3.62-2.31-10.28 1.19-13.39l11.15-9.91zm-418.8-214.18l-23.85 23.85 10.28 10.28 23.55-23.55m5.16-16.07l1.11 1.18c2.53 2.69 2.4 6.97-.29 9.51l-2.01 1.89-10.32-10.98 2.01-1.89c2.69-2.54 6.97-2.41 9.5.29zm696.32 227.8h17.34v27.07m-28.59 30.56h-37.78V281.4H500m6.37-9.21h18.37v40.97h-18.37v-40.97z"/><path stroke="#ececec" stroke-width="1.701" stroke-miterlimit="22.926" stroke-dasharray="3.4015,5.1022" d="M60.07 23.19h93.56v129.84H23.07V57.59"/><path d="M1.58 21.74L21.74 1.58c.78-.78 2.06-.78 2.84 0L44.9 21.9c.78.78.78 2.06 0 2.84L24.74 44.9c-.78.78-2.06.78-2.84 0L1.58 24.57c-.78-.78-.78-2.05 0-2.83h0z" fill-rule="evenodd" clip-rule="evenodd" stroke="#fffeff" stroke-width="1.984" stroke-miterlimit="22.926"/><path d="M28.65 31.87H18.59v-2.33l4.62-5.89c.58-.81 1.02-1.53 1.3-2.14.28-.62.42-1.2.42-1.77 0-.76-.13-1.36-.39-1.79-.26-.43-.64-.65-1.13-.65-.54 0-.97.25-1.28.76-.32.5-.48 1.21-.48 2.12h-3.33c0-1.05.22-2 .65-2.87.43-.87 1.04-1.54 1.83-2.02.78-.48 1.68-.72 2.67-.72 1.52 0 2.7.42 3.54 1.26.84.84 1.26 2.04 1.26 3.58 0 .96-.23 1.94-.7 2.93-.46.99-1.3 2.21-2.52 3.66l-2.19 3.14h5.8v2.73h-.01z"/></g></switch></symbol><symbol id="howwework3" viewBox="0 0 154.48 153.88" xml:space="preserve" xmlns="http://www.w3.org/2000/svg"><style>.akst9{fill:#fffeff}</style><switch><g><path fill-rule="evenodd" clip-rule="evenodd" stroke="#201600" stroke-width=".567" stroke-miterlimit="22.926" d="M-815.39 1346.67V-873.19h2140.72v2219.86H-815.39z"/><path d="M-473.04 59.09l-23.85 23.85 10.28 10.28 23.55-23.55m5.16-16.07l1.11 1.18c2.53 2.69 2.4 6.97-.29 9.51l-2.01 1.89-10.32-10.98 2.01-1.89c2.69-2.54 6.97-2.41 9.5.29h0zm696.33 227.8h17.34v27.07m-28.59 30.56H189.4V281.4h17.34m6.37-9.21h18.38v40.97h-18.38v-40.97h0z" stroke="#fffeff" stroke-width="2.835" stroke-miterlimit="22.926"/><path class="akst9" d="M73.92 65.66H87v2.82H73.92v-2.82zm0 8.35h24.42v2.82H73.92v-2.82zm0 7.78h24.42v2.82H73.92v-2.82zm0 7.96h22.89v2.83H73.92v-2.83zm3.37 26.72h27.86c-.03.41-.05.63-.05 1.25s1.62.78 1.74 1.57H77.29v-2.82zm39.31-29.35V61.64h-4.58v-2.82h7.41v29.4c-1.17-.51-1.55-.88-2.83-1.1z"/><path class="akst9" d="M64.91 48.88h43.56v34.76c-1.3.38-2.25.92-3.39 1.6V51.98h-38.9v57.08h29.6c-.69 1.14 2.02 1.81 1.62 3.11H63.07v-63.3h1.84v.01z"/><path class="akst9" d="M109.58 83.59c4.96 0 9.45 2.01 12.71 5.26 3.25 3.25 5.26 7.75 5.26 12.71 0 4.96-2.01 9.46-5.26 12.71a17.91 17.91 0 01-12.71 5.26c-4.96 0-9.46-2.01-12.71-5.26a17.927 17.927 0 01-5.26-12.71c0-4.96 2.01-9.45 5.26-12.71 3.26-3.24 7.75-5.26 12.71-5.26zm10.11 7.86a14.245 14.245 0 00-10.11-4.19c-3.95 0-7.52 1.6-10.11 4.19a14.245 14.245 0 00-4.19 10.11c0 3.95 1.6 7.52 4.19 10.11 2.59 2.59 6.16 4.19 10.11 4.19 3.95 0 7.52-1.6 10.11-4.19 2.59-2.59 4.19-6.16 4.19-10.11 0-3.94-1.6-7.52-4.19-10.11z"/><path class="akst9" d="M102.24 96.36l5.57 8.17 9.17-11.33 2.2 1.77-9.81 12.15-1.52 1.88-1.4-1.97-6.46-9.07 2.25-1.6z"/><path stroke="#ececec" stroke-width="1.701" stroke-miterlimit="22.926" stroke-dasharray="3.4015,5.1022" d="M60.07 23.19h93.56v129.84H23.07V57.59"/><path d="M1.58 21.74L21.74 1.58c.78-.78 2.06-.78 2.84 0L44.9 21.9c.78.78.78 2.06 0 2.84L24.74 44.9c-.78.78-2.06.78-2.84 0L1.58 24.57c-.78-.78-.78-2.05 0-2.83h0z" fill-rule="evenodd" clip-rule="evenodd" stroke="#fffeff" stroke-width="1.984" stroke-miterlimit="22.926"/><path class="akst9" d="M21.55 21.81h1.6c.61 0 1.06-.21 1.34-.64.28-.43.43-1 .43-1.71 0-.68-.15-1.21-.44-1.59-.29-.38-.68-.57-1.18-.57-.46 0-.84.18-1.13.54-.29.36-.44.82-.44 1.38h-3.32c0-.89.2-1.69.62-2.4.41-.71.98-1.26 1.72-1.66.74-.4 1.56-.6 2.46-.6 1.57 0 2.8.43 3.69 1.3.89.86 1.34 2.05 1.34 3.56 0 .78-.2 1.49-.6 2.15-.4.66-.93 1.17-1.59 1.52.8.34 1.4.86 1.8 1.55.39.69.59 1.5.59 2.44 0 1.52-.48 2.74-1.45 3.65-.96.92-2.23 1.38-3.8 1.38-1.46 0-2.64-.45-3.56-1.36-.91-.9-1.36-2.09-1.36-3.56h3.32c0 .61.16 1.13.48 1.55.32.42.73.63 1.22.63.57 0 1.02-.21 1.35-.64.33-.42.5-.99.5-1.7 0-1.7-.66-2.55-1.96-2.56h-1.63v-2.66z"/></g></switch></symbol><symbol id="howwework4" viewBox="0 0 154.48 153.88" xml:space="preserve" xmlns="http://www.w3.org/2000/svg"><style/><switch><g><path fill-rule="evenodd" clip-rule="evenodd" stroke="#201600" stroke-width=".567" stroke-miterlimit="22.926" d="M-1105.27 1346.67V-873.19h2140.72v2219.86h-2140.72z"/><path d="M-55.95 327.08h16.87c3.84 0 6.98-3.15 6.98-6.98v0c0-3.84-3.14-6.98-6.98-6.98h-12.06v28.19m-4.76-6.21h22.97M47.36 62.95h10.47v44.43H47.36V62.95h0zm78.33 0h10.47v44.43h-10.47V62.95h0zm-43.48 3.28c-3.88-3.47-3.18-4.97-6.88-2.14-3.58 2.74-7.15 5.48-10.73 8.22v21h2.72c1.44 0 1.11.03 2.12 1.09 3.82 4 7.65 7.94 11.45 12.03 2.69 2.9 1.69 2.9 5.06.95.83-.48 1.67-.96 2.5-1.45.79.58 1.57 1.17 2.36 1.75 4 2.97 2.77 2.91 6.57-.42l1.95-1.71c.56.32 1.17.65 1.81.99 3.95 2.11 2.89 1.98 6.2-1.09.49-.45.98-.91 1.46-1.36l3.22.96c3.07.92 2.25 1.05 4.46-1.33 2.2-2.36 1.14-2.36-1.19-4.94-7.16-7.91-13.34-15.38-20.69-23.46-2.84-3.12-4.12-2.42-7.6-.64-2.22 1.13-3.79 1.94-5.42 2.77-4.74 2.42-3.6 3.15-6.49-.38-2.4-2.93-1.13-2.95 1.95-5.93 4.37-4.22 7.68-7.44 11.89-11.42 3.01-2.86 2.16-2.27 5.99-.1 6 3.39 12.01 6.77 18.01 10.16 2.29 1.29 1.97 1.33 4.61 1.33 2.81 0 2.16-.23 2.15 2.83-.02 5.56-.05 11.13-.02 16.69.02 3.59.74 3.18-2.69 3.25-1.99.04-3.96.09-5.93.14" stroke="#fffeff" stroke-width="2.835" stroke-miterlimit="22.926"/><path stroke="#ececec" stroke-width="1.701" stroke-miterlimit="22.926" stroke-dasharray="3.4015,5.1022" d="M60.07 23.19h93.56v129.84H23.07V57.59"/><path d="M1.58 21.74L21.74 1.58c.78-.78 2.06-.78 2.84 0L44.9 21.9c.78.78.78 2.06 0 2.84L24.74 44.9c-.78.78-2.06.78-2.84 0L1.58 24.57c-.78-.78-.78-2.05 0-2.83h0z" fill-rule="evenodd" clip-rule="evenodd" stroke="#fffeff" stroke-width="1.984" stroke-miterlimit="22.926"/><path d="M27.33 25.41h1.45v2.74h-1.45v3.72h-3.32v-3.72h-5.65l-.15-2.13L24 14.81h3.33v10.6zm-5.89 0h2.58v-5.7l-.07.13-2.51 5.57z"/></g></switch></symbol><symbol id="howwework5" viewBox="0 0 154.48 153.88" xml:space="preserve" xmlns="http://www.w3.org/2000/svg"><style>.amst6{fill:none;stroke:#fffeff;stroke-width:2.8347;stroke-miterlimit:22.9256}</style><switch><g><path fill-rule="evenodd" clip-rule="evenodd" stroke="#201600" stroke-width=".567" stroke-miterlimit="22.926" d="M-383.07 1118.99v-2219.86h2140.72v2219.86H-383.07z"/><path class="amst6" d="M230.68-172.29c10.34 0 18.72 8.38 18.72 18.72 0 10.34-8.38 18.72-18.72 18.72-10.34 0-18.72-8.38-18.72-18.72 0-10.34 8.38-18.72 18.72-18.72zm-13.9 43.67l-11.66 6.91v12.12h51.62v-4.6m-49.52-45.17h-1.49c-6.71 0-12.19 5.49-12.19 12.19 0 6.71 5.49 12.19 12.19 12.19h1.49v-24.38zm46.86 0h1.49c6.71 0 12.19 5.49 12.19 12.19 0 6.71-5.49 12.19-12.19 12.19h-1.49v-24.38zm-46.9 4.91c0-12.52 10.51-22.68 23.47-22.68 12.96 0 23.47 10.15 23.47 22.68m5.24 23.21v4.96c-.09 1.65-.68 2.58-2.59 2.52h-11.01m-5.14-5.78c2.94 0 5.33 2.39 5.33 5.33s-2.39 5.33-5.33 5.33-5.33-2.39-5.33-5.33c.01-2.94 2.39-5.33 5.33-5.33zM86.86 64.25L66.61 76.4l-3.75 40.05 44.1-7.8 6.75-19.05m-8.8-40.16l22.72 24.62-5.88 5.43c-6.3 5.82-16.22 5.42-22.03-.88l-1.57-1.7c-5.82-6.3-5.42-16.22.88-22.03l5.88-5.44zM87.69 82.92a8.03 8.03 0 110 16.06 8.03 8.03 0 110-16.06zm-24.22 32.47l18.58-18.75m247.11-41.63l8.4-8.59 3.9 3.9-.6 7.2-7.65.82-4.05-3.33zm11.7 2.52l13.28 12.75m28.28 14.4l13.36 13.91c3.09 3.21 2.98 8.37-.23 11.46l-2.02 1.94c-3.21 3.09-8.37 2.98-11.46-.23l-13.36-13.91m-7.23-6.95l-18.77 22.75c-2.04 2.48-5.94 2.44-8.27.23l-3.8-3.6c-2.33-2.21-2.64-6.13-.23-8.27l22.06-19.63m23.54 9.5l12.52 13.43m-30.59-31.28l11.47 11.63m8.67-40.07l5.33 6.28-3.36 2.76c-2.18 1.79-2.51 5.04-.72 7.23l.99 1.21c1.79 2.18 5.04 2.51 7.23.72l3.36-2.76 5.1 5.69-11.6 9.46c-3.62 2.96-10.71 2.43-13.67-1.19l-5-6.1c-2.96-3.62-2.31-10.28 1.19-13.39l11.15-9.91zM-40.71-168.59l-23.85 23.85 10.28 10.28 23.55-23.55m5.15-16.07l1.11 1.18c2.53 2.69 2.4 6.97-.29 9.51l-2.01 1.89-10.32-10.98 2.01-1.89c2.69-2.54 6.97-2.41 9.5.29zm696.33 227.8h17.34v27.07m-28.59 30.56h-37.78V53.72h17.34m6.37-9.21h18.38v40.97h-18.38V44.51z"/><path stroke="#ececec" stroke-width="1.701" stroke-miterlimit="22.926" stroke-dasharray="3.4015,5.1022" d="M60.06 23.19h93.57v129.84H23.07V57.59"/><path d="M1.58 21.74L21.74 1.58c.78-.78 2.06-.78 2.84 0L44.9 21.9c.78.78.78 2.06 0 2.84L24.74 44.9c-.78.78-2.06.78-2.84 0L1.58 24.57c-.78-.78-.78-2.05 0-2.83h0z" fill-rule="evenodd" clip-rule="evenodd" stroke="#fffeff" stroke-width="1.984" stroke-miterlimit="22.926"/><path d="M18.93 23.48l.84-8.68h8.26v2.83h-5.54l-.3 3.67c.64-.43 1.3-.64 1.98-.64 1.41 0 2.49.5 3.25 1.5.76 1 1.14 2.41 1.14 4.24 0 1.71-.45 3.09-1.36 4.14-.9 1.05-2.12 1.57-3.63 1.57-.9 0-1.73-.21-2.5-.64a4.665 4.665 0 01-1.81-1.77c-.44-.76-.66-1.62-.67-2.58h3.28c.06.72.23 1.27.53 1.66.3.4.68.59 1.15.59.55 0 .97-.26 1.26-.79.3-.53.45-1.32.45-2.37 0-.99-.18-1.73-.54-2.23-.35-.5-.85-.75-1.49-.75-.62 0-1.11.22-1.45.64l-.21.29-2.64-.68z"/></g></switch></symbol><symbol id="howwework6" viewBox="0 0 154.48 153.88" xml:space="preserve" xmlns="http://www.w3.org/2000/svg"><style>.anst6{fill:none;stroke:#fffeff;stroke-width:2.8347;stroke-miterlimit:22.9256}</style><switch><g><path fill-rule="evenodd" clip-rule="evenodd" stroke="#201600" stroke-width=".567" stroke-miterlimit="22.926" d="M-657.61 1124.56v-2219.85h2140.72v2219.85H-657.61z"/><path class="anst6" d="M-43.87-166.71c10.34 0 18.72 8.38 18.72 18.72 0 10.34-8.38 18.72-18.72 18.72-10.34 0-18.72-8.38-18.72-18.72 0-10.34 8.38-18.72 18.72-18.72zm-13.89 43.67l-11.66 6.91v12.12h51.62v-4.6m-49.53-45.18h-1.49c-6.71 0-12.19 5.49-12.19 12.19 0 6.7 5.49 12.19 12.19 12.19h1.49v-24.38zm46.86 0h1.49c6.71 0 12.19 5.49 12.19 12.19 0 6.7-5.49 12.19-12.19 12.19h-1.49v-24.38zm-46.89 4.92c0-12.52 10.51-22.68 23.47-22.68 12.96 0 23.47 10.15 23.47 22.68m5.23 23.21v4.96c-.09 1.65-.68 2.58-2.59 2.52h-11.01m-5.13-5.78c2.94 0 5.33 2.39 5.33 5.33s-2.39 5.33-5.33 5.33-5.33-2.39-5.33-5.33c0-2.95 2.39-5.33 5.33-5.33zM-187.68 69.82l-20.25 12.15-3.75 40.05 44.1-7.8 6.75-19.05m-8.81-40.16l22.72 24.62-5.88 5.43c-6.3 5.82-16.22 5.42-22.03-.88l-1.57-1.7c-5.82-6.3-5.42-16.22.88-22.03l5.88-5.44zm-17.21 33.48a8.03 8.03 0 110 16.06 8.03 8.03 0 110-16.06zm-24.23 32.48l18.58-18.75M54.61 60.59l8.4-8.59 3.9 3.9-.6 7.2-7.65.83-4.05-3.34zm11.7 2.51l13.28 12.75m28.28 14.4l13.36 13.91c3.09 3.21 2.98 8.37-.23 11.46l-2.02 1.94c-3.21 3.09-8.37 2.98-11.46-.23l-13.36-13.91m-7.23-6.94l-18.77 22.75c-2.04 2.48-5.94 2.44-8.27.23l-3.8-3.6c-2.33-2.21-2.64-6.13-.23-8.27l22.06-19.63m23.55 9.49l12.52 13.43M83.39 79.6l11.47 11.63m8.67-40.06l5.33 6.28-3.36 2.76c-2.18 1.79-2.51 5.04-.72 7.23l.99 1.21c1.79 2.18 5.04 2.51 7.23.72l3.36-2.76 5.1 5.69-11.6 9.46c-3.62 2.96-10.71 2.43-13.67-1.19l-5-6.1c-2.96-3.62-2.31-10.28 1.19-13.39l11.15-9.91zm-418.79-214.18l-23.85 23.85 10.28 10.28 23.55-23.55m5.15-16.08l1.11 1.18c2.53 2.69 2.4 6.97-.29 9.51l-2.01 1.89-10.32-10.98 2.01-1.89c2.69-2.53 6.97-2.4 9.5.29zM396.2 59.29h17.34v27.07m-28.59 30.57h-37.78V59.29h17.34m6.38-9.21h18.38v40.97h-18.38V50.08z"/><path d="M64.17 108.52c1.57 0 2.85 1.28 2.85 2.85s-1.28 2.85-2.85 2.85-2.85-1.28-2.85-2.85 1.28-2.85 2.85-2.85z" fill-rule="evenodd" clip-rule="evenodd"/><path stroke="#ececec" stroke-width="1.701" stroke-miterlimit="22.926" stroke-dasharray="3.4015,5.1022" d="M60.07 23.19h93.56v129.84H23.07V57.59"/><path d="M1.58 21.74L21.74 1.58c.78-.78 2.06-.78 2.84 0L44.9 21.9c.78.78.78 2.06 0 2.84L24.74 44.9c-.78.78-2.06.78-2.84 0L1.58 24.57c-.78-.78-.78-2.05 0-2.83h0z" fill-rule="evenodd" clip-rule="evenodd" stroke="#fffeff" stroke-width="1.984" stroke-miterlimit="22.926"/><path d="M26.5 14.63v2.81h-.18c-1.24.01-2.23.38-2.96 1.12-.73.74-1.18 1.77-1.33 3.1.71-.81 1.6-1.22 2.67-1.22 1.24 0 2.22.53 2.96 1.58.74 1.05 1.11 2.46 1.11 4.22 0 1.12-.21 2.12-.63 3.02-.42.9-1.02 1.6-1.78 2.09-.76.5-1.62.74-2.58.74-1.55 0-2.79-.62-3.72-1.86-.94-1.24-1.4-2.91-1.4-5.02V24c0-1.88.3-3.53.89-4.95.59-1.41 1.44-2.5 2.55-3.26 1.12-.76 2.41-1.15 3.9-1.16h.5zm-2.85 8.55c-.42 0-.78.13-1.06.4s-.5.6-.64.99v1.2c0 1.21.16 2.11.48 2.71.32.6.74.9 1.26.9.53 0 .96-.29 1.28-.86.32-.58.48-1.32.48-2.22 0-.92-.16-1.66-.5-2.24-.32-.59-.76-.88-1.3-.88z"/></g></switch></symbol><symbol id="howwework7" viewBox="0 0 154.48 153.88" xml:space="preserve" xmlns="http://www.w3.org/2000/svg"><style>.aost6{fill:none;stroke:#fffeff;stroke-width:2.8347;stroke-miterlimit:22.9256}</style><switch><g><path fill-rule="evenodd" clip-rule="evenodd" stroke="#201600" stroke-width=".567" stroke-miterlimit="22.926" d="M-948.49 1124.56v-2219.85h2140.72v2219.85H-948.49z"/><path class="aost6" d="M-606.14-163.01l-23.85 23.85 10.28 10.28 23.55-23.55m5.16-16.08l1.11 1.18c2.53 2.69 2.4 6.97-.29 9.51l-2.01 1.89-10.32-10.98 2.01-1.89c2.69-2.53 6.97-2.4 9.5.29zm696.33 227.8h17.34v27.07m-28.59 30.57H56.29V59.29h17.34m6.38-9.21h18.38v40.97H80.01V50.08zm20.82 54.9h16.87c3.84 0 6.98-3.15 6.98-6.98 0-3.84-3.14-6.98-6.98-6.98h-12.06v28.19m-4.76-6.22h22.97m80.29-272.14h10.47v44.43h-10.47v-44.43zm78.33 0h10.47v44.43h-10.47v-44.43zm-43.48 3.28c-3.88-3.47-3.18-4.97-6.88-2.14-3.58 2.74-7.15 5.48-10.73 8.22v21h2.72c1.44 0 1.11.03 2.12 1.09 3.82 4 7.65 7.94 11.45 12.03 2.69 2.9 1.69 2.9 5.06.95.83-.48 1.67-.96 2.5-1.45.79.58 1.57 1.17 2.36 1.75 4 2.97 2.77 2.91 6.57-.42l1.95-1.71c.56.32 1.17.65 1.81.99 3.95 2.11 2.89 1.98 6.2-1.09.49-.45.98-.91 1.46-1.36l3.22.96c3.07.92 2.25 1.05 4.46-1.33 2.2-2.36 1.14-2.36-1.19-4.94-7.16-7.91-13.34-15.38-20.69-23.46-2.84-3.12-4.12-2.42-7.6-.64-2.22 1.13-3.79 1.94-5.42 2.77-4.74 2.42-3.6 3.15-6.49-.38-2.4-2.93-1.14-2.95 1.95-5.93 4.37-4.22 7.68-7.44 11.89-11.42 3.01-2.86 2.16-2.27 5.99-.1 6 3.39 12.01 6.77 18.01 10.16 2.29 1.29 1.97 1.33 4.61 1.33 2.81 0 2.16-.23 2.15 2.83-.02 5.56-.05 11.13-.02 16.69.02 3.59.74 3.18-2.69 3.25-1.99.04-3.96.09-5.93.14"/><path d="M89.58 79.8c1.5 0 2.72 1.22 2.72 2.72 0 1.5-1.22 2.72-2.72 2.72-1.5 0-2.72-1.22-2.72-2.72 0-1.5 1.22-2.72 2.72-2.72z" fill-rule="evenodd" clip-rule="evenodd"/><path stroke="#ececec" stroke-width="1.701" stroke-miterlimit="22.926" stroke-dasharray="3.4015,5.1022" d="M60.07 23.19h93.56v129.84H23.07V57.59"/><path d="M1.58 21.74L21.74 1.58c.78-.78 2.06-.78 2.84 0L44.9 21.9c.78.78.78 2.06 0 2.84L24.74 44.9c-.78.78-2.06.78-2.84 0L1.58 24.57c-.78-.78-.78-2.05 0-2.83h0z" fill-rule="evenodd" clip-rule="evenodd" stroke="#fffeff" stroke-width="1.984" stroke-miterlimit="22.926"/><path d="M28.6 16.7l-5.39 15.17h-3.5l5.41-14.33h-6.85V14.8H28.6v1.9z"/></g></switch></symbol><symbol id="inst" viewBox="0 0 12.49 12.49" xml:space="preserve" xmlns="http://www.w3.org/2000/svg"><style/><path fill-rule="evenodd" clip-rule="evenodd" stroke="#201600" stroke-width=".567" stroke-miterlimit="22.926" d="M-1715.04 1967.65V-252.21H425.68v2219.86h-2140.72z"/><path d="M11.08 5.23H9.93c.09.32.14.66.14 1.01a3.82 3.82 0 11-7.64 0c0-.35.05-.69.14-1.01H1.4v5.23c0 .34.28.62.62.62h8.43c.34 0 .62-.28.62-.62V5.23h.01zm0-3.2c0-.35-.28-.62-.62-.62H9.21c-.34 0-.62.28-.62.62v1.25c0 .34.28.62.62.62h1.25c.34 0 .62-.28.62-.62V2.03zM6.24 3.82c-.97 0-1.81.58-2.19 1.4 0 .01-.01.02-.01.03-.02.05-.04.1-.06.16-.02.03-.03.05-.03.08-.02.05-.04.11-.05.16-.01.03-.01.06-.02.08l-.03.18c0 .02-.01.05-.01.07-.01.09-.02.18-.02.26 0 1.34 1.08 2.42 2.42 2.42 1.34 0 2.42-1.08 2.42-2.42 0-.09-.01-.17-.01-.26 0-.02-.01-.05-.01-.07l-.03-.18a.188.188 0 01-.02-.08c-.02-.05-.03-.11-.05-.16-.01-.03-.02-.05-.03-.08l-.06-.15c0-.01-.01-.02-.01-.03a2.428 2.428 0 00-2.2-1.41zm4.69 8.67H1.56c-.86 0-1.56-.7-1.56-1.56V1.56C0 .7.7 0 1.56 0h9.37c.86 0 1.56.7 1.56 1.56v9.36c0 .87-.7 1.57-1.56 1.57z" fill-rule="evenodd" clip-rule="evenodd"/></symbol><symbol id="ordered_call" viewBox="0 0 23.99 24" xml:space="preserve" xmlns="http://www.w3.org/2000/svg"><style>.aqst5{fill:#fff}</style><path fill-rule="evenodd" clip-rule="evenodd" stroke="#201600" stroke-width=".567" stroke-miterlimit="22.926" d="M-1341.04 1771.82V-448.04H799.68v2219.86h-2140.72z"/><path class="aqst5" d="M19.99 10h-5c-.55 0-1-.45-1-1V4c0-.55.45-1 1-1s1 .45 1 1v4h4c.55 0 1 .45 1 1s-.44 1-1 1z"/><path class="aqst5" d="M4.57 2.42L2.06 4.65c-.57.57.97 4.87 6.63 10.53C13.12 19.61 17.3 22 18.99 22c.22 0 .34-.04.38-.08l2.21-2.51-3.73-3.22-3.4 1.7c-.39.19-.85.12-1.15-.19l-7-7c-.3-.3-.38-.77-.19-1.15l1.7-3.4-3.24-3.73zM18.99 24c-2.58 0-7.29-2.98-11.71-7.4C2.47 11.78-1.66 5.54.67 3.21L4 .25c.19-.17.46-.26.72-.25.27.02.52.14.69.34l4.33 5c.26.3.32.74.14 1.1L8.21 9.8l5.98 5.98 3.36-1.68a.99.99 0 011.1.14l5 4.31c.2.18.33.42.34.69.02.27-.07.53-.25.73l-2.9 3.3c-.36.37-.92.73-1.85.73z"/><path class="aqst5" d="M14.99 10c-.26 0-.51-.1-.71-.29a.996.996 0 010-1.41l8-8a.996.996 0 111.41 1.41l-8 8c-.19.19-.44.29-.7.29z"/></symbol><symbol id="ordered_call_call" viewBox="0 0 23.03 18.41" xml:space="preserve" xmlns="http://www.w3.org/2000/svg"><style/><path fill-rule="evenodd" clip-rule="evenodd" stroke="#201600" stroke-width=".567" stroke-miterlimit="22.926" d="M-1341.45 1857.45V-362.4H799.27v2219.85h-2140.72z"/><g stroke="#b6b8bd" stroke-width="1.417"><path stroke-miterlimit="22.926" d="M22.32.23v17.25"/><path d="M3.54.71L1.02 2.95 1 2.96C-.14 4.1 2.12 8.22 6.11 12.21s8.19 6.34 9.34 5.2l.01-.02 2.24-2.55-3.86-3.33-3.09 1.54-5.41-5.4 1.55-3.09L3.54.71" stroke-linecap="round" stroke-linejoin="round" stroke-miterlimit="10"/></g></symbol><symbol id="plexiglas1" viewBox="0 0 85.39 84.72" xml:space="preserve" xmlns="http://www.w3.org/2000/svg"><style>.asst27{fill:none;stroke:#d24a43;stroke-width:1.4173;stroke-linecap:round;stroke-linejoin:round;stroke-miterlimit:10}</style><switch><g><path fill-rule="evenodd" clip-rule="evenodd" stroke="#201600" stroke-width=".567" stroke-miterlimit="22.926" d="M-236.98 809.63v-2219.86h2140.72V809.63H-236.98z"/><path class="asst27" d="M32.18.78C14.09 5.49.71 21.99.71 41.7c0 23.38 18.8 42.32 41.99 42.32S84.69 65.08 84.69 41.7c0-19.71-13.39-36.27-31.5-40.99"/><path class="asst27" d="M47.1 24.69c-6.18-3.61-14.31-2.72-19.69 2.65-6.38 6.4-6.47 16.66-.19 22.93 6.28 6.3 16.54 6.19 22.92-.18 5.38-5.38 6.27-13.52 2.65-19.71m-17.18-3.56c-5.19 1.38-9.04 6.16-9.04 11.85 0 6.76 5.4 12.24 12.06 12.24s12.06-5.48 12.06-12.24c0-5.7-3.85-10.51-9.05-11.85M52.6 47.3l4.37 4.39m1.78 1.77l3.39 3.4a2.71 2.71 0 010 3.82 2.692 2.692 0 01-3.82 0l-9.43-9.45M38.77 33.72v10.05m5.05-5.03h-3.34m-1.71 0h-5.05"/></g></switch></symbol><symbol id="plexiglas2" viewBox="0 0 85.39 84.7" xml:space="preserve" xmlns="http://www.w3.org/2000/svg"><style/><switch><g><path fill-rule="evenodd" clip-rule="evenodd" stroke="#201600" stroke-width=".567" stroke-miterlimit="22.926" d="M-368.59 809.36V-1410.5h2140.72V809.36H-368.59z"/><g stroke="#d24a43" stroke-width="1.417" stroke-linejoin="round"><path d="M32.18.76C14.09 5.47.71 21.96.71 41.67c0 23.38 18.8 42.32 41.99 42.32s41.99-18.94 41.99-42.32C84.69 21.96 71.3 5.4 53.19.68" stroke-miterlimit="10"/><path d="M43.29 26.3c8.15 0 14.75 6.6 14.75 14.75 0 6.45-4.14 11.94-9.92 13.94-.96.33-.83.18-1.21 1.13-1.03 2.54-2.01 4.97-3.04 7.51-.37.79-.9.73-1.29-.02l-3.06-7.8c-.19-.49-.12-.53-.61-.68-6-1.87-10.36-7.47-10.36-14.09-.01-8.13 6.59-14.74 14.74-14.74h0zm-3.74 12.12v3.6c.01.43.06.61.41.65h.7c.37.02.49.13.5.41v3.24c.01.38-.17.55-.54.61h-.72c-.26 0-.41.15-.47.47v3.64c.02.51.32.69.81.69 2.17 0 4.35.02 6.52.02.73-.02.86-.46.91-1 0-1.13.01-2.25.01-3.38-.02-.33-.22-.48-.49-.49h-.7a.483.483 0 01-.47-.5v-7.93c0-.39-.21-.63-.59-.63l-5.45.03c-.32 0-.4.24-.43.57h0zm3.91-7.8c1.52 0 2.76 1.24 2.76 2.76 0 1.52-1.24 2.76-2.76 2.76s-2.76-1.24-2.76-2.76a2.76 2.76 0 012.76-2.76h0zm13.07-4.2a19.41 19.41 0 016.19 14.24c0 5.9-2.63 11.19-6.77 14.76m-25.5-.11a19.409 19.409 0 01-6.65-14.65c0-5.67 2.43-10.78 6.3-14.34m29.59-3.35c4.77 4.44 7.76 10.77 7.76 17.8 0 7.19-3.13 13.66-8.09 18.11m-32.5-.09c-4.92-4.45-8-10.87-8-18.02 0-7.11 3.05-13.5 7.92-17.95m36.17-3.57c5.71 5.31 9.28 12.88 9.28 21.29 0 8.61-3.74 16.34-9.68 21.66m-38.88-.1c-5.88-5.32-9.57-13.01-9.57-21.56 0-8.5 3.65-16.16 9.47-21.47" stroke-miterlimit="22.926"/></g></g></switch></symbol><symbol id="plexiglas3" viewBox="0 0 85.39 84.72" xml:space="preserve" xmlns="http://www.w3.org/2000/svg"><style>.aust27{fill:none;stroke:#d24a43;stroke-width:1.4173;stroke-linecap:round;stroke-linejoin:round;stroke-miterlimit:10}</style><switch><g><path fill-rule="evenodd" clip-rule="evenodd" stroke="#201600" stroke-width=".567" stroke-miterlimit="22.926" d="M-486.43 809.38v-2219.86H1654.3V809.38H-486.43z"/><path d="M44.79 56.46h-2.21v-8.63l-2.15.83v-1.83l4.13-1.69h.23v11.32z"/><path class="aust27" d="M32.18.78C14.09 5.49.71 21.99.71 41.7c0 23.38 18.8 42.32 41.99 42.32S84.69 65.08 84.69 41.7c0-19.71-13.39-36.27-31.5-40.99"/><path class="aust27" d="M49.3 39.91c-4.8-2.8-11.11-2.11-15.28 2.06-4.95 4.97-5.02 12.93-.14 17.79 4.87 4.89 12.83 4.8 17.78-.14 4.18-4.17 4.87-10.49 2.06-15.29m-13.33-2.77c-4.03 1.07-7.01 4.78-7.01 9.2 0 5.24 4.19 9.5 9.36 9.5 5.17 0 9.36-4.26 9.36-9.5 0-4.42-2.98-8.15-7.02-9.2"/><path d="M34.84 39.04c-.63-1.86-1.26-3.73-1.89-5.59-.67-1.99-1.35-3.98-2.02-5.97m-1.76-5.17c-.59-1.67.48-2.93 2.4-3.22h22.58c1.92 0 2.37 1.73 1.89 3.22-1.83 5.57-3.66 11.15-5.49 16.72" stroke="#d24a43" stroke-width="1.417" stroke-miterlimit="22.926"/></g></switch></symbol><symbol id="plexiglas4" viewBox="0 0 85.39 84.72" xml:space="preserve" xmlns="http://www.w3.org/2000/svg"><style>.avst27{fill:none;stroke:#d24a43;stroke-width:1.4173;stroke-linecap:round;stroke-linejoin:round;stroke-miterlimit:10}</style><switch><g><path fill-rule="evenodd" clip-rule="evenodd" stroke="#201600" stroke-width=".567" stroke-miterlimit="22.926" d="M-608.22 809.38v-2219.86H1532.5V809.38H-608.22z"/><path class="avst27" d="M32.18.78C14.09 5.49.71 21.99.71 41.7c0 23.38 18.8 42.32 41.99 42.32S84.69 65.08 84.69 41.7c0-19.71-13.39-36.27-31.5-40.99"/><path class="avst27" d="M29.5 32.57v-.13h-2.55m12.87-5.45L29.5 32.57m12.66-6.85l3.08-1.69c1.53-.83 3.39.28 3.39 2.04v6.12m0 3.6v21.38c0 1.72-1.85 2.83-3.38 2.01l-7.6-4.11m-8.15-22.5v2.42m0 2.55v5.1m-2.55 0v-5.1m0-5.1v2.55m19.13-5.35v2.55m0 3.6v5.1m-19.13-8.45h-3.82c-2.82 0-5.1 2.3-5.1 5.1v8.13c0 2.2 1.41 4.08 3.36 4.78m12.95-2.14c1.82 2.77 1.49 6.53-.98 9.02-2.82 2.8-7.37 2.83-10.15.06-2.79-2.8-2.76-7.33.06-10.17 2.47-2.45 6.26-2.77 9.03-.95m-3.96 2.14l-.01 4.75m0 2.42l.01.58"/><path d="M54.64 32.72c2.55 2.38 4.15 5.77 4.15 9.53 0 3.95-1.76 7.49-4.54 9.88m3.67-21.73c3.19 2.97 5.19 7.21 5.19 11.91 0 4.82-2.09 9.14-5.42 12.12m3.58-26.51c3.82 3.55 6.21 8.62 6.21 14.25A19.4 19.4 0 0161 56.67" stroke="#d24a43" stroke-width="1.417" stroke-linejoin="round" stroke-miterlimit="22.926"/></g></switch></symbol><symbol id="plexiglasstand1" viewBox="0 0 33.39 56.34" xml:space="preserve" xmlns="http://www.w3.org/2000/svg"><style>.awst28{fill:none;stroke:#d24a43;stroke-width:1.4173;stroke-miterlimit:22.9256}</style><switch><g><path fill-rule="evenodd" clip-rule="evenodd" stroke="#201600" stroke-width=".567" stroke-miterlimit="22.926" d="M-235.66 588.08v-2219.86h2140.72V588.08H-235.66z"/><path class="awst28" d="M4.76.71h23.86c2.23 0 4.05 1.82 4.05 4.05v46.81c0 2.23-1.82 4.05-4.05 4.05H4.76c-2.23 0-4.05-1.82-4.05-4.05V4.76C.71 2.53 2.53.71 4.76.71z"/><path class="awst28" d="M16.77 49.96a1.799 1.799 0 110 3.6 1.799 1.799 0 110-3.6zM3.23 6.6h26.85v42.07H3.23V6.6zm9.53-3.02h7.82c.17 0 .32.14.32.32v.17c0 .17-.14.32-.32.32h-7.82c-.17 0-.32-.14-.32-.32v-.18c.01-.17.15-.31.32-.31z"/></g></switch></symbol><symbol id="plexiglasstand10" viewBox="0 0 71.4 71.4" xml:space="preserve" xmlns="http://www.w3.org/2000/svg"><style/><switch><g><path fill-rule="evenodd" clip-rule="evenodd" stroke="#201600" stroke-width=".567" stroke-miterlimit="22.926" d="M-998.96 603.79v-2219.85h2140.72V603.79H-998.96z"/><path d="M35.7 0c19.72 0 35.7 15.98 35.7 35.7S55.42 71.4 35.7 71.4 0 55.42 0 35.7 15.98 0 35.7 0z" fill-rule="evenodd" clip-rule="evenodd"/><path d="M38.82 20.9c-5.71-3.33-13.21-2.51-18.18 2.45-5.89 5.91-5.97 15.38-.17 21.16 5.79 5.81 15.27 5.72 21.16-.16 4.97-4.96 5.79-12.48 2.45-18.19m-15.87-3.3c-4.79 1.27-8.34 5.68-8.34 10.94 0 6.24 4.99 11.3 11.13 11.3 6.15 0 11.13-5.06 11.13-11.3 0-5.26-3.55-9.7-8.35-10.94m10.11 18.91l4.04 4.05m1.64 1.64l3.13 3.14c.97.98.97 2.55 0 3.53-.98.98-2.55.98-3.53 0l-8.71-8.72m-9.34-16.18v9.28m4.66-4.64H32.7m-1.58 0h-4.66" stroke="#fff" stroke-width="1.417" stroke-linecap="round" stroke-linejoin="round" stroke-miterlimit="10"/></g></switch></symbol><symbol id="plexiglasstand11" viewBox="0 0 71.4 71.4" xml:space="preserve" xmlns="http://www.w3.org/2000/svg"><style/><switch><g><path fill-rule="evenodd" clip-rule="evenodd" stroke="#201600" stroke-width=".567" stroke-miterlimit="22.926" d="M-1097.66 603.79v-2219.85h2140.72V603.79h-2140.72z"/><path d="M35.7 0c19.72 0 35.7 15.98 35.7 35.7S55.42 71.4 35.7 71.4 0 55.42 0 35.7 15.98 0 35.7 0z" fill-rule="evenodd" clip-rule="evenodd"/><path d="M10.87 17.48h2.87l5.73 17.22h25.79m-25.79-.01l-3.31 2.15c-.82.56-1.08 1.65-.6 2.52h0c.34.62.99 1.01 1.69 1.01l22.05.01M16.43 25.13H38.2m3.93 0h6.85m-25.66 4.78h5.89m2.97 0h14.98m-11.93 4.78V20.35m4.96 14.34l2.92-14.35M30.19 34.69l-2.92-14.35m-.79 22.9c-.59-1.67-2.16-2.87-4.03-2.87a4.3 4.3 0 00-4.3 4.3c0 2.37 1.92 4.31 4.3 4.31 1.87 0 3.44-1.21 4.03-2.87m3.71-25.76H43.1m-15.83 0h-7.8l5.78 14.35h20.01l5.73-14.35h-4.96m-23 24.33c0 .39-.32.72-.72.72-.39 0-.71-.32-.71-.72a.715.715 0 111.43 0h0zm30.1-3.47c2.21 3.41 1.82 8.05-1.17 11.08-3.42 3.46-8.94 3.48-12.33.06-3.39-3.42-3.36-9 .06-12.46 2.99-3.03 7.59-3.42 10.96-1.19m-2.41 4.95l-.28.56m-.93 1.89l-1.27 2.56-2.48-2.51" stroke="#fff" stroke-width="1.417" stroke-linecap="round" stroke-linejoin="round" stroke-miterlimit="10"/></g></switch></symbol><symbol id="plexiglasstand2" viewBox="0 0 65.68 37.73" xml:space="preserve" xmlns="http://www.w3.org/2000/svg"><style>.azst28{fill:none;stroke:#d24a43;stroke-width:1.4173;stroke-miterlimit:22.9256}</style><switch><g><path fill-rule="evenodd" clip-rule="evenodd" stroke="#201600" stroke-width=".567" stroke-miterlimit="22.926" d="M-307.21 588.08v-2219.86h2140.72V588.08H-307.21z"/><path class="azst28" d="M10.25 31V4.07c0-1.85 1.51-3.37 3.37-3.37h38.25c1.85 0 3.37 1.52 3.37 3.37V31H10.25zm54.72 1.79v2.45c0 .98-.8 1.79-1.78 1.79H2.49c-.98 0-1.78-.8-1.78-1.79v-2.45H27.1v.59c0 .43.36.79.79.79h9.89c.43 0 .79-.36.79-.79v-.59h26.4z"/><path class="azst28" d="M13.71 3.97h38.15v23.67H13.71V3.97z"/></g></switch></symbol><symbol id="plexiglasstand3" viewBox="0 0 55.82 63.44" xml:space="preserve" xmlns="http://www.w3.org/2000/svg"><style>.bast28{fill:none;stroke:#d24a43;stroke-width:1.4173;stroke-miterlimit:22.9256}</style><switch><g><path fill-rule="evenodd" clip-rule="evenodd" stroke="#201600" stroke-width=".567" stroke-miterlimit="22.926" d="M-395.14 588.08v-2219.86h2140.72V588.08H-395.14z"/><path class="bast28" d="M15.41 7.95h24.71M20.97.99l2.56 6.82M34.69.99l-2.27 6.96m-4.83 9.72l-12.28-10L21.08.71H34.8l5.62 6.99-12.83 9.97z"/><path class="bast28" d="M37.41 10.03c10.34 3.85 17.7 13.81 17.7 25.5 0 15.02-12.18 27.2-27.2 27.2S.71 50.55.71 35.53c0-11.63 7.3-21.55 17.56-25.44l2.6 2.11c-9.84 3.02-16.99 12.17-16.99 23 0 13.28 10.77 24.05 24.05 24.05 13.28 0 24.05-10.77 24.05-24.05 0-10.92-7.28-20.14-17.25-23.08l2.68-2.09z"/></g></switch></symbol><symbol id="plexiglasstand4" viewBox="0 0 57.68 58.96" xml:space="preserve" xmlns="http://www.w3.org/2000/svg"><style>.bbst28{fill:none;stroke:#d24a43;stroke-width:1.4173;stroke-miterlimit:22.9256}</style><switch><g><path fill-rule="evenodd" clip-rule="evenodd" stroke="#201600" stroke-width=".567" stroke-miterlimit="22.926" d="M-481.86 592.4v-2219.85h2140.72V592.4H-481.86z"/><path class="bbst28" d="M42.9 8.51C32.4 21.28 21.89 34.05 11.39 46.82c-1.18 2.06-.78 3.69.6 5.18 1.56 1.26 3.11 2.52 4.67 3.77 1.81 1.22 3.39 1.22 5.54-.09 10.45-12.85 20.9-25.71 31.35-38.56.3-.31.58-.93-.07-1.63l-8.22-6.62c-1.13-.91-1.44-1.48-2.36-.36z"/><path stroke="#d24a43" stroke-width="2.835" stroke-miterlimit="22.926" d="M28.24 27.09l10.36 8.42"/><path class="bbst28" d="M53.43 16.39c6.7 5.86 2.81 16.31-2.71 21.65-3.99 4.28-9.14 8.73-13.28 10.58m9.14-38.75l3.11-3.88c.35-.44 1-.51 1.44-.16l3.41 2.73c.44.35.51 1 .16 1.44l-3.11 3.88-5.01-4.01z"/><path d="M15.23 55.16l-2.95 3.36c-.48.54-1.31.6-1.85.12l-.05-.05c-.54-.48-.6-1.31-.12-1.85l2.95-3.36 2.02 1.78z" fill-rule="evenodd" clip-rule="evenodd"/><path class="bbst28" d="M11.09 11.09L1.7 22.43c-1.19 1.83-1.49 3.73.18 5.75 2.49 2.24 4.98 4.49 7.48 6.73 2.1 1.36 3.82 1.7 6.5-.21 6.93-8.19 13.07-15.78 20-23.97 1.26-1.82 1.65-3.62.74-4.9-1.42-1.27-2.99-3-4.41-4.28-1.3-1.09-3.79-1.3-5.77.44-5.19 6.27-9.98 11.65-15.17 17.91-.75.92-.95 1.99-.09 2.88l3.05 2.57c1.26.94 1.93-.13 2.86-1.08 3.17-3.83 6.64-7.59 9.81-11.42"/></g></switch></symbol><symbol id="plexiglasstand5" viewBox="0 0 34.74 47.23" xml:space="preserve" xmlns="http://www.w3.org/2000/svg"><style>.bcst28{fill:none;stroke:#d24a43;stroke-width:1.4173;stroke-miterlimit:22.9256}</style><switch><g><path fill-rule="evenodd" clip-rule="evenodd" stroke="#201600" stroke-width=".567" stroke-miterlimit="22.926" d="M-574.86 588.08v-2219.86h2140.72V588.08H-574.86z"/><path class="bcst28" d="M4.37.71h25.85c2.63 8.16 3.54 12.37 3.81 19.96-.65 8.86-3.63 15.45-16.84 15.87C5.8 36.16 1.12 27.88.71 20.67.71 14.59 1.86 7.94 4.37.71zm12.82 35.83v9.91m-8.69.07h17.41"/></g></switch></symbol><symbol id="plexiglasstand6" viewBox="0 0 58.5 43.49" xml:space="preserve" xmlns="http://www.w3.org/2000/svg"><style>.bdst28{fill:none;stroke:#d24a43;stroke-width:1.4173;stroke-miterlimit:22.9256}</style><switch><g><path fill-rule="evenodd" clip-rule="evenodd" stroke="#201600" stroke-width=".567" stroke-miterlimit="22.926" d="M-640.9 588.08v-2219.86h2140.72V588.08H-640.9z"/><path class="bdst28" d="M15.47 2.46c.7 1.55 1.54 4.47 3.74 6.15 1.81 1.23 3.67 2.05 6 2.43 3.25.25 5.94.2 9.46-.67 1.23-.3 1.08-.05 1.96.93 7.04 7.89 13.14 14.36 20.15 22.23 2.62 3.26-.24 9.89-4.03 9.18C35.72 35.36 19.2 28.22 2.2 20.87c-1.81-.79-1.75-.35-1-2.09 2.4-5.54 4.29-9.91 6.78-15.66 2.29-2.63 4.66-3.48 7.49-.66zM2.87 14.92l54.71 23.67M38.37 13.26L25.94 24.89m15.93-7.76L31.15 27.15m13.68-6.77l-9.27 8.68"/></g></switch></symbol><symbol id="plexiglasstand7" viewBox="0 0 45.12 59.17" xml:space="preserve" xmlns="http://www.w3.org/2000/svg"><style>.best28{fill:none;stroke:#d24a43;stroke-width:1.4173;stroke-miterlimit:22.9256}</style><switch><g><path fill-rule="evenodd" clip-rule="evenodd" stroke="#201600" stroke-width=".567" stroke-miterlimit="22.926" d="M-731.51 588.05V-1631.8h2140.72V588.05H-731.51z"/><path class="best28" d="M.86 23.17l6.8 35.29h29.77l6.83-35.29h-9.9c-4.03 14.93-20.89 14.95-23.29.09L.86 23.17z"/><path class="best28" d="M22.32 40.81c2.81 0 5.08 2.27 5.08 5.08s-2.27 5.08-5.08 5.08-5.08-2.27-5.08-5.08c0-2.8 2.28-5.08 5.08-5.08zm-6.39-8.54V6.49c0-.58.47-1.05 1.05-1.05h2.19c.58 0 1.05.47 1.05 1.05v27.85"/><path class="best28" d="M11.64 26.21V14.94c0-.58.47-1.05 1.05-1.05h2.19c.58 0 1.05.47 1.05 1.05v17.41m-8.76-9.69V11.39c0-.58.47-1.05 1.05-1.05h2.19c.58 0 1.05.47 1.05 1.05v13.98M2.2 22.66V17.3c0-.58.47-1.05 1.05-1.05h2.19c.58 0 1.05.48 1.05 1.05v5.91m13.69 9.06V10.95c0-.58.47-1.05 1.05-1.05h2.19c.58 0 1.05.47 1.05 1.05v23.38m.36-.18V1.76c0-.58.47-1.05 1.05-1.05h2.19c.58 0 1.05.47 1.05 1.05v30.01m.09 0V6.53c0-.58.47-1.05 1.05-1.05h2.19c.58 0 1.05.48 1.05 1.05v19.18m.24-1.73V11.92c0-.58.47-1.05 1.05-1.05h2.19c.58 0 1.05.48 1.05 1.05v11.47m.09-.22v-7.92c0-.58.47-1.05 1.05-1.05h2.19c.58 0 1.05.48 1.05 1.05v8.15"/></g></switch></symbol><symbol id="plexiglasstand8" viewBox="0 0 42.38 56.54" xml:space="preserve" xmlns="http://www.w3.org/2000/svg"><style/><switch><g><path fill-rule="evenodd" clip-rule="evenodd" stroke="#201600" stroke-width=".567" stroke-miterlimit="22.926" d="M-801.07 586.28v-2219.86h2140.72V586.28H-801.07z"/><path d="M10.41.71v12.63h8.54L18.96.71H.71v55.12h40.97V.71H25.99M9.39 24.05h24.12M15 31.71h12.9" stroke="#e61c21" stroke-width="1.417" stroke-linecap="round" stroke-linejoin="round" stroke-miterlimit="10"/></g></switch></symbol><symbol id="plexiglasstand9" viewBox="0 0 43.27 72.57" xml:space="preserve" xmlns="http://www.w3.org/2000/svg"><style>.bgst46,.bgst47{fill:none;stroke:#e61c21;stroke-width:1.4173}.bgst46{stroke-linecap:round;stroke-linejoin:round;stroke-miterlimit:10}.bgst47{stroke-miterlimit:22.9256}</style><switch><g><path fill-rule="evenodd" clip-rule="evenodd" stroke="#201600" stroke-width=".567" stroke-miterlimit="22.926" d="M-873.5 602.24v-2219.86h2140.72V602.24H-873.5z"/><path class="bgst47" d="M8.06 16.66H.71v55.2h41.85V16.21h-27.6"/><path class="bgst46" d="M9.45 34.81h24.12M9.45 42.76h24.12m-22.95 7.28h12.74m5.93 0h4.57"/><path class="bgst47" d="M.41 11.71L29.36.91c1.47-.43 2.31-.21 2.4.9v10.95"/></g></switch></symbol><symbol id="plexiglasstand_3" viewBox="0 0 55.82 63.44" xml:space="preserve" xmlns="http://www.w3.org/2000/svg"><style>.bhst28{fill:none;stroke:#d24a43;stroke-width:1.4173;stroke-miterlimit:22.9256}</style><switch><g><path fill-rule="evenodd" clip-rule="evenodd" stroke="#201600" stroke-width=".567" stroke-miterlimit="22.926" d="M-395.14 588.08v-2219.86h2140.72V588.08H-395.14z"/><path class="bhst28" d="M15.41 7.95h24.71M20.97.99l2.56 6.82M34.69.99l-2.27 6.96m-4.83 9.72l-12.28-10L21.08.71H34.8l5.62 6.99-12.83 9.97z"/><path class="bhst28" d="M37.41 10.03c10.34 3.85 17.7 13.81 17.7 25.5 0 15.02-12.18 27.2-27.2 27.2S.71 50.55.71 35.53c0-11.63 7.3-21.55 17.56-25.44l2.6 2.11c-9.84 3.02-16.99 12.17-16.99 23 0 13.28 10.77 24.05 24.05 24.05 13.28 0 24.05-10.77 24.05-24.05 0-10.92-7.28-20.14-17.25-23.08l2.68-2.09z"/></g></switch></symbol><symbol id="plexiglasstand_4" viewBox="0 0 57.68 58.96" xml:space="preserve" xmlns="http://www.w3.org/2000/svg"><style>.bist28{fill:none;stroke:#d24a43;stroke-width:1.4173;stroke-miterlimit:22.9256}</style><switch><g><path fill-rule="evenodd" clip-rule="evenodd" stroke="#201600" stroke-width=".567" stroke-miterlimit="22.926" d="M-481.86 592.4v-2219.85h2140.72V592.4H-481.86z"/><path class="bist28" d="M42.9 8.51C32.4 21.28 21.89 34.05 11.39 46.82c-1.18 2.06-.78 3.69.6 5.18 1.56 1.26 3.11 2.52 4.67 3.77 1.81 1.22 3.39 1.22 5.54-.09 10.45-12.85 20.9-25.71 31.35-38.56.3-.31.58-.93-.07-1.63l-8.22-6.62c-1.13-.91-1.44-1.48-2.36-.36z"/><path stroke="#d24a43" stroke-width="2.835" stroke-miterlimit="22.926" d="M28.24 27.09l10.36 8.42"/><path class="bist28" d="M53.43 16.39c6.7 5.86 2.81 16.31-2.71 21.65-3.99 4.28-9.14 8.73-13.28 10.58m9.14-38.75l3.11-3.88c.35-.44 1-.51 1.44-.16l3.41 2.73c.44.35.51 1 .16 1.44l-3.11 3.88-5.01-4.01z"/><path d="M15.23 55.16l-2.95 3.36c-.48.54-1.31.6-1.85.12l-.05-.05c-.54-.48-.6-1.31-.12-1.85l2.95-3.36 2.02 1.78z" fill-rule="evenodd" clip-rule="evenodd"/><path class="bist28" d="M11.09 11.09L1.7 22.43c-1.19 1.83-1.49 3.73.18 5.75 2.49 2.24 4.98 4.49 7.48 6.73 2.1 1.36 3.82 1.7 6.5-.21 6.93-8.19 13.07-15.78 20-23.97 1.26-1.82 1.65-3.62.74-4.9-1.42-1.27-2.99-3-4.41-4.28-1.3-1.09-3.79-1.3-5.77.44-5.19 6.27-9.98 11.65-15.17 17.91-.75.92-.95 1.99-.09 2.88l3.05 2.57c1.26.94 1.93-.13 2.86-1.08 3.17-3.83 6.64-7.59 9.81-11.42"/></g></switch></symbol><symbol id="scroll__shest" viewBox="0 0 54.46 41.68" xml:space="preserve" xmlns="http://www.w3.org/2000/svg"><style/><path d="M28.71 9.85l-.03 3.06c0 .03.06 0 .08 0 1.04.24 1.97.68 2.85 1.21.02.03.09-.03.11-.03l2.34-2.34c.82-.84 2.16-.84 2.98 0 .82.82.82 2.16 0 2.98l-2.32 2.32c-.02 0-.02.05-.01.08.56.87.97 1.84 1.22 2.9.01.03.03.05.06.05h1.75m2.61.36c.51.32.89.82.98 1.42a2.12 2.12 0 01-2.09 2.42h-3.26c-.03 0-.05 0-.06.03a9.419 9.419 0 01-1.22 2.92c-.02.03-.01.05.01.08l2.32 2.32c.89.87.82 2.37-.23 3.16-.86.66-2.1.45-2.86-.32l-2.22-2.21c-.02-.03-.05-.03-.07 0-.88.53-1.85.92-2.89 1.16-.03 0-.05.03-.05.05v3.34a2.1 2.1 0 01-2.41 2.08 1.89 1.89 0 01-.87-.37m-13.2-13.16c-.29-.42-.44-.95-.36-1.5.15-1.05 1.17-1.79 2.25-1.79h3.29c.03 0 .05-.03.06-.05.23-1 .63-1.95 1.15-2.79.01-.03.01-.05-.01-.08l-2.44-2.42c-.82-.82-.82-2.16 0-2.98.82-.84 2.16-.84 2.98 0l2.41 2.4c.02.03.26-.08.29-.11.85-.53 1.59-.82 2.6-1.08.03 0 .01.03.01 0l.04-3.42a2.1 2.1 0 012.41-2.08c.33.03.62.16.87.34M24.5 34.48v-3.06c0-.03-.02-.05-.05-.05a9.731 9.731 0 01-2.81-1.18c-.02-.03-.05-.03-.07 0l-2.41 2.42c-.89.9-2.39.82-3.18-.24-.65-.87-.45-2.11.32-2.87l2.32-2.32c.02-.03.02-.05.01-.08a9.55 9.55 0 01-1.15-2.79c-.01-.03-.03-.03-.06-.03H14.3m14.43-5.74c-.63-.37-1.35-.58-2.13-.58-2.33 0-4.21 1.87-4.21 4.21 0 .76.23 1.5.6 2.13m7.23-4.26c.37.63.6 1.34.6 2.13 0 2.32-1.89 4.21-4.21 4.21-.78 0-1.5-.24-2.13-.61" stroke="#fff" stroke-width="1.417" stroke-linecap="round" stroke-linejoin="round" stroke-miterlimit="10"/></symbol><symbol id="scroll_case" viewBox="0 0 54.46 41.68" xml:space="preserve" xmlns="http://www.w3.org/2000/svg"><style/><g stroke="#fff" stroke-linecap="round" stroke-linejoin="round" stroke-miterlimit="10"><path d="M16.35 20.56H36.5m-6.92 0v3.4h-6.3v-3.24" stroke-width="1.402"/><path d="M22.7 12.8v-1.29c0-2.04 1.66-3.7 3.7-3.7h0c2.04 0 3.7 1.66 3.7 3.7v1.29m10.03 18.24c0 .97-.78 1.75-1.75 1.75H13.85c-.97 0-1.75-.78-1.75-1.75v-16.5c0-.97.78-1.75 1.75-1.75h24.53c.97 0 1.75.78 1.75 1.75v16.5h0z" stroke-width="1.752"/></g></symbol><symbol id="scroll_dinamic" viewBox="0 0 54.46 41.68" xml:space="preserve" xmlns="http://www.w3.org/2000/svg"><style/><path d="M17.82 18.25l-.04-.1-1.66.69m6.69 11.42l.02.05-1.66.69m-5.05-12.16l-2.48 1.03c-1.83.76-2.68 2.9-1.9 4.78l2.23 5.38c.78 1.87 2.88 2.76 4.72 2L21.17 31m1.82-19.23l-5.17 6.48m6.33-7.97l1.55-1.94c.76-.95 2.28-.71 2.76.44l1.68 4.04m.99 2.39l5.89 14.17c.48 1.16-.42 2.4-1.65 2.24l-10.53-1.14m-7.02-12.23l.67 1.6m.7 1.7l3.61 8.7m-1.63.74l-3.63-8.75m-1.42-3.4l.71 1.7m10.96-8.71l.7 1.68m.99 2.39l1.41 3.4M34 11.54l5.07 12.2m-1.83-10l2.53 6.09m.09-5.41l1.27 3.06" stroke="#fff" stroke-width="1.546" stroke-linecap="round" stroke-linejoin="round" stroke-miterlimit="10"/></symbol><symbol id="scroll_letter" viewBox="0 0 54.46 41.68" xml:space="preserve" xmlns="http://www.w3.org/2000/svg"><style/><path d="M13.01 17.24l10.5 8.3m6.52-1.25l8.91-7.05M14.56 32.63l7.41-5.87m-8.73-9.71c-.57.34-.94.95-.94 1.66v13.64c0 1.08.87 1.95 1.95 1.95H36.5m-12.96-8.78l1.22-.97c.71-.56 1.72-.56 2.43 0l11.75 9.29c.43-.36.71-.89.71-1.49V18.71c0-.71-.38-1.32-.94-1.66m-18.04-6.14h10.61m4.46 3.69v-3.69h-4.47M16.21 14.6v5.17m19.53-5.17v3.2m-15.07-6.89h-4.46v1.59m13.06-3.24l-2.06-1.7c-.72-.6-1.77-.6-2.49 0l-4.05 3.35m18.04 6.14l-2.96-2.45m-22.51 2.45l2.96-2.45m2.93 1.12h7.81m.01 14.58c0 .54-.44.97-.98.97s-.98-.43-.98-.97c0-.53.44-.97.98-.97.55 0 .98.44.98.97h0zm0-11.53h-7.82m13.68 0h-3.9" stroke="#fff" stroke-width="1.516" stroke-linecap="round" stroke-linejoin="round" stroke-miterlimit="10"/></symbol><symbol id="scroll_pero" viewBox="0 0 54.46 41.68" xml:space="preserve" xmlns="http://www.w3.org/2000/svg"><style/><path d="M24.48 13.14l-7.86 4.72-1.46 15.55 17.12-3.03 2.62-7.4M31.49 7.39l8.82 9.56-2.28 2.11c-2.45 2.26-6.3 2.1-8.56-.34l-.61-.66c-2.26-2.45-2.1-6.3.34-8.56l2.29-2.11h0zm-6.69 13c1.72 0 3.12 1.4 3.12 3.12 0 1.72-1.4 3.12-3.12 3.12-1.72 0-3.12-1.4-3.12-3.12.01-1.72 1.4-3.12 3.12-3.12h0zM15.4 33l7.21-7.28" stroke="#fff" stroke-width="1.701" stroke-miterlimit="22.926"/></symbol><symbol id="scroll_person" viewBox="0 0 54.46 41.68" xml:space="preserve" xmlns="http://www.w3.org/2000/svg"><style/><path d="M25.8 20.3c0 2.32-1.87 4.19-4.19 4.19h-.95c-2.31 0-4.19-1.87-4.19-4.19v-5.4c0-2.31 1.87-4.19 4.19-4.19h.95c2.31 0 4.19 1.88 4.19 4.19v5.4h0zm-6.57 4.29v2.05s-8.55 1.91-8.49 3.77v1.85h10.4m1.91-5.62s8.55 1.91 8.49 3.77v1.85h-10.4m10.5-19.6h10.07M31.64 17.6h10.07m-10.07 4.94h10.07" stroke="#fff" stroke-width="1.549" stroke-linecap="round" stroke-linejoin="round" stroke-miterlimit="10"/></symbol><symbol id="technology1" viewBox="0 0 97.02 122.71" xml:space="preserve" xmlns="http://www.w3.org/2000/svg"><style>.bpst11{fill-rule:evenodd;clip-rule:evenodd;fill:#f3444e}.bpst12{fill:none;stroke:#f3444e;stroke-width:1.4173;stroke-miterlimit:22.9256}</style><switch><g><path fill-rule="evenodd" clip-rule="evenodd" stroke="#201600" stroke-width=".567" stroke-miterlimit="22.926" d="M-63.27 1624.18V-595.67h2140.72v2219.85H-63.27z"/><path class="bpst11" d="M8.52 0h54.71v2.58h4.82v3H4.28v-3h4.24V0zM4.24 5.58l-2.19 2.1v3.65l2.19 1.88h2.18V5.58H4.24zm3.27 7.63h1.66V5.58H7.51v7.63zm2.75 0h1.66V5.58h-1.66v7.63zm2.75 0h1.66V5.58h-1.66v7.63zm2.76 0h1.66V5.58h-1.66v7.63zm2.75 0h1.66V5.58h-1.66v7.63zm2.76 0h1.66V5.58h-1.66v7.63zm2.75 0h1.66V5.58h-1.66v7.63zm2.75 0h1.66V5.58h-1.66v7.63zm2.76 0h1.66V5.58h-1.66v7.63zm2.75 0h1.66V5.58h-1.66v7.63zm2.76 0h1.66V5.58h-1.66v7.63zm2.75 0h1.66V5.58H37.8v7.63zm2.76 0h1.66V5.58h-1.66v7.63zm2.75 0h1.66V5.58h-1.66v7.63zm2.75 0h1.66V5.58h-1.66v7.63zm2.76 0h1.66V5.58h-1.66v7.63zm2.75 0h1.66V5.58h-1.66v7.63zm2.76 0h1.66V5.58h-1.66v7.63zm2.75 0h1.66V5.58h-1.66v7.63zm2.76 0h1.66V5.58h-1.66v7.63zm2.75 0h1.66V5.58h-1.66v7.63zm2.75 0h.93l2.25-2.33-.01-3.2-2.23-2.1h-.93v7.63h-.01z"/><path class="bpst12" d="M6.72 17.03l1.75 2.05h4.56l.64 4.55 1.51 7.85h41.59l1.59-7.85.42-4.55h4.08l2.05-2.05h1.36v-2.95H5.48v2.95h1.24zm11.86 51.1h34.58c.36 0 .66.3.66.66v4.02c0 .36-.3.66-.66.66-1.4 0-1.93.66-1.93 2.21 0 .27-.22.49-.49.49H20.96a.49.49 0 01-.49-.49c0-1.5-.53-2.21-1.88-2.21-.36 0-.66-.3-.66-.66v-4.02a.65.65 0 01.65-.66zm2.95 10.01c.89 1.94 2.76 4.33 5.05 4.42 1.7 0 1.35-.19 1.35 1.6 0 1.14-.21.99.91.99h.98c1.18 0 .92-.11.92 1.15v2.81c0 .53.1.47-.41.47h-.42c-.46 0-.42.38-.42 1.14v2.65c0 1.11-.09.92.52 1.86 1.08 1.66 2.17 3.32 3.25 4.99.72 1.11.4 1 1.7 1h1.62c1.25 0 .94.07 1.58-1.04.89-1.53 1.78-3.07 2.67-4.6.65-1.13.66-.94.67-2.25l.03-3.18c0-.6.13-.56-.43-.56-.57 0-.45.05-.45-.56v-2.75c0-1.34-.2-1.11 1.16-1.11 1.87 0 1.9.08 1.87-1.65-.02-1.11-.18-.93.92-.93h.99c2.18-.56 3.35-2.48 4.43-4.43-9.5-.02-18.99-.02-28.49-.02zm.79-44.38h27.01c.43 0 .78.35.78.78v1.17c-.04 1.69-.45.66-1.37 2.07-1.54 2.35-2.16 5.1-2.11 7.93.04 2.35.31 2.25-2 2.25H22.32c-.43 0-.78-.35-.78-.78V34.54c0-.43.35-.78.78-.78zm-1.07 16.57h25.14c1.17 0 1.34 0 1.59 1.19.26 1.26.84 2.55 2.12 2.59h.61c.64.01.99.75 1 1.47v3.27c0 .66-.54 1.2-1.2 1.2h-.59v1.39h1.13c.33 0 .6.27.6.6v.72c0 .33-.27.6-.6.6h-1.13v.57h1.12c.34 0 .62.28.62.62v.74c0 .34-.28.62-.62.62h-1.12v.81h-27.9v-.81h-1.29c-.34 0-.62-.28-.62-.62v-.74c0-.34.28-.62.62-.62h1.29v-.57H20.7c-.33 0-.6-.27-.6-.6v-.72c0-.33.27-.6.6-.6h1.31v-1.39h-.76c-.65 0-1.2-.54-1.2-1.2v-7.32c0-.66.54-1.2 1.2-1.2zm30.47-10.74c-1.54 3.17-2.41 8.32.07 11.52.4.47 1.84 1.24 2.05 2.1v1.87c0 .31.26.57.57.57h1.54c.31 0 .57-.26.57-.57v-3.46h11.61V40.48H56.54v-3.43a.57.57 0 00-.57-.57h-2.4a.57.57 0 00-.57.57v1.51c-.96 0-.82.09-1.28 1.03z"/><path class="bpst11" d="M69.12 49.28h1.7v2.08h-1.7v-2.08zm0-5.68h1.7v4.66h-1.7V43.6zm0-3.12h1.7v2.08h-1.7v-2.08zm2.33 7.32h1.7v1.15h-1.7V47.8zm0-4.87h1.7v1.15h-1.7v-1.15zm0 1.73h1.7v2.58h-1.7v-2.58z"/><path class="bpst12" d="M73.15 43.92c2.57.39 5.28.46 7.53-.4 2.21-.85 4.34-2.56 6.41-5.61 1.87-4.08 1.88-8.06 1.88-11.99.01-5.27.01-10.47 3.85-16.14l3.21 2.24c-3.14 4.66-3.14 9.25-3.15 13.9-.01 4.41-.01 8.88-2.28 13.76l-.05.1-.11.16c-2.6 3.9-5.4 6.12-8.38 7.26-2.98 1.14-5.75 1.21-8.93.73v-4.01h.02z"/><path class="bpst11" d="M34.57 102.5l.41 6.37v2.07l-6.2-1.38v1.62l-6.94-2.85 3.25 2.95-25.04-4.51 23.22 6.38c-.24.06-.15.05-.34.05L0 118.26l25.68-3.59-7.68 3.44 11.37-3.15-3.15 2.26 9.15-2.34.45 6.92.06.9.06-.9.45-7.08 8.73 2.5-2.95-2.26 11.37 3.2-8.07-3.79 26.42 3.69-23.37-5.02 23.47-6.59-25.49 4.48 3.64-2.46-6.84 2.71v-1.57l-6.59 1.33v-1.25l.46-7.17-2.6-.02z"/></g></switch></symbol><symbol id="technology2" viewBox="0 0 79.02 120.66" xml:space="preserve" xmlns="http://www.w3.org/2000/svg"><style>.bqst11{fill-rule:evenodd;clip-rule:evenodd;fill:#f3444e}.bqst12{fill:none;stroke:#f3444e;stroke-width:1.4173;stroke-miterlimit:22.9256}</style><switch><g><path fill-rule="evenodd" clip-rule="evenodd" stroke="#201600" stroke-width=".567" stroke-miterlimit="22.926" d="M-198.31 1624.28V-595.57h2140.72v2219.85H-198.31z"/><path class="bqst12" d="M3.03 2.12H57.1c1.28 0 2.32 1.04 2.32 2.32v14.43c0 1.28-1.04 2.32-2.32 2.32H3.03c-1.28 0-2.32-1.04-2.32-2.32V4.44c0-1.27 1.04-2.32 2.32-2.32zm5.99 22.06h5.31c.34 0 .62.28.62.62v17.92c0 .34-.28.62-.62.62H9.02c-.34 0-.62-.28-.62-.62V24.8c0-.34.28-.62.62-.62zm11.69 0H47.3c.41 0 .75.33.75.74v17.67c0 .41-.33.74-.75.74H20.71c-.41 0-.75-.33-.75-.74V24.93c.01-.41.34-.75.75-.75zm29.95 0c.11 0 .2.09.2.2v18.76a.2.2 0 01-.2.2.2.2 0 01-.2-.2V24.38c.01-.11.1-.2.2-.2zM9.51 45.62h5.53c.83 0 .63-.03 1.03.74l1.92 3.66c.5.94.39.7-.76.7h-2.9c-1.02 0-.78.07-1.5-.65l-3.61-3.61c-.98-.98-1.09-.84.29-.84zm11.77 0h23.58c1.31 0 1.29-.18.43.8-.98 1.13-1.86 2.15-2.87 3.33-.85.98-1.18.97-2.52.96-5.97-.02-11.32.01-17.13.01-1.09 0-1.22-.15-1.39-.68l-.81-3.47c-.26-1.12-.42-.95.71-.95zm28.3 0h1.1c.9 0 .83-.1.23.56-1.24 1.37-2.49 2.73-3.73 4.1-.44.48-.28.44-.92.44h-.89c-.81 0-.73.09-.21-.53 1.16-1.37 2.33-2.74 3.49-4.11.43-.51.27-.46.93-.46zM14.4 53.11h31.3c.46 0 .83.37.83.83v1.91c0 .46-.37.83-.83.83H14.4c-.46 0-.83-.37-.83-.83v-1.91c0-.46.37-.83.83-.83zm.03 6.65h31.29c.47.02.41.65-.02 1.02-3.38 2.24-6.75 4.48-10.13 6.72-1.2.8-1.04.92-2.47.92h-6.22c-1.34 0-1.42-.09-2.53-.83-3.37-2.24-6.44-4.27-9.81-6.51-.56-.31-.59-1.31-.11-1.32zm10.84 11.36v2.69c0 .51.1.45-.39.45h-.4c-.44 0-.41.36-.41 1.09v2.54c0 1.07-.08.89.5 1.78 1.04 1.59 2.08 3.19 3.12 4.78.69 1.06.38.96 1.63.96h1.55c1.19 0 .9.07 1.51-1 .85-1.47 1.7-2.94 2.56-4.41.63-1.08.63-.9.64-2.15.01-1.02.02-2.03.02-3.05 0-.58.13-.53-.41-.53-.55 0-.43.05-.43-.53V71.1l-9.49.02z"/><path d="M28.94 87.61h2.4c.39 0 .71.32.71.71v1.22l-3.81 2.21v-3.43c0-.39.31-.71.7-.71h0zm3.11 5.2v2.86l-3.81 2.21v-2.86l3.81-2.21h0zm0 6.13v2.83l-3.81 2.21v-2.83l3.81-2.21h0zm0 6.1v4.71l-3.81 2.55v-5.06l3.81-2.2h0z" fill-rule="evenodd" clip-rule="evenodd" stroke="#f3444e" stroke-width="1.417" stroke-miterlimit="22.926"/><path class="bqst11" d="M51.12 40.49h1.7v2.08h-1.7v-2.08zm0-5.68h1.7v4.66h-1.7v-4.66zm0-3.11h1.7v2.08h-1.7V31.7zm2.33 7.31h1.7v1.15h-1.7v-1.15zm0-4.86h1.7v1.15h-1.7v-1.15zm0 1.72h1.7v2.58h-1.7v-2.58z"/><path class="bqst12" d="M55.15 35.13c2.57.39 5.28.46 7.53-.4 2.21-.85 4.34-2.56 6.41-5.61 1.87-4.08 1.88-8.06 1.88-11.99.01-5.27.01-10.47 3.85-16.14l3.21 2.24c-3.14 4.66-3.14 9.25-3.15 13.9-.01 4.41-.01 8.88-2.28 13.76l-.04.11-.11.16c-2.6 3.9-5.4 6.12-8.38 7.26-2.98 1.14-5.75 1.21-8.93.73v-4.02h.01z"/><path class="bqst11" d="M20.62 118.79c.95-1.32 1.89-2.37 2.84-3.97.86-1.59.84-4.12.29-5.07-2.17-3.07-7-2.43-7.99.43-.75 2.66-.32 4.18 2.95 5.94l-4.02.94c-2.77-2.23-4.2-3.84-2.71-7.02-2.6 3.32-.91 5.47 1.43 7.32l-.76.18c-.89-.39-1.76-1.25-2.37-2.61-2.57-5.71 8.16-11.2 13.23-6.63.52.49.89 1.22 1.19 2.37.52 3.14-.78 4.3-4.08 8.12zm15.8-9.14c1.21-4.33 4.06-5.59 6.73-4.17 2.36 1.43 3.12 2.81 2.07 6.24l3.42-1.97c.37-3.44.24-5.55-2.99-6.85 4.09.68 4.41 3.35 4.08 6.23l.65-.37c.34-.87.35-2.06-.17-3.45-2.06-5.49-8.02-4.6-11.68-1.35-3.05 2.7-2.8 6.41-2.42 8.66l.06.03c-.12-.59-.01-2.06.25-3z"/><path class="bqst12" d="M33.06 117.22c-.28-4.44 2.15-7.66 6-8.78 2.12-.69 3.91.77 3.83 2.77-.26 3.91-4.93 2.99-4.93.33m-7.69 9.08c.24-3.62-1.87-6.24-5.23-7.15-1.85-.56-3.4.63-3.33 2.25.23 3.19 4.3 2.44 4.3.27"/></g></switch></symbol><symbol id="technology3" viewBox="0 0 117.39 108.75" xml:space="preserve" xmlns="http://www.w3.org/2000/svg"><style>.brst11{fill-rule:evenodd;clip-rule:evenodd;fill:#f3444e}.brst12{fill:none;stroke:#f3444e;stroke-width:1.4173;stroke-miterlimit:22.9256}</style><switch><g><path fill-rule="evenodd" clip-rule="evenodd" stroke="#201600" stroke-width=".567" stroke-miterlimit="22.926" d="M-338.45 1621.61V-598.25h2140.72v2219.86H-338.45z"/><path class="brst12" d="M8.36 27.46c4.23 0 7.65 8.84 7.65 19.74 0 10.9-3.42 19.74-7.65 19.74S.71 58.1.71 47.2c0-10.9 3.42-19.74 7.65-19.74z"/><path d="M10.13 36.26c1.36 0 2.47 4.89 2.47 10.93s-1.11 10.93-2.47 10.93-2.47-4.89-2.47-10.92c0-6.04 1.1-10.94 2.47-10.94h0z" fill-rule="evenodd" clip-rule="evenodd" stroke="#f3444e" stroke-width="1.417" stroke-miterlimit="22.926"/><path class="brst12" d="M17.94 26.52c4.22 0 8.18 8.77 8.18 19.67 0 8.49-2.04 15.48-4.7 18.98-1.46 1.93-4.72 3.51-6.94 1.87.22-.41 1.48-2.24 2.09-3.25.4.01.88-.26 1.21-.63 1.66-2.07 4.44-8.48 4.44-16 0-6.82-1.39-11.63-3.91-15.86-.39-.65-1.02-1.1-1.76-1.07-.18-.42-1.31-2.59-1.52-3.08.91-.42 2.2-.63 2.91-.63zm7.98 0c4.23 0 8.18 8.77 8.18 19.67 0 8.49-2.04 15.48-4.7 18.98-1.46 1.93-4.72 3.51-6.94 1.87.22-.41 1.48-2.24 2.09-3.25.4.01.88-.26 1.21-.63 1.66-2.07 4.44-8.48 4.44-16 0-6.82-1.39-11.63-3.91-15.86-.39-.65-1.02-1.1-1.76-1.07-.18-.42-1.31-2.59-1.52-3.08.91-.42 2.2-.63 2.91-.63zm8.61 0c4.23 0 8.18 8.77 8.18 19.67 0 8.49-2.04 15.48-4.7 18.98-1.46 1.93-4.72 3.51-6.94 1.87.22-.41 1.48-2.24 2.09-3.25.4.01.88-.26 1.21-.63 1.66-2.07 4.44-8.48 4.44-16 0-6.82-1.39-11.63-3.91-15.86-.39-.65-1.02-1.1-1.76-1.07-.18-.42-1.31-2.59-1.52-3.08.91-.42 2.2-.63 2.91-.63zm8.3 0c4.23 0 8.18 8.77 8.18 19.67-.05 4.19-3.89 4.5-3.9.97 0-6.82-1.39-11.63-3.91-15.86-.39-.65-1.02-1.1-1.76-1.07-.18-.42-1.31-2.59-1.52-3.08.91-.42 2.2-.63 2.91-.63zm11.09 18.19H73.9c.87 0 1.57.71 1.57 1.58v1.65c0 .87-.71 1.57-1.57 1.57H53.39c.73-1.82.61-3.32.53-4.8zm17.7-17.72c9.2 16.88 8.92 22.57 1.52 39.04-1.52 3.39-1.56 2.63 2.41 2.63h3.15c2.88 0 2.39.26 3.71-2.49 3.06-6.4 4.51-13.68 4.16-20.68-.34-6.73-2.37-13.22-5.21-18.43-.91-1.67-.62-1.37-2.51-1.37h-5.36c-2.15-.01-2.83-.46-1.87 1.3zm24.08-1.31h2.31c-.03-3.18 4.55-5.11 4.81 0h6.36c1.89 0 1.6-.3 2.51 1.37 5.8 10.65 7.05 26.56 1.05 39.11-1.31 2.75-.83 2.49-3.71 2.49h-5.1c-.22 4.62-5.22 4.6-4.7 0H96.8c-.48 3.65-5.22 4.98-4.7 0h-4.36c-3.97 0-3.93.76-2.41-2.63 3.95-8.8 4.17-14.53 3.7-20.53-.41-5.22-.94-10.65-5.22-18.51-.96-1.76-.28-1.31 1.87-1.31h5.21c-.12-2.73 4.24-5.29 4.81.01zM75.92 59.42l-35.13.05m35.13-23.88l-26.26.05M34.9 69.96v11.55h27.08l.07.01c3.13.08 5.13 2.7 5.15 5.68l.01.01v20.29h-4.54V87.21c-.01-.56-.18-.86-.69-.88H35.09l-.16-.01c-1.46-.08-2.61-.6-3.49-1.57-.8-.88-1.24-2.01-1.35-3.39l-.01-.23V68.65c1.36 1.17 3.17 1.51 4.82 1.31zm42.23-1.31v14.83c0 6.2.97 6.38-5.26 6.38H56.2c-5 0-5.25.09-5.25 4.87v14.03M37.81 24.38h-5.26c-.48 0-.88-.39-.88-.88V15c0-.48.39-.88.88-.88h5.26c.48 0 .88.39.88.88v8.5c0 .48-.4.88-.88.88z"/><path d="M37.55 12.9h-4.8c-.96 0-.74.11-1.41-.58-.48-.49-.95-.99-1.43-1.47-.84-.84-.39-.8 1.09-.8h9.25c1.53 0 1.58-.13.47.92-.44.42-.88.83-1.32 1.25-.88.84-.63.68-1.85.68h0z" fill-rule="evenodd" clip-rule="evenodd" stroke="#f3444e" stroke-width=".567" stroke-miterlimit="22.926"/><path class="brst11" d="M39.74 8.92h-8.7c-.25 0-.46-.21-.46-.46v-.43c0-.25.2-.46.46-.46h8.7c.25 0 .46.2.46.46v.44c-.01.25-.21.45-.46.45zm1.06-1.91H30.01a.49.49 0 01-.49-.49v-.36c0-.27.22-.49.49-.49H40.8c.27 0 .49.22.49.49v.36c0 .27-.22.49-.49.49zm-1.06-1.84h-8.71c-.25 0-.45-.2-.45-.45v-.44c0-.25.2-.45.45-.45h8.71c.25 0 .45.2.45.45v.44c0 .25-.2.45-.45.45zm1.13-1.93H29.93c-.23 0-.42-.19-.42-.42v-.51c0-.23.19-.42.42-.42h10.94c.23 0 .42.19.42.42v.51c0 .23-.19.42-.42.42zm-1.15-1.89h-8.67a.47.47 0 01-.47-.47v-.4c0-.26.21-.47.47-.47h8.67c.26 0 .47.21.47.47v.4c0 .25-.21.47-.47.47z"/></g></switch></symbol><symbol id="technology4" viewBox="0 0 83.87 99.78" xml:space="preserve" xmlns="http://www.w3.org/2000/svg"><style>.bsst11{fill-rule:evenodd;clip-rule:evenodd;fill:#f3444e}.bsst12{fill:none;stroke:#f3444e;stroke-width:1.4173;stroke-miterlimit:22.9256}</style><switch><g><path fill-rule="evenodd" clip-rule="evenodd" stroke="#201600" stroke-width=".567" stroke-miterlimit="22.926" d="M-498.86 1621.61V-598.25h2140.72v2219.86H-498.86z"/><path class="bsst12" d="M58.72 83.79H25.25c-2.49 0-3.29-.8-3.29-3.29V53.78c0-2.49 2.04-4.53 4.53-4.53h31c2.49 0 4.53 2.04 4.53 4.53V80.5c-.01 2.49-.81 3.29-3.3 3.29z"/><path class="bsst11" d="M27.01 51.72h29.63a1.274 1.274 0 110 2.55H27.01c-.7 0-1.28-.57-1.28-1.27.01-.7.58-1.28 1.28-1.28z"/><path class="bsst12" d="M8.19 36.35h5.72v-1.41A5.088 5.088 0 0119 29.85h46.35c1.4 0 2.68.57 3.6 1.5.92.92 1.49 2.2 1.49 3.6v1.41h5.96c3.71 0 6.75 3.04 6.75 6.75v10.2c0 3.71-3.04 6.75-6.75 6.75h-.12v28.39l2.92 8.31c.27.78-.14 1.64-.92 1.91l-.92.32c-.78.27-1.64-.14-1.91-.92L69.39 80.8c-.27-.78.14-1.64.92-1.91l.92-.32c.37-.13.75-.11 1.08.04V60.05h-7.29v-8.4c0-2.84-2.33-5.18-5.17-5.18h-35.4c-2.85 0-5.17 2.33-5.17 5.18v8.4h-8.54V78.6c.33-.14.72-.16 1.08-.04l.92.32c.78.27 1.19 1.13.92 1.91L7.59 98.06c-.27.78-1.13 1.19-1.91.92l-.92-.32a1.502 1.502 0 01-.92-1.91l2.92-8.31V59.89c-3.03-.66-5.32-3.37-5.32-6.6V43.1c0-3.72 3.04-6.75 6.75-6.75zm8.56 0h50.87v-1.41c0-.62-.25-1.18-.66-1.59-.41-.41-.97-.66-1.59-.66H19.01c-.62 0-1.18.25-1.59.66-.41.41-.66.97-.66 1.59v1.41h-.01z"/><path class="bsst11" d="M8.19.31c4.98 4.3 8.45 9.11 8.4 13.86.42 4.94-2.81 8.42-8.4 8.69-5.13-.2-8.26-2.64-8.18-8.73C-.16 9.56 4.13 4.87 8.19.31zm2.43 14.57l2.1.64c-.32 1.18-.86 2.06-1.61 2.63-.75.57-1.7.86-2.85.86-1.43 0-2.6-.49-3.52-1.46-.92-.97-1.38-2.31-1.38-4 0-1.79.46-3.17 1.38-4.16.92-.99 2.14-1.48 3.64-1.48 1.31 0 2.38.39 3.2 1.17.49.46.85 1.12 1.1 1.98l-2.14.51c-.13-.55-.39-.99-.79-1.32-.4-.32-.89-.48-1.47-.48-.8 0-1.44.28-1.94.86-.5.57-.74 1.49-.74 2.77 0 1.35.25 2.32.73 2.9.49.58 1.12.86 1.91.86.58 0 1.07-.18 1.49-.55.41-.37.71-.94.89-1.73zM31.35.31c4.98 4.3 8.24 9.27 8.4 13.86.31 4.47-2.81 8.42-8.4 8.69-5.13-.2-8.27-2.64-8.18-8.73-.06-4.73 4.12-9.26 8.18-13.82zm-5.21 18.53V8.11h3.25l1.92 7.32 1.9-7.32h3.26v10.73h-2.01l-.01-8.45-2.12 8.45h-2.09l-2.11-8.45-.01 8.45h-1.98zM53.1 0c4.98 4.3 7.82 9.48 8.4 13.86.31 4.47-2.81 8.42-8.4 8.69-5.13-.2-8.26-2.64-8.18-8.73.31-5.25 4.12-9.25 8.18-13.82zm-1.05 19.06v-4.52l-3.93-6.21h2.54l2.54 4.25 2.47-4.25h2.49l-3.93 6.23v4.5h-2.18zM75.13 0c4.98 4.3 7.82 9.48 8.4 13.86.31 4.47-2.81 8.42-8.4 8.69-5.12-.2-8.26-2.64-8.18-8.73.04-5.09 4.12-9.25 8.18-13.82zM71.5 19.06V8.33h2.17v4.75l4.38-4.75h2.91l-4.05 4.18 4.26 6.55h-2.8l-2.95-5.04-1.75 1.79v3.24H71.5v.01z"/></g></switch></symbol><symbol id="tw" viewBox="0 0 15.63 12.68" xml:space="preserve" xmlns="http://www.w3.org/2000/svg"><style/><path fill-rule="evenodd" clip-rule="evenodd" stroke="#201600" stroke-width=".567" stroke-miterlimit="22.926" d="M-1674.49 1967.65V-252.21H466.23v2219.86h-2140.72z"/><path d="M10.63 0c1.24-.02 1.9.43 2.53 1.01.54-.05 1.23-.35 1.64-.55.13-.07.27-.15.4-.22-.23.63-.55 1.13-1.04 1.51-.11.08-.22.2-.35.25.7-.01 1.27-.32 1.81-.49v.01c-.29.45-.67.92-1.09 1.25-.17.13-.33.27-.5.4.01.74-.01 1.44-.15 2.06-.8 3.6-2.92 6.04-6.28 7.09-1.21.38-3.15.53-4.54.19-.69-.17-1.3-.36-1.88-.62a7.1 7.1 0 01-.91-.47c-.08-.07-.18-.13-.27-.18.31.01.68.1 1.02.04.32-.05.62-.04.92-.1.73-.16 1.37-.37 1.92-.69.27-.16.68-.34.87-.57-.36 0-.69-.09-.95-.18-1.04-.37-1.64-1.04-2.04-2.05.32.03 1.22.11 1.44-.06-.4-.03-.78-.25-1.05-.42C1.3 6.69.62 5.81.62 4.47c.11.05.22.1.33.16.21.08.42.12.67.17.11.02.32.08.44.04h-.02c-.16-.18-.42-.31-.59-.51C.92 3.66.42 2.64.74 1.42c.08-.31.21-.58.34-.83.01 0 .01.01.02.01.06.13.2.23.29.34.27.34.61.64.95.91 1.17.92 2.22 1.48 3.92 1.89.43.1.92.18 1.44.18-.15-.42-.1-1.1.01-1.5C8 1.4 8.62.66 9.53.27c.22-.09.46-.16.71-.22.13-.02.26-.03.39-.05z" fill-rule="evenodd" clip-rule="evenodd"/></symbol></svg>