<?xml version="1.0" encoding="utf-8"?><svg xmlns="http://www.w3.org/2000/svg" xmlns:xlink="http://www.w3.org/1999/xlink"><symbol id="YouTube" viewBox="0 0 16.99 12.68" xml:space="preserve" xmlns="http://www.w3.org/2000/svg"><style/><path fill-rule="evenodd" clip-rule="evenodd" stroke-width=".567" stroke-miterlimit="22.926" d="M-1801.37 1967.65V-252.21H339.35v2219.86h-2140.72z"/><path d="M5.91 10.42V2.26l6.97 4.08-6.97 4.08zM13.8 0H3.19C1.43 0 0 1.43 0 3.19v6.3c0 1.76 1.43 3.19 3.19 3.19H13.8c1.76 0 3.19-1.43 3.19-3.19v-6.3C16.99 1.43 15.56 0 13.8 0z"/></symbol><symbol id="f" viewBox="0 0 7.53 16.06" xml:space="preserve" xmlns="http://www.w3.org/2000/svg"><style/><g fill-rule="evenodd" clip-rule="evenodd"><path stroke-width=".567" stroke-miterlimit="22.926" d="M-1761.03 1969.37V-250.48H379.69v2219.85h-2140.72z"/><path d="M7.51 0v2.58s-1.9-.19-2.38.54c-.26.41-.1 1.58-.13 2.42h2.53c-.21.98-.37 1.65-.52 2.5H4.99v8.03h-3.5v-8H0V5.54h1.47c.08-1.85.1-3.68 1.02-4.61C3.52-.12 4.51 0 7.51 0z"/></g></symbol><symbol id="g+" viewBox="0 0 17.81 15.31" xml:space="preserve" xmlns="http://www.w3.org/2000/svg"><style/><path fill-rule="evenodd" clip-rule="evenodd" stroke-width=".567" stroke-miterlimit="22.926" d="M-1843.82 1967.66V-252.2H296.9v2219.86h-2140.72z"/><path d="M7.21 3.71C7 2.15 5.8.9 4.59.86 3.38.83 2.56 2.02 2.77 3.58c.21 1.56 1.36 2.86 2.57 2.89 1.21.04 2.08-1.2 1.87-2.76zM5.18 9.5c-1.8-.02-3.42 1.08-3.42 2.4 0 1.35 1.3 2.33 3.11 2.33 2.53 0 3.42-.92 3.42-2.26 0-.16-.02-.32-.06-.48-.2-.76-.9-1.14-1.88-1.81-.35-.11-.75-.17-1.17-.18zm2.15-8.41c.99.55 1.57 1.44 1.57 2.6 0 .98-.6 1.74-1.38 2.34-.76.58-.9.82-.9 1.32 0 .42.81 1.14 1.24 1.44 1.24.86 1.61 1.66 1.61 3 0 1.67-1.61 3.53-4.58 3.53C2.27 15.31 0 14.06 0 12.4c0-1.69 2.08-3.33 4.69-3.33.28 0 .55-.01.81-.01-.36-.34-.64-.77-.64-1.28 0-.31.1-.61.24-.87-.14 0-.29-.02-.44-.02-2.14 0-3.58-1.55-3.58-3.4C1.09 1.67 3.07 0 5.17 0h4.7L8.82 1.09H7.33zm7.7 2.75v2.72h-1.11V3.84h-2.78V2.73h2.78V.02h1.11v2.72h2.78v1.11h-2.78v-.01z" fill-rule="evenodd" clip-rule="evenodd"/></symbol><symbol id="inst" viewBox="0 0 12.49 12.49" xml:space="preserve" xmlns="http://www.w3.org/2000/svg"><style/><path fill-rule="evenodd" clip-rule="evenodd" stroke-width=".567" stroke-miterlimit="22.926" d="M-1715.04 1967.65V-252.21H425.68v2219.86h-2140.72z"/><path d="M11.08 5.23H9.93c.09.32.14.66.14 1.01a3.82 3.82 0 11-7.64 0c0-.35.05-.69.14-1.01H1.4v5.23c0 .34.28.62.62.62h8.43c.34 0 .62-.28.62-.62V5.23h.01zm0-3.2c0-.35-.28-.62-.62-.62H9.21c-.34 0-.62.28-.62.62v1.25c0 .34.28.62.62.62h1.25c.34 0 .62-.28.62-.62V2.03zM6.24 3.82c-.97 0-1.81.58-2.19 1.4 0 .01-.01.02-.01.03-.02.05-.04.1-.06.16-.02.03-.03.05-.03.08-.02.05-.04.11-.05.16-.01.03-.01.06-.02.08l-.03.18c0 .02-.01.05-.01.07-.01.09-.02.18-.02.26 0 1.34 1.08 2.42 2.42 2.42 1.34 0 2.42-1.08 2.42-2.42 0-.09-.01-.17-.01-.26 0-.02-.01-.05-.01-.07l-.03-.18a.188.188 0 01-.02-.08c-.02-.05-.03-.11-.05-.16-.01-.03-.02-.05-.03-.08l-.06-.15c0-.01-.01-.02-.01-.03a2.428 2.428 0 00-2.2-1.41zm4.69 8.67H1.56c-.86 0-1.56-.7-1.56-1.56V1.56C0 .7.7 0 1.56 0h9.37c.86 0 1.56.7 1.56 1.56v9.36c0 .87-.7 1.57-1.56 1.57z" fill-rule="evenodd" clip-rule="evenodd"/></symbol><symbol id="ordered_call" viewBox="0 0 23.99 24" xml:space="preserve" xmlns="http://www.w3.org/2000/svg"><style>.est5{fill:#fff}</style><path fill-rule="evenodd" clip-rule="evenodd" stroke-width=".567" stroke-miterlimit="22.926" d="M-1341.04 1771.82V-448.04H799.68v2219.86h-2140.72z"/><path class="est5" d="M19.99 10h-5c-.55 0-1-.45-1-1V4c0-.55.45-1 1-1s1 .45 1 1v4h4c.55 0 1 .45 1 1s-.44 1-1 1z"/><path class="est5" d="M4.57 2.42L2.06 4.65c-.57.57.97 4.87 6.63 10.53C13.12 19.61 17.3 22 18.99 22c.22 0 .34-.04.38-.08l2.21-2.51-3.73-3.22-3.4 1.7c-.39.19-.85.12-1.15-.19l-7-7c-.3-.3-.38-.77-.19-1.15l1.7-3.4-3.24-3.73zM18.99 24c-2.58 0-7.29-2.98-11.71-7.4C2.47 11.78-1.66 5.54.67 3.21L4 .25c.19-.17.46-.26.72-.25.27.02.52.14.69.34l4.33 5c.26.3.32.74.14 1.1L8.21 9.8l5.98 5.98 3.36-1.68a.99.99 0 011.1.14l5 4.31c.2.18.33.42.34.69.02.27-.07.53-.25.73l-2.9 3.3c-.36.37-.92.73-1.85.73z"/><path class="est5" d="M14.99 10c-.26 0-.51-.1-.71-.29a.996.996 0 010-1.41l8-8a.996.996 0 111.41 1.41l-8 8c-.19.19-.44.29-.7.29z"/></symbol><symbol id="ordered_call_call" viewBox="0 0 23.03 18.41" xml:space="preserve" xmlns="http://www.w3.org/2000/svg"><style/><path fill-rule="evenodd" clip-rule="evenodd" stroke-width=".567" stroke-miterlimit="22.926" d="M-1341.45 1857.45V-362.4H799.27v2219.85h-2140.72z"/><g stroke-width="1.417"><path stroke-miterlimit="22.926" d="M22.32.23v17.25"/><path d="M3.54.71L1.02 2.95 1 2.96C-.14 4.1 2.12 8.22 6.11 12.21s8.19 6.34 9.34 5.2l.01-.02 2.24-2.55-3.86-3.33-3.09 1.54-5.41-5.4 1.55-3.09L3.54.71" stroke-linecap="round" stroke-linejoin="round" stroke-miterlimit="10"/></g></symbol><symbol id="scroll__shest" viewBox="0 0 54.46 41.68" xml:space="preserve" xmlns="http://www.w3.org/2000/svg"><style/><path d="M28.71 9.85l-.03 3.06c0 .03.06 0 .08 0 1.04.24 1.97.68 2.85 1.21.02.03.09-.03.11-.03l2.34-2.34c.82-.84 2.16-.84 2.98 0 .82.82.82 2.16 0 2.98l-2.32 2.32c-.02 0-.02.05-.01.08.56.87.97 1.84 1.22 2.9.01.03.03.05.06.05h1.75m2.61.36c.51.32.89.82.98 1.42a2.12 2.12 0 01-2.09 2.42h-3.26c-.03 0-.05 0-.06.03a9.419 9.419 0 01-1.22 2.92c-.02.03-.01.05.01.08l2.32 2.32c.89.87.82 2.37-.23 3.16-.86.66-2.1.45-2.86-.32l-2.22-2.21c-.02-.03-.05-.03-.07 0-.88.53-1.85.92-2.89 1.16-.03 0-.05.03-.05.05v3.34a2.1 2.1 0 01-2.41 2.08 1.89 1.89 0 01-.87-.37m-13.2-13.16c-.29-.42-.44-.95-.36-1.5.15-1.05 1.17-1.79 2.25-1.79h3.29c.03 0 .05-.03.06-.05.23-1 .63-1.95 1.15-2.79.01-.03.01-.05-.01-.08l-2.44-2.42c-.82-.82-.82-2.16 0-2.98.82-.84 2.16-.84 2.98 0l2.41 2.4c.02.03.26-.08.29-.11.85-.53 1.59-.82 2.6-1.08.03 0 .01.03.01 0l.04-3.42a2.1 2.1 0 012.41-2.08c.33.03.62.16.87.34M24.5 34.48v-3.06c0-.03-.02-.05-.05-.05a9.731 9.731 0 01-2.81-1.18c-.02-.03-.05-.03-.07 0l-2.41 2.42c-.89.9-2.39.82-3.18-.24-.65-.87-.45-2.11.32-2.87l2.32-2.32c.02-.03.02-.05.01-.08a9.55 9.55 0 01-1.15-2.79c-.01-.03-.03-.03-.06-.03H14.3m14.43-5.74c-.63-.37-1.35-.58-2.13-.58-2.33 0-4.21 1.87-4.21 4.21 0 .76.23 1.5.6 2.13m7.23-4.26c.37.63.6 1.34.6 2.13 0 2.32-1.89 4.21-4.21 4.21-.78 0-1.5-.24-2.13-.61" stroke-width="1.417" stroke-linecap="round" stroke-linejoin="round" stroke-miterlimit="10"/></symbol><symbol id="scroll_case" viewBox="0 0 54.46 41.68" xml:space="preserve" xmlns="http://www.w3.org/2000/svg"><style/><g stroke-linecap="round" stroke-linejoin="round" stroke-miterlimit="10"><path d="M16.35 20.56H36.5m-6.92 0v3.4h-6.3v-3.24" stroke-width="1.402"/><path d="M22.7 12.8v-1.29c0-2.04 1.66-3.7 3.7-3.7s3.7 1.66 3.7 3.7v1.29m10.03 18.24c0 .97-.78 1.75-1.75 1.75H13.85c-.97 0-1.75-.78-1.75-1.75v-16.5c0-.97.78-1.75 1.75-1.75h24.53c.97 0 1.75.78 1.75 1.75v16.5z" stroke-width="1.752"/></g></symbol><symbol id="scroll_dinamic" viewBox="0 0 54.46 41.68" xml:space="preserve" xmlns="http://www.w3.org/2000/svg"><style/><path d="M17.82 18.25l-.04-.1-1.66.69m6.69 11.42l.02.05-1.66.69m-5.05-12.16l-2.48 1.03c-1.83.76-2.68 2.9-1.9 4.78l2.23 5.38c.78 1.87 2.88 2.76 4.72 2L21.17 31m1.82-19.23l-5.17 6.48m6.33-7.97l1.55-1.94c.76-.95 2.28-.71 2.76.44l1.68 4.04m.99 2.39l5.89 14.17c.48 1.16-.42 2.4-1.65 2.24l-10.53-1.14m-7.02-12.23l.67 1.6m.7 1.7l3.61 8.7m-1.63.74l-3.63-8.75m-1.42-3.4l.71 1.7m10.96-8.71l.7 1.68m.99 2.39l1.41 3.4M34 11.54l5.07 12.2m-1.83-10l2.53 6.09m.09-5.41l1.27 3.06" stroke-width="1.546" stroke-linecap="round" stroke-linejoin="round" stroke-miterlimit="10"/></symbol><symbol id="scroll_letter" viewBox="0 0 54.46 41.68" xml:space="preserve" xmlns="http://www.w3.org/2000/svg"><style/><path d="M13.01 17.24l10.5 8.3m6.52-1.25l8.91-7.05M14.56 32.63l7.41-5.87m-8.73-9.71c-.57.34-.94.95-.94 1.66v13.64c0 1.08.87 1.95 1.95 1.95H36.5m-12.96-8.78l1.22-.97c.71-.56 1.72-.56 2.43 0l11.75 9.29c.43-.36.71-.89.71-1.49V18.71c0-.71-.38-1.32-.94-1.66m-18.04-6.14h10.61m4.46 3.69v-3.69h-4.47M16.21 14.6v5.17m19.53-5.17v3.2m-15.07-6.89h-4.46v1.59m13.06-3.24l-2.06-1.7c-.72-.6-1.77-.6-2.49 0l-4.05 3.35m18.04 6.14l-2.96-2.45m-22.51 2.45l2.96-2.45m2.93 1.12h7.81m.01 14.58c0 .54-.44.97-.98.97s-.98-.43-.98-.97c0-.53.44-.97.98-.97.55 0 .98.44.98.97zm0-11.53h-7.82m13.68 0h-3.9" stroke-width="1.516" stroke-linecap="round" stroke-linejoin="round" stroke-miterlimit="10"/></symbol><symbol id="scroll_pero" viewBox="0 0 54.46 41.68" xml:space="preserve" xmlns="http://www.w3.org/2000/svg"><style/><path d="M24.48 13.14l-7.86 4.72-1.46 15.55 17.12-3.03 2.62-7.4M31.49 7.39l8.82 9.56-2.28 2.11c-2.45 2.26-6.3 2.1-8.56-.34l-.61-.66c-2.26-2.45-2.1-6.3.34-8.56l2.29-2.11zm-6.69 13c1.72 0 3.12 1.4 3.12 3.12 0 1.72-1.4 3.12-3.12 3.12-1.72 0-3.12-1.4-3.12-3.12.01-1.72 1.4-3.12 3.12-3.12zM15.4 33l7.21-7.28" stroke-width="1.701" stroke-miterlimit="22.926"/></symbol><symbol id="scroll_person" viewBox="0 0 54.46 41.68" xml:space="preserve" xmlns="http://www.w3.org/2000/svg"><style/><path d="M25.8 20.3c0 2.32-1.87 4.19-4.19 4.19h-.95c-2.31 0-4.19-1.87-4.19-4.19v-5.4c0-2.31 1.87-4.19 4.19-4.19h.95c2.31 0 4.19 1.88 4.19 4.19v5.4zm-6.57 4.29v2.05s-8.55 1.91-8.49 3.77v1.85h10.4m1.91-5.62s8.55 1.91 8.49 3.77v1.85h-10.4m10.5-19.6h10.07M31.64 17.6h10.07m-10.07 4.94h10.07" stroke-width="1.549" stroke-linecap="round" stroke-linejoin="round" stroke-miterlimit="10"/></symbol><symbol id="tw" viewBox="0 0 15.63 12.68" xml:space="preserve" xmlns="http://www.w3.org/2000/svg"><style/><path fill-rule="evenodd" clip-rule="evenodd" stroke-width=".567" stroke-miterlimit="22.926" d="M-1674.49 1967.65V-252.21H466.23v2219.86h-2140.72z"/><path d="M10.63 0c1.24-.02 1.9.43 2.53 1.01.54-.05 1.23-.35 1.64-.55.13-.07.27-.15.4-.22-.23.63-.55 1.13-1.04 1.51-.11.08-.22.2-.35.25.7-.01 1.27-.32 1.81-.49v.01c-.29.45-.67.92-1.09 1.25-.17.13-.33.27-.5.4.01.74-.01 1.44-.15 2.06-.8 3.6-2.92 6.04-6.28 7.09-1.21.38-3.15.53-4.54.19-.69-.17-1.3-.36-1.88-.62a7.1 7.1 0 01-.91-.47c-.08-.07-.18-.13-.27-.18.31.01.68.1 1.02.04.32-.05.62-.04.92-.1.73-.16 1.37-.37 1.92-.69.27-.16.68-.34.87-.57-.36 0-.69-.09-.95-.18-1.04-.37-1.64-1.04-2.04-2.05.32.03 1.22.11 1.44-.06-.4-.03-.78-.25-1.05-.42C1.3 6.69.62 5.81.62 4.47c.11.05.22.1.33.16.21.08.42.12.67.17.11.02.32.08.44.04h-.02c-.16-.18-.42-.31-.59-.51C.92 3.66.42 2.64.74 1.42c.08-.31.21-.58.34-.83.01 0 .01.01.02.01.06.13.2.23.29.34.27.34.61.64.95.91 1.17.92 2.22 1.48 3.92 1.89.43.1.92.18 1.44.18-.15-.42-.1-1.1.01-1.5C8 1.4 8.62.66 9.53.27c.22-.09.46-.16.71-.22.13-.02.26-.03.39-.05z" fill-rule="evenodd" clip-rule="evenodd"/></symbol></svg>