<?xml version="1.0" encoding="utf-8"?>
<!-- Generator: Adobe Illustrator 18.1.1, SVG Export Plug-In . SVG Version: 6.00 Build 0)  -->
<svg version="1.1" id="Слой_1" xmlns="http://www.w3.org/2000/svg" xmlns:xlink="http://www.w3.org/1999/xlink" x="0px" y="0px"
	 viewBox="0 0 87.5 87.5" style="enable-background:new 0 0 87.5 87.5;" xml:space="preserve">
<style type="text/css">
	.st0{fill-rule:evenodd;clip-rule:evenodd;fill:#100F10;stroke:#201600;stroke-width:0.5669;stroke-miterlimit:22.9256;}
	.st1{fill:#E9ECEB;}
	.st2{fill:#E2E2E2;}
	.st3{fill:none;stroke:#E2E2E2;stroke-width:1.4173;stroke-miterlimit:22.9256;}
	.st4{fill-rule:evenodd;clip-rule:evenodd;fill:#FFFFFF;}
	.st5{fill:#FFFFFF;}
	.st6{fill:none;stroke:#FFFEFF;stroke-width:2.8347;stroke-miterlimit:22.9256;}
	.st7{fill:none;stroke:#ECECEC;stroke-width:1.7007;stroke-miterlimit:22.9256;stroke-dasharray:3.4015,5.1022;}
	.st8{fill-rule:evenodd;clip-rule:evenodd;fill:#E61C21;stroke:#FFFEFF;stroke-width:1.9844;stroke-miterlimit:22.9256;}
	.st9{fill:#FFFEFF;}
	.st10{fill-rule:evenodd;clip-rule:evenodd;fill:#E2E2E2;}
	.st11{fill-rule:evenodd;clip-rule:evenodd;fill:none;stroke:#FFFEFF;stroke-width:1.9844;stroke-miterlimit:22.9256;}
	.st12{fill:#F3444E;}
	.st13{fill-rule:evenodd;clip-rule:evenodd;fill:#F3444E;}
	.st14{fill:none;stroke:#F3444E;stroke-width:1.4173;stroke-miterlimit:22.9256;}
	.st15{fill-rule:evenodd;clip-rule:evenodd;fill:#F3444E;stroke:#F3444E;stroke-width:1.4173;stroke-miterlimit:22.9256;}
	.st16{fill-rule:evenodd;clip-rule:evenodd;fill:#F3444E;stroke:#F3444E;stroke-width:0.5669;stroke-miterlimit:22.9256;}
	.st17{fill:#DC7D43;}
	.st18{fill:none;stroke:#201600;stroke-width:0.5669;stroke-miterlimit:22.9256;}
	.st19{fill:none;stroke:#201600;stroke-width:0.216;stroke-miterlimit:22.9256;}
	.st20{fill:none;stroke:#FFFFFF;stroke-width:1.4172;stroke-miterlimit:22.9256;}
	.st21{fill:none;stroke:#E2E2E2;stroke-width:1.4175;stroke-miterlimit:22.9256;}
	.st22{fill-rule:evenodd;clip-rule:evenodd;fill:#E2E2E2;stroke:#E2E2E2;stroke-width:1.4173;stroke-miterlimit:22.9256;}
	.st23{fill:none;stroke:#E2E2E2;stroke-width:1.4172;stroke-miterlimit:22.9256;}
	.st24{fill:none;stroke:#E2E2E2;stroke-width:1.4176;stroke-miterlimit:22.9256;}
	.st25{fill:none;stroke:#E2E2E2;stroke-width:1.4173;stroke-linecap:round;stroke-linejoin:round;stroke-miterlimit:10;}
	.st26{fill:none;stroke:#E2E2E2;stroke-width:1.3421;stroke-linecap:round;stroke-linejoin:round;stroke-miterlimit:10;}
	.st27{fill:none;stroke:#D24A43;stroke-width:1.4173;stroke-linejoin:round;stroke-miterlimit:10;}
	.st28{fill:none;stroke:#D24A43;stroke-width:1.4173;stroke-linejoin:round;stroke-miterlimit:22.9256;}
	.st29{fill:none;stroke:#D24A43;stroke-width:1.4173;stroke-linecap:round;stroke-linejoin:round;stroke-miterlimit:10;}
	.st30{fill:none;stroke:#D24A43;stroke-width:1.4173;stroke-miterlimit:22.9256;}
	.st31{fill-rule:evenodd;clip-rule:evenodd;fill:#E61C21;}
	.st32{fill:none;stroke:#FFFFFF;stroke-width:1.5487;stroke-linecap:round;stroke-linejoin:round;stroke-miterlimit:10;}
	.st33{fill:none;stroke:#FFFFFF;stroke-width:1.4017;stroke-linecap:round;stroke-linejoin:round;stroke-miterlimit:10;}
	.st34{fill:none;stroke:#FFFFFF;stroke-width:1.752;stroke-linecap:round;stroke-linejoin:round;stroke-miterlimit:10;}
	.st35{fill:none;stroke:#FFFFFF;stroke-width:1.7008;stroke-miterlimit:22.9256;}
	.st36{fill:none;stroke:#FFFFFF;stroke-width:1.5459;stroke-linecap:round;stroke-linejoin:round;stroke-miterlimit:10;}
	.st37{fill:none;stroke:#FFFFFF;stroke-width:1.4173;stroke-linecap:round;stroke-linejoin:round;stroke-miterlimit:10;}
	.st38{fill:none;stroke:#FFFFFF;stroke-width:1.5158;stroke-linecap:round;stroke-linejoin:round;stroke-miterlimit:10;}
	.st39{fill:none;stroke:#B6B8BD;stroke-width:1.4173;stroke-miterlimit:22.9256;}
	.st40{fill:none;stroke:#B6B8BD;stroke-width:1.4174;stroke-linecap:round;stroke-linejoin:round;stroke-miterlimit:10;}
	.st41{fill:none;stroke:#B6B8BD;stroke-width:1.5177;stroke-linecap:round;stroke-linejoin:round;stroke-miterlimit:10;}
	.st42{fill:#B6B8BD;}
	.st43{fill-rule:evenodd;clip-rule:evenodd;fill:none;stroke:#FFFFFF;stroke-width:0.7087;stroke-miterlimit:10;}
	.st44{fill-rule:evenodd;clip-rule:evenodd;fill:none;stroke:#FFFFFF;stroke-width:0.8504;stroke-miterlimit:10;}
	.st45{fill:none;stroke:#FFFFFF;stroke-width:0.9921;stroke-miterlimit:10;}
	.st46{fill-rule:evenodd;clip-rule:evenodd;fill:#FFFEFF;}
	.st47{fill:#E62A13;}
	.st48{fill:none;stroke:#E62A13;stroke-width:1.486;stroke-linecap:round;stroke-linejoin:round;stroke-miterlimit:10;}
	.st49{fill:none;stroke:#E62A13;stroke-width:1.4121;stroke-linecap:round;stroke-linejoin:round;stroke-miterlimit:10;}
	.st50{fill:none;stroke:#E62A13;stroke-width:1.4173;stroke-miterlimit:22.9256;}
	.st51{fill-rule:evenodd;clip-rule:evenodd;fill:#E62A13;}
	.st52{fill:none;stroke:#FFFFFF;stroke-width:1.4173;stroke-miterlimit:22.9256;}
	.st53{fill:none;stroke:#F1444C;stroke-width:1.4173;stroke-miterlimit:22.9256;}
	.st54{fill-rule:evenodd;clip-rule:evenodd;fill:#FF0000;}
	.st55{fill-rule:evenodd;clip-rule:evenodd;fill:#5C768B;}
	.st56{fill:#D24A43;}
	.st57{fill:none;stroke:#D24A43;stroke-width:2.8347;stroke-miterlimit:22.9256;}
	.st58{fill-rule:evenodd;clip-rule:evenodd;fill:#D24A43;}
	.st59{fill-rule:evenodd;clip-rule:evenodd;fill:#F3444E;stroke:#F3444E;stroke-width:0.216;stroke-miterlimit:22.9256;}
	.st60{fill:none;stroke:#F3444E;stroke-width:2.8347;stroke-miterlimit:22.9256;}
	.st61{fill:none;stroke:#F3444E;stroke-width:1.8249;stroke-linecap:round;stroke-linejoin:round;stroke-miterlimit:10;}
	.st62{fill:none;stroke:#F3444E;stroke-width:1.4174;stroke-linecap:round;stroke-linejoin:round;stroke-miterlimit:10;}
	.st63{fill:#FFFEFF;stroke:#FFFFFF;stroke-width:0.5669;stroke-miterlimit:10;}
	.st64{fill:none;stroke:#FFFFFF;stroke-width:0.7087;stroke-miterlimit:10;}
	.st65{fill-rule:evenodd;clip-rule:evenodd;fill:#E8444C;}
	.st66{fill:none;stroke:#FFFFFF;stroke-width:3.5774;stroke-linecap:round;stroke-linejoin:round;stroke-miterlimit:10;}
	.st67{fill:none;stroke:#FFFFFF;stroke-width:2.647;stroke-linecap:round;stroke-linejoin:round;stroke-miterlimit:10;}
	.st68{fill:none;stroke:#FFFFFF;stroke-width:2.8347;stroke-miterlimit:22.9256;}
	.st69{fill:none;stroke:#FFFFFF;stroke-width:2.126;stroke-miterlimit:22.9256;}
	.st70{fill:none;stroke:#FFFFFF;stroke-width:3.8998;stroke-linecap:round;stroke-linejoin:round;stroke-miterlimit:10;}
	.st71{fill:none;stroke:#C6C6C6;stroke-width:1.0001;stroke-miterlimit:22.9256;}
	.st72{fill:#E61C21;}
	.st73{fill-rule:evenodd;clip-rule:evenodd;fill:#E41C22;}
</style>
<polygon class="st0" points="-1364.4,768.7 -1364.4,-1451.2 776.3,-1451.2 776.3,768.7 -1364.4,768.7 "/>
<g>
	<path class="st71" d="M43.3,86.8L0.7,44.3c-0.3-0.3-0.3-0.7,0-1L43.3,0.7c0.3-0.3,0.7-0.3,1,0l42.6,42.6c0.3,0.3,0.3,0.7,0,1
		L44.3,86.8C44,87.1,43.5,87.1,43.3,86.8L43.3,86.8z"/>
	<path class="st72" d="M42.4,33.6c-0.7,0.3-1.3,0.7-1.7,1.3c-0.7,0.7-1.1,1.7-1.2,2.8c-0.2,1-1.6,0.7-1.5-0.2
		c0.2-1.5,0.7-2.7,1.6-3.6c0.6-0.7,1.4-1.2,2.3-1.6C43,31.8,43.8,32.9,42.4,33.6L42.4,33.6z M46.5,47.9c1.9-3.2,4.9-6.4,5.2-10.2
		c0.1-1.9-0.3-3.8-1.5-5.3c-1.1-1.4-2.9-2.5-5.6-2.7c-0.4,0-0.8,0-1.3,0c-0.4,0-0.8,0-1.3,0c-2.7,0.2-4.5,1.3-5.6,2.7
		c-1.2,1.5-1.6,3.4-1.5,5.3c0.3,3.8,3.3,7,5.2,10.2c0.6,1-0.5,1.7-1.3,0.8c-2.1-3.5-5.1-6.6-5.4-10.8c-0.2-2.2,0.4-4.5,1.8-6.3
		c1.4-1.7,3.5-3,6.7-3.2c0.5,0,0.9,0,1.4,0c0.5,0,0.9,0,1.4,0c3.1,0.2,5.3,1.5,6.7,3.2c1.4,1.8,2,4.1,1.8,6.3
		c-0.3,4.2-3.3,7.4-5.4,10.8C47.1,49.5,45.9,48.6,46.5,47.9L46.5,47.9z M39.9,51l6.3-1.3c0.5-0.1,1,0.2,1.1,0.7l0,0
		c0.1,0.5-0.2,1-0.7,1.1l-6.3,1.3c-0.5,0.1-1-0.2-1.1-0.7l0,0C39,51.6,39.3,51.1,39.9,51L39.9,51z M40.2,54.1l6.3-1.3
		c0.5-0.1,1,0.2,1.1,0.7l0,0c0.1,0.5-0.2,1-0.7,1.1L40.6,56c-0.5,0.1-1-0.2-1.1-0.7l0,0C39.4,54.7,39.7,54.3,40.2,54.1L40.2,54.1z
		 M46.6,57.5c0,0.8-0.3,1.6-0.9,2.1h0c-0.5,0.5-1.3,0.9-2.1,0.9c-0.8,0-1.6-0.3-2.1-0.9c-0.5-0.5-0.9-1.3-0.9-2.1
		c0-0.8,1.5-0.9,1.5,0c0,0.4,0.2,0.8,0.4,1c0.3,0.3,0.6,0.4,1,0.4c0.4,0,0.8-0.2,1-0.4l0,0c0.3-0.3,0.4-0.6,0.4-1
		C45.1,56.5,46.7,56.5,46.6,57.5L46.6,57.5z"/>
</g>
</svg>
