<?xml version="1.0" encoding="utf-8"?>
<!-- Generator: Adobe Illustrator 18.1.1, SVG Export Plug-In . SVG Version: 6.00 Build 0)  -->
<svg version="1.1" id="Слой_1" xmlns="http://www.w3.org/2000/svg" xmlns:xlink="http://www.w3.org/1999/xlink" x="0px" y="0px"
	 viewBox="0 0 87.5 87.5" style="enable-background:new 0 0 87.5 87.5;" xml:space="preserve">
<style type="text/css">
	.st0{fill-rule:evenodd;clip-rule:evenodd;fill:#100F10;stroke:#201600;stroke-width:0.5669;stroke-miterlimit:22.9256;}
	.st1{fill:#E9ECEB;}
	.st2{fill:#E2E2E2;}
	.st3{fill:none;stroke:#E2E2E2;stroke-width:1.4173;stroke-miterlimit:22.9256;}
	.st4{fill-rule:evenodd;clip-rule:evenodd;fill:#FFFFFF;}
	.st5{fill:#FFFFFF;}
	.st6{fill:none;stroke:#FFFEFF;stroke-width:2.8347;stroke-miterlimit:22.9256;}
	.st7{fill:none;stroke:#ECECEC;stroke-width:1.7007;stroke-miterlimit:22.9256;stroke-dasharray:3.4015,5.1022;}
	.st8{fill-rule:evenodd;clip-rule:evenodd;fill:#E61C21;stroke:#FFFEFF;stroke-width:1.9844;stroke-miterlimit:22.9256;}
	.st9{fill:#FFFEFF;}
	.st10{fill-rule:evenodd;clip-rule:evenodd;fill:#E2E2E2;}
	.st11{fill-rule:evenodd;clip-rule:evenodd;fill:none;stroke:#FFFEFF;stroke-width:1.9844;stroke-miterlimit:22.9256;}
	.st12{fill:#F3444E;}
	.st13{fill-rule:evenodd;clip-rule:evenodd;fill:#F3444E;}
	.st14{fill:none;stroke:#F3444E;stroke-width:1.4173;stroke-miterlimit:22.9256;}
	.st15{fill-rule:evenodd;clip-rule:evenodd;fill:#F3444E;stroke:#F3444E;stroke-width:1.4173;stroke-miterlimit:22.9256;}
	.st16{fill-rule:evenodd;clip-rule:evenodd;fill:#F3444E;stroke:#F3444E;stroke-width:0.5669;stroke-miterlimit:22.9256;}
	.st17{fill:#DC7D43;}
	.st18{fill:none;stroke:#201600;stroke-width:0.5669;stroke-miterlimit:22.9256;}
	.st19{fill:none;stroke:#201600;stroke-width:0.216;stroke-miterlimit:22.9256;}
	.st20{fill:none;stroke:#FFFFFF;stroke-width:1.4172;stroke-miterlimit:22.9256;}
	.st21{fill:none;stroke:#E2E2E2;stroke-width:1.4175;stroke-miterlimit:22.9256;}
	.st22{fill-rule:evenodd;clip-rule:evenodd;fill:#E2E2E2;stroke:#E2E2E2;stroke-width:1.4173;stroke-miterlimit:22.9256;}
	.st23{fill:none;stroke:#E2E2E2;stroke-width:1.4172;stroke-miterlimit:22.9256;}
	.st24{fill:none;stroke:#E2E2E2;stroke-width:1.4176;stroke-miterlimit:22.9256;}
	.st25{fill:none;stroke:#E2E2E2;stroke-width:1.4173;stroke-linecap:round;stroke-linejoin:round;stroke-miterlimit:10;}
	.st26{fill:none;stroke:#E2E2E2;stroke-width:1.3421;stroke-linecap:round;stroke-linejoin:round;stroke-miterlimit:10;}
	.st27{fill:none;stroke:#D24A43;stroke-width:1.4173;stroke-linejoin:round;stroke-miterlimit:10;}
	.st28{fill:none;stroke:#D24A43;stroke-width:1.4173;stroke-linejoin:round;stroke-miterlimit:22.9256;}
	.st29{fill:none;stroke:#D24A43;stroke-width:1.4173;stroke-linecap:round;stroke-linejoin:round;stroke-miterlimit:10;}
	.st30{fill:none;stroke:#D24A43;stroke-width:1.4173;stroke-miterlimit:22.9256;}
	.st31{fill-rule:evenodd;clip-rule:evenodd;fill:#E61C21;}
	.st32{fill:none;stroke:#FFFFFF;stroke-width:1.5487;stroke-linecap:round;stroke-linejoin:round;stroke-miterlimit:10;}
	.st33{fill:none;stroke:#FFFFFF;stroke-width:1.4017;stroke-linecap:round;stroke-linejoin:round;stroke-miterlimit:10;}
	.st34{fill:none;stroke:#FFFFFF;stroke-width:1.752;stroke-linecap:round;stroke-linejoin:round;stroke-miterlimit:10;}
	.st35{fill:none;stroke:#FFFFFF;stroke-width:1.7008;stroke-miterlimit:22.9256;}
	.st36{fill:none;stroke:#FFFFFF;stroke-width:1.5459;stroke-linecap:round;stroke-linejoin:round;stroke-miterlimit:10;}
	.st37{fill:none;stroke:#FFFFFF;stroke-width:1.4173;stroke-linecap:round;stroke-linejoin:round;stroke-miterlimit:10;}
	.st38{fill:none;stroke:#FFFFFF;stroke-width:1.5158;stroke-linecap:round;stroke-linejoin:round;stroke-miterlimit:10;}
	.st39{fill:none;stroke:#B6B8BD;stroke-width:1.4173;stroke-miterlimit:22.9256;}
	.st40{fill:none;stroke:#B6B8BD;stroke-width:1.4174;stroke-linecap:round;stroke-linejoin:round;stroke-miterlimit:10;}
	.st41{fill:none;stroke:#B6B8BD;stroke-width:1.5177;stroke-linecap:round;stroke-linejoin:round;stroke-miterlimit:10;}
	.st42{fill:#B6B8BD;}
	.st43{fill-rule:evenodd;clip-rule:evenodd;fill:none;stroke:#FFFFFF;stroke-width:0.7087;stroke-miterlimit:10;}
	.st44{fill-rule:evenodd;clip-rule:evenodd;fill:none;stroke:#FFFFFF;stroke-width:0.8504;stroke-miterlimit:10;}
	.st45{fill:none;stroke:#FFFFFF;stroke-width:0.9921;stroke-miterlimit:10;}
	.st46{fill-rule:evenodd;clip-rule:evenodd;fill:#FFFEFF;}
	.st47{fill:#E62A13;}
	.st48{fill:none;stroke:#E62A13;stroke-width:1.486;stroke-linecap:round;stroke-linejoin:round;stroke-miterlimit:10;}
	.st49{fill:none;stroke:#E62A13;stroke-width:1.4121;stroke-linecap:round;stroke-linejoin:round;stroke-miterlimit:10;}
	.st50{fill:none;stroke:#E62A13;stroke-width:1.4173;stroke-miterlimit:22.9256;}
	.st51{fill-rule:evenodd;clip-rule:evenodd;fill:#E62A13;}
	.st52{fill:none;stroke:#FFFFFF;stroke-width:1.4173;stroke-miterlimit:22.9256;}
	.st53{fill:none;stroke:#F1444C;stroke-width:1.4173;stroke-miterlimit:22.9256;}
	.st54{fill-rule:evenodd;clip-rule:evenodd;fill:#FF0000;}
	.st55{fill-rule:evenodd;clip-rule:evenodd;fill:#5C768B;}
	.st56{fill:#D24A43;}
	.st57{fill:none;stroke:#D24A43;stroke-width:2.8347;stroke-miterlimit:22.9256;}
	.st58{fill-rule:evenodd;clip-rule:evenodd;fill:#D24A43;}
	.st59{fill-rule:evenodd;clip-rule:evenodd;fill:#F3444E;stroke:#F3444E;stroke-width:0.216;stroke-miterlimit:22.9256;}
	.st60{fill:none;stroke:#F3444E;stroke-width:2.8347;stroke-miterlimit:22.9256;}
	.st61{fill:none;stroke:#F3444E;stroke-width:1.8249;stroke-linecap:round;stroke-linejoin:round;stroke-miterlimit:10;}
	.st62{fill:none;stroke:#F3444E;stroke-width:1.4174;stroke-linecap:round;stroke-linejoin:round;stroke-miterlimit:10;}
	.st63{fill:#FFFEFF;stroke:#FFFFFF;stroke-width:0.5669;stroke-miterlimit:10;}
	.st64{fill:none;stroke:#FFFFFF;stroke-width:0.7087;stroke-miterlimit:10;}
	.st65{fill-rule:evenodd;clip-rule:evenodd;fill:#E8444C;}
	.st66{fill:none;stroke:#FFFFFF;stroke-width:3.5774;stroke-linecap:round;stroke-linejoin:round;stroke-miterlimit:10;}
	.st67{fill:none;stroke:#FFFFFF;stroke-width:2.647;stroke-linecap:round;stroke-linejoin:round;stroke-miterlimit:10;}
	.st68{fill:none;stroke:#FFFFFF;stroke-width:2.8347;stroke-miterlimit:22.9256;}
	.st69{fill:none;stroke:#FFFFFF;stroke-width:2.126;stroke-miterlimit:22.9256;}
	.st70{fill:none;stroke:#FFFFFF;stroke-width:3.8998;stroke-linecap:round;stroke-linejoin:round;stroke-miterlimit:10;}
	.st71{fill:none;stroke:#C6C6C6;stroke-width:1.0001;stroke-miterlimit:22.9256;}
	.st72{fill:#E61C21;}
	.st73{fill-rule:evenodd;clip-rule:evenodd;fill:#E41C22;}
</style>
<polygon class="st0" points="-1585.5,768.7 -1585.5,-1451.2 555.2,-1451.2 555.2,768.7 -1585.5,768.7 "/>
<g>
	<path class="st72" d="M41.5,28h3.8c0.5,0,0.9,0.1,1.3,0.3c0.4,0.2,0.6,0.6,0.8,1.1l1.1,3l0,0l0.1,0.3l0,0c0.1,0.2,0.1,0.2,0.1,0.3
		l0,0c0,0,0.1,0.1,0.3,0.3v0l0,0l1.5,1.2c0.4,0.3,0.5,0.3,0.9,0.2c0.2,0,0.4-0.1,0.6-0.2l0,0l2.4-0.6v0c0.6-0.2,1.1-0.2,1.6,0
		c0.5,0.2,0.9,0.6,1.2,1.2l1,2.2c0.7,1.6,0.3,2-0.7,2.9l0,0l-0.2,0.2l0,0l-1.7,1.5c-0.2,0.2-0.4,0.4-0.4,0.5
		c-0.1,0.1-0.1,0.3-0.1,0.6v1.7c0,0.4,0,0.6,0.1,0.8c0.1,0.2,0.3,0.4,0.6,0.7l0.8,0.7c0.4,0.4,0.8,0.8,1.3,1.3
		c0.6,0.5,0.7,1.1,0.6,1.6c-0.1,0.5-0.4,0.9-0.7,1.4c-0.3,0.3-0.5,0.6-0.7,0.9c-0.2,0.3-0.5,0.6-0.8,1c-0.3,0.5-0.8,0.8-1.3,1
		c-0.5,0.2-1.1,0.2-1.6-0.1c-0.3-0.2-0.6-0.3-1-0.4c-0.2-0.1-0.4-0.2-0.6-0.2c-0.1,0-0.4-0.1-0.6-0.2h0c-0.2-0.1-0.4-0.2-0.4-0.2
		c0,0-0.2,0.1-0.4,0.2l-0.3,0.2l0,0l-0.5,0.3c-0.2,0.1-0.4,0.2-1,0.6c-0.3,0.2-0.4,0.3-0.5,0.5v0c-0.1,0.2-0.2,0.5-0.2,0.8
		c-0.1,0.6-0.1,1.2-0.2,1.7c0,0.3-0.1,0.7-0.1,0.9l0,0.2h0c-0.2,1.7-0.2,1.9-1.9,1.9h-2.9c-0.3,0-0.4,0-0.5,0c-0.6,0-0.9,0-1.2-0.3
		c-0.3-0.3-0.4-0.5-0.5-1.1c0-0.2-0.1-0.4-0.1-0.5c-0.1-0.5-0.2-1-0.2-1.4c-0.1-0.4-0.1-0.9-0.2-1.3c-0.1-0.5-0.2-0.7-0.3-0.9
		c-0.1-0.2-0.2-0.3-0.4-0.4c-0.3-0.2-0.5-0.4-0.7-0.6c-0.1-0.1-0.2-0.1-0.4-0.3c-0.5-0.4-0.8-0.6-1-0.6c-0.2,0-0.5,0.1-1,0.3l0,0
		l-1.5,0.7c-0.8,0.4-1.4,0.5-2,0.4C32,54,31.5,53.6,31,52.9l0,0l-1.2-1.8v0c-1.5-2.2-0.6-3,0.7-4.1c0.3-0.2,0.6-0.5,0.9-0.8
		c0.4-0.5,0.4-0.5,0.4-0.9c0-0.2,0-0.4,0-0.7v-1.5c0-0.5,0-0.8-0.1-1.1c-0.1-0.2-0.3-0.5-0.6-0.8l-1.4-1.4c-0.6-0.6-1-1.1-1-1.7
		c0-0.6,0.2-1.1,0.7-1.8c0.1-0.2,0.3-0.4,0.4-0.6v0c0.1-0.2,0.2-0.3,0.5-0.8l0,0c0.6-0.8,1.2-1.3,1.8-1.4c0.7-0.1,1.3,0.1,2,0.5
		c0.2,0.2,0.3,0.2,0.3,0.2l0,0c0.2,0.2,0.4,0.3,0.7,0.5h0l0.2,0.1c0.2,0.1,0.1,0.2,0.2,0.2c0.1,0,0,0,0.1-0.1
		c0.1-0.1,0.3-0.2,0.5-0.4l3.6-2.7l0.9,1.2l-3.6,2.7c-0.2,0.1-0.3,0.2-0.4,0.3c-0.3,0.3-0.5,0.4-0.8,0.4c-0.4,0.1-0.6-0.1-1.2-0.4
		L34.6,36l0,0c-0.4-0.2-0.6-0.4-0.8-0.5l0,0l-0.3-0.2c-0.4-0.2-0.7-0.4-0.9-0.3c-0.3,0.1-0.6,0.3-0.9,0.8v0
		c-0.3,0.4-0.4,0.6-0.6,0.8l0,0c-0.1,0.1-0.1,0.2-0.4,0.6c-0.3,0.5-0.5,0.7-0.5,0.8c0,0.1,0.2,0.4,0.6,0.8l1.4,1.4
		c0.5,0.5,0.8,0.9,0.9,1.4c0.2,0.5,0.2,0.9,0.2,1.6v1.5c0,0.3,0,0.5,0,0.6c0,0.9,0.1,1.1-0.8,2c-0.3,0.4-0.7,0.7-1,0.9
		c-0.7,0.6-1.2,1-0.4,2.2l0,0l1.2,1.8v0c0.2,0.4,0.4,0.6,0.6,0.6c0.2,0,0.6-0.1,1.1-0.3l1.5-0.7v0c0.8-0.4,1.3-0.5,1.8-0.5
		c0.6,0.1,1,0.4,1.7,0.9c0.1,0.1,0.3,0.2,0.4,0.3c0.2,0.2,0.4,0.3,0.7,0.6c0.4,0.3,0.6,0.5,0.9,0.9c0.2,0.3,0.3,0.8,0.4,1.4
		c0.1,0.5,0.2,1,0.2,1.4c0.1,0.4,0.1,0.9,0.2,1.3c0.1,0.3,0.1,0.4,0.1,0.6c0,0.2-0.2,0.1-0.1,0.2c0.1,0.1,0-0.1,0.2-0.1
		c0.2,0,0.4,0,0.5,0h2.9c0.4,0,0.4-0.1,0.5-0.6v0l0-0.2c0-0.4,0.1-0.6,0.1-0.9c0.1-0.6,0.1-1.1,0.2-1.8c0.1-0.5,0.2-1,0.4-1.4l0,0
		c0.2-0.4,0.6-0.8,1.1-1.1l1-0.6l0.5-0.3v0l0.3-0.2c0.5-0.3,0.7-0.4,1.1-0.4c0.3,0,0.6,0.1,1,0.3l0,0c0.1,0,0.2,0.1,0.5,0.2
		c0.2,0.1,0.4,0.1,0.5,0.2c0.4,0.1,0.8,0.3,1.2,0.5c0.1,0.1,0.2,0,0.4,0c0.2-0.1,0.4-0.2,0.5-0.4c0.3-0.4,0.6-0.7,0.8-1.1
		c0.2-0.2,0.4-0.5,0.6-0.8c0.3-0.3,0.4-0.6,0.5-0.8c0-0.1,0-0.2-0.2-0.3c-0.5-0.5-0.9-0.9-1.3-1.2l-0.8-0.7
		c-0.4-0.4-0.7-0.7-0.9-1.1c-0.2-0.4-0.3-0.8-0.3-1.5v-1.7c0-0.5,0.1-0.9,0.2-1.2c0.2-0.3,0.4-0.6,0.8-1l1.7-1.5h0l0.2-0.2l0,0
		c0.5-0.4,0.7-0.6,0.4-1.2l-1-2.2c-0.1-0.2-0.2-0.3-0.4-0.4c-0.2-0.1-0.4,0-0.8,0l0,0l-2.4,0.6v0C52.2,36,52,36,51.9,36.1
		c-0.9,0.3-1.2,0.4-2.2-0.5l-1.5-1.2l0,0l0,0c-0.3-0.3-0.5-0.4-0.6-0.6v0c-0.1-0.2-0.2-0.3-0.3-0.6l0,0L47,32.9l0,0l-1.1-3
		c-0.1-0.2-0.1-0.3-0.2-0.4c-0.1-0.1-0.3-0.1-0.5-0.1h-3.8V28L41.5,28z M43.8,38.8c1.3,0,2.5,0.5,3.3,1.4c0.9,0.9,1.4,2,1.4,3.3
		c0,1.3-0.5,2.5-1.4,3.3l0,0c-0.9,0.9-2,1.4-3.3,1.4c-1.3,0-2.5-0.5-3.3-1.4l0,0l0,0c-0.9-0.9-1.4-2-1.4-3.3c0-1.3,0.5-2.5,1.4-3.3
		l0,0C41.3,39.3,42.5,38.8,43.8,38.8L43.8,38.8z M46,41.2c-0.6-0.6-1.4-0.9-2.3-0.9c-0.9,0-1.7,0.4-2.3,0.9v0
		c-0.6,0.6-0.9,1.4-0.9,2.3c0,0.9,0.4,1.7,0.9,2.3l0,0c0.6,0.6,1.4,0.9,2.3,0.9c0.9,0,1.7-0.4,2.3-0.9h0c0.6-0.6,0.9-1.4,0.9-2.3
		C47,42.6,46.6,41.8,46,41.2L46,41.2z"/>
	<path class="st71" d="M43.3,86.8L0.7,44.3c-0.3-0.3-0.3-0.7,0-1L43.3,0.7c0.3-0.3,0.7-0.3,1,0l42.6,42.6c0.3,0.3,0.3,0.7,0,1
		L44.3,86.8C44,87.1,43.5,87.1,43.3,86.8L43.3,86.8z"/>
</g>
</svg>
