<?xml version="1.0" encoding="utf-8"?>
<!-- Generator: Adobe Illustrator 18.1.1, SVG Export Plug-In . SVG Version: 6.00 Build 0)  -->
<svg version="1.1" id="Слой_1" xmlns="http://www.w3.org/2000/svg" xmlns:xlink="http://www.w3.org/1999/xlink" x="0px" y="0px"
	 viewBox="0 0 94.2 94.2" style="enable-background:new 0 0 94.2 94.2;" xml:space="preserve">
<style type="text/css">
	.st0{fill-rule:evenodd;clip-rule:evenodd;fill:#100F10;stroke:#201600;stroke-width:0.5669;stroke-miterlimit:22.9256;}
	.st1{fill:#FFFFFF;}
	.st2{fill:#E9ECEB;}
	.st3{fill:#E2E2E2;}
	.st4{fill:none;stroke:#E2E2E2;stroke-width:1.4173;stroke-miterlimit:22.9256;}
	.st5{fill-rule:evenodd;clip-rule:evenodd;fill:#FFFFFF;}
	.st6{fill:none;stroke:#FFFEFF;stroke-width:2.8347;stroke-miterlimit:22.9256;}
	.st7{fill:none;stroke:#ECECEC;stroke-width:1.7007;stroke-miterlimit:22.9256;stroke-dasharray:3.4015,5.1022;}
	.st8{fill-rule:evenodd;clip-rule:evenodd;fill:#E61C21;stroke:#FFFEFF;stroke-width:1.9844;stroke-miterlimit:22.9256;}
	.st9{fill:#FFFEFF;}
	.st10{fill-rule:evenodd;clip-rule:evenodd;fill:#E2E2E2;}
	.st11{fill-rule:evenodd;clip-rule:evenodd;fill:none;stroke:#FFFEFF;stroke-width:1.9844;stroke-miterlimit:22.9256;}
	.st12{fill:#F3444E;}
	.st13{fill-rule:evenodd;clip-rule:evenodd;fill:#F3444E;}
	.st14{fill:none;stroke:#F3444E;stroke-width:1.4173;stroke-miterlimit:22.9256;}
	.st15{fill-rule:evenodd;clip-rule:evenodd;fill:#F3444E;stroke:#F3444E;stroke-width:1.4173;stroke-miterlimit:22.9256;}
	.st16{fill-rule:evenodd;clip-rule:evenodd;fill:#F3444E;stroke:#F3444E;stroke-width:0.5669;stroke-miterlimit:22.9256;}
	.st17{fill:#DC7D43;}
	.st18{fill:none;stroke:#201600;stroke-width:0.5669;stroke-miterlimit:22.9256;}
	.st19{fill:none;stroke:#201600;stroke-width:0.216;stroke-miterlimit:22.9256;}
	.st20{fill:none;stroke:#FFFFFF;stroke-width:1.4172;stroke-miterlimit:22.9256;}
	.st21{fill:none;stroke:#E2E2E2;stroke-width:1.4175;stroke-miterlimit:22.9256;}
	.st22{fill-rule:evenodd;clip-rule:evenodd;fill:#E2E2E2;stroke:#E2E2E2;stroke-width:1.4173;stroke-miterlimit:22.9256;}
	.st23{fill:none;stroke:#E2E2E2;stroke-width:1.4172;stroke-miterlimit:22.9256;}
	.st24{fill:none;stroke:#E2E2E2;stroke-width:1.4176;stroke-miterlimit:22.9256;}
	.st25{fill:none;stroke:#E2E2E2;stroke-width:1.4173;stroke-linecap:round;stroke-linejoin:round;stroke-miterlimit:10;}
	.st26{fill:none;stroke:#E2E2E2;stroke-width:1.3421;stroke-linecap:round;stroke-linejoin:round;stroke-miterlimit:10;}
	.st27{fill:none;stroke:#D24A43;stroke-width:1.4173;stroke-linejoin:round;stroke-miterlimit:10;}
	.st28{fill:none;stroke:#D24A43;stroke-width:1.4173;stroke-linejoin:round;stroke-miterlimit:22.9256;}
	.st29{fill:none;stroke:#D24A43;stroke-width:1.4173;stroke-linecap:round;stroke-linejoin:round;stroke-miterlimit:10;}
	.st30{fill:none;stroke:#D24A43;stroke-width:1.4173;stroke-miterlimit:22.9256;}
	.st31{fill-rule:evenodd;clip-rule:evenodd;fill:#E61C21;}
	.st32{fill:none;stroke:#FFFFFF;stroke-width:1.5487;stroke-linecap:round;stroke-linejoin:round;stroke-miterlimit:10;}
	.st33{fill:none;stroke:#FFFFFF;stroke-width:1.4017;stroke-linecap:round;stroke-linejoin:round;stroke-miterlimit:10;}
	.st34{fill:none;stroke:#FFFFFF;stroke-width:1.752;stroke-linecap:round;stroke-linejoin:round;stroke-miterlimit:10;}
	.st35{fill:none;stroke:#FFFFFF;stroke-width:1.7008;stroke-miterlimit:22.9256;}
	.st36{fill:none;stroke:#FFFFFF;stroke-width:1.5459;stroke-linecap:round;stroke-linejoin:round;stroke-miterlimit:10;}
	.st37{fill:none;stroke:#FFFFFF;stroke-width:1.4173;stroke-linecap:round;stroke-linejoin:round;stroke-miterlimit:10;}
	.st38{fill:none;stroke:#FFFFFF;stroke-width:1.5158;stroke-linecap:round;stroke-linejoin:round;stroke-miterlimit:10;}
	.st39{fill:none;stroke:#B6B8BD;stroke-width:1.4173;stroke-miterlimit:22.9256;}
	.st40{fill:none;stroke:#B6B8BD;stroke-width:1.4174;stroke-linecap:round;stroke-linejoin:round;stroke-miterlimit:10;}
	.st41{fill:none;stroke:#B6B8BD;stroke-width:1.5177;stroke-linecap:round;stroke-linejoin:round;stroke-miterlimit:10;}
	.st42{fill-rule:evenodd;clip-rule:evenodd;fill:none;stroke:#FFFFFF;stroke-width:0.7087;stroke-miterlimit:10;}
	.st43{fill-rule:evenodd;clip-rule:evenodd;fill:none;stroke:#FFFFFF;stroke-width:0.8504;stroke-miterlimit:10;}
	.st44{fill:none;stroke:#FFFFFF;stroke-width:0.9921;stroke-miterlimit:10;}
	.st45{fill-rule:evenodd;clip-rule:evenodd;fill:#FFFEFF;}
	.st46{fill:#E62A13;}
	.st47{fill:none;stroke:#E62A13;stroke-width:1.486;stroke-linecap:round;stroke-linejoin:round;stroke-miterlimit:10;}
	.st48{fill:none;stroke:#E62A13;stroke-width:1.4121;stroke-linecap:round;stroke-linejoin:round;stroke-miterlimit:10;}
	.st49{fill:none;stroke:#E62A13;stroke-width:1.4173;stroke-miterlimit:22.9256;}
	.st50{fill-rule:evenodd;clip-rule:evenodd;fill:#E62A13;}
	.st51{fill:none;stroke:#E61C21;stroke-width:1.4173;stroke-linecap:round;stroke-linejoin:round;stroke-miterlimit:10;}
	.st52{fill:none;stroke:#E61C21;stroke-width:1.4173;stroke-miterlimit:22.9256;}
	.st53{fill:none;stroke:#FFFFFF;stroke-width:1.4173;stroke-miterlimit:22.9256;}
	.st54{fill:none;stroke:#F1444C;stroke-width:1.4173;stroke-miterlimit:22.9256;}
	.st55{fill-rule:evenodd;clip-rule:evenodd;fill:#FF0000;}
	.st56{fill-rule:evenodd;clip-rule:evenodd;fill:#5C768B;}
	.st57{fill:#D24A43;}
	.st58{fill:none;stroke:#D24A43;stroke-width:2.8347;stroke-miterlimit:22.9256;}
	.st59{fill-rule:evenodd;clip-rule:evenodd;fill:#D24A43;}
	.st60{fill-rule:evenodd;clip-rule:evenodd;fill:#F3444E;stroke:#F3444E;stroke-width:0.216;stroke-miterlimit:22.9256;}
	.st61{fill:none;stroke:#F3444E;stroke-width:2.8347;stroke-miterlimit:22.9256;}
	.st62{fill:none;stroke:#F3444E;stroke-width:1.8249;stroke-linecap:round;stroke-linejoin:round;stroke-miterlimit:10;}
	.st63{fill:none;stroke:#F3444E;stroke-width:1.4174;stroke-linecap:round;stroke-linejoin:round;stroke-miterlimit:10;}
	.st64{fill:#FFFEFF;stroke:#FFFFFF;stroke-width:0.5669;stroke-miterlimit:10;}
	.st65{fill:none;stroke:#FFFFFF;stroke-width:0.7087;stroke-miterlimit:10;}
	.st66{fill-rule:evenodd;clip-rule:evenodd;fill:#E8444C;}
	.st67{fill:none;stroke:#FFFFFF;stroke-width:3.5774;stroke-linecap:round;stroke-linejoin:round;stroke-miterlimit:10;}
	.st68{fill:none;stroke:#FFFFFF;stroke-width:2.647;stroke-linecap:round;stroke-linejoin:round;stroke-miterlimit:10;}
	.st69{fill:none;stroke:#FFFFFF;stroke-width:2.8347;stroke-miterlimit:22.9256;}
	.st70{fill:none;stroke:#FFFFFF;stroke-width:2.126;stroke-miterlimit:22.9256;}
	.st71{fill:none;stroke:#FFFFFF;stroke-width:3.8998;stroke-linecap:round;stroke-linejoin:round;stroke-miterlimit:10;}
</style>
<polygon class="st0" points="-1590.5,1087.3 -1590.5,-1132.5 550.3,-1132.5 550.3,1087.3 -1590.5,1087.3 "/>
<g>
	<path class="st5" d="M69.6,47.6c-0.4-0.6-1.5-1.4-1.8-2l7.9-7.7c0.3,0.2,1.7,1.5,1.9,1.9l-6.8,6.9c-0.2,0.2-0.3,0.3-0.5,0.5
		C70,47.4,70,47.5,69.6,47.6L69.6,47.6z M16.6,39.8l2-2.1c0.3,0.1,3.5,3.3,4,3.8l3.9,3.9c-0.5,0.7-1.6,1.4-2,2.1
		c-0.4-0.1-0.4-0.1-0.6-0.4c-0.2-0.2-0.3-0.3-0.5-0.5l-5.9-5.9C17.3,40.5,16.9,40.1,16.6,39.8L16.6,39.8z M19.5,36.9
		c0.5-0.6,1.2-1.2,1.8-1.8c0.6-0.6,1.1-1.1,1.8-1.8c1.7-1.6,3.7-3.8,5.4-5.4l2.7-2.7c0.4-0.4,0.5-0.2,1.6-0.2c1.2,0,2.6-0.1,3.7,0
		c0.8,1.7,2.1,3.2,3.9,4c2,0.9,3.9,1.4,6.5,1.4c3.4,0,6.4-0.9,8.7-3.1c0.9-0.9,0.9-1.2,1.6-2.3c1.3,0,2.5,0,3.8,0
		c1.9,0,1.7-0.1,2.8,1c1.2,1.3,10.9,10.7,11.1,11.2L72.9,39c-0.8,0.8-1.3,1.3-2,1.9l-4,3.9c-0.8-0.5-1.6-1.8-2.5-2.2
		c-1.5-0.7-2.8,0.4-2.9,1.7c-0.1,1,0,17.9,0,19.4c0,3.1,0.2,6.7,0,9.7c-2.5,0.2-5.7,0-8.3,0c-6.4,0-13.3-0.1-19.7,0
		c-0.2,0-0.4,0-0.6,0c0,0-0.2,0-0.2,0c-0.2,0-0.2,0-0.2-0.1c-0.3-0.3-0.1-3.5-0.1-4.2c0-5.6,0-11.1,0-16.7c0-1.7,0.2-6.9-0.1-8.2
		c-0.2-1-1.2-1.9-2.5-1.5c-0.9,0.2-1.8,1.4-2.4,1.9c-0.4-0.2-1.5-1.4-2-1.9c-0.8-0.7-1.3-1.3-2-1.9c-0.4-0.3-0.6-0.6-1-1
		c-0.3-0.3-0.7-0.6-1-1C20.7,38,20.1,37.6,19.5,36.9L19.5,36.9z M13,39.2v1.2c0.6,1-0.1,0.6,1.6,2.1c0.7,0.6,1.2,1.2,1.9,1.9L22,50
		c0.6,0.6,1.3,1.3,2.5,1.2c1.5,0,2.3-1.1,3.4-2.2c0.6-0.6,0.6-0.8,1.1-0.9c0.1,7.8,0,15.6,0,23.4c0,2-0.2,3.7,1,4.7
		c1.2,1,3.6,0.6,5.3,0.6h23.4c1.8,0,3.9,0.3,5.1-0.7c1.2-1,1-2.9,1-4.9c0-7.8,0-15.7,0-23.5c1.5,0.5,3.7,5.7,7.1,2.5l8.5-8.6
		c0.4-0.4,0.4-0.8,0.7-1.3v-1.2l-0.4-0.7c-0.1-0.2-0.3-0.4-0.4-0.5c-0.3-0.4-0.5-0.6-0.9-0.9c-0.6-0.6-1.2-1.2-1.8-1.8
		c-3.3-3.5-7.2-7.1-10.7-10.7c-1.1-1.2-2.4-2.7-4.3-2.9c-1.4-0.2-5.7-0.2-7.1,0c-1.2,0.1-1.5,0.8-1.7,1.9c-0.8,3.6-8.9,4.7-12.9,2.1
		c-2-1.4-1.3-2.8-3.4-3.7c-0.9-0.4-5.6-0.3-6.9-0.2c-1,0-1.7,0.8-2.2,1.4c-0.6,0.6-1.2,1.1-1.8,1.7L14.5,37.1
		C12.9,38.6,13.7,38.2,13,39.2L13,39.2z"/>
</g>
</svg>
