<?xml version="1.0" encoding="utf-8"?>
<!-- Generator: Adobe Illustrator 18.1.1, SVG Export Plug-In . SVG Version: 6.00 Build 0)  -->
<svg version="1.1" id="Слой_1" xmlns="http://www.w3.org/2000/svg" xmlns:xlink="http://www.w3.org/1999/xlink" x="0px" y="0px"
	 viewBox="0 0 122.4 121.5" style="enable-background:new 0 0 122.4 121.5;" xml:space="preserve">
<style type="text/css">
	.st0{fill-rule:evenodd;clip-rule:evenodd;fill:#100F10;stroke:#201600;stroke-width:0.5669;stroke-miterlimit:22.9256;}
	.st1{fill:#E9ECEB;}
	.st2{fill:#E2E2E2;}
	.st3{fill:none;stroke:#E2E2E2;stroke-width:1.4173;stroke-miterlimit:22.9256;}
	.st4{fill-rule:evenodd;clip-rule:evenodd;fill:#FFFFFF;}
	.st5{fill:#FFFFFF;}
	.st6{fill:none;stroke:#FFFEFF;stroke-width:2.8347;stroke-miterlimit:22.9256;}
	.st7{fill:none;stroke:#ECECEC;stroke-width:1.7007;stroke-miterlimit:22.9256;stroke-dasharray:3.4015,5.1022;}
	.st8{fill-rule:evenodd;clip-rule:evenodd;fill:#E61C21;stroke:#FFFEFF;stroke-width:1.9844;stroke-miterlimit:22.9256;}
	.st9{fill:#FFFEFF;}
	.st10{fill-rule:evenodd;clip-rule:evenodd;fill:#E2E2E2;}
	.st11{fill-rule:evenodd;clip-rule:evenodd;fill:none;stroke:#FFFEFF;stroke-width:1.9844;stroke-miterlimit:22.9256;}
	.st12{fill:#F3444E;}
	.st13{fill-rule:evenodd;clip-rule:evenodd;fill:#F3444E;}
	.st14{fill:none;stroke:#F3444E;stroke-width:1.4173;stroke-miterlimit:22.9256;}
	.st15{fill-rule:evenodd;clip-rule:evenodd;fill:#F3444E;stroke:#F3444E;stroke-width:1.4173;stroke-miterlimit:22.9256;}
	.st16{fill-rule:evenodd;clip-rule:evenodd;fill:#F3444E;stroke:#F3444E;stroke-width:0.5669;stroke-miterlimit:22.9256;}
	.st17{fill:#DC7D43;}
	.st18{fill:none;stroke:#201600;stroke-width:0.5669;stroke-miterlimit:22.9256;}
	.st19{fill:none;stroke:#201600;stroke-width:0.216;stroke-miterlimit:22.9256;}
	.st20{fill:none;stroke:#FFFFFF;stroke-width:1.4172;stroke-miterlimit:22.9256;}
	.st21{fill:none;stroke:#E2E2E2;stroke-width:1.4175;stroke-miterlimit:22.9256;}
	.st22{fill-rule:evenodd;clip-rule:evenodd;fill:#E2E2E2;stroke:#E2E2E2;stroke-width:1.4173;stroke-miterlimit:22.9256;}
	.st23{fill:none;stroke:#E2E2E2;stroke-width:1.4172;stroke-miterlimit:22.9256;}
	.st24{fill:none;stroke:#E2E2E2;stroke-width:1.4176;stroke-miterlimit:22.9256;}
	.st25{fill:none;stroke:#E2E2E2;stroke-width:1.4173;stroke-linecap:round;stroke-linejoin:round;stroke-miterlimit:10;}
	.st26{fill:none;stroke:#E2E2E2;stroke-width:1.3421;stroke-linecap:round;stroke-linejoin:round;stroke-miterlimit:10;}
	.st27{fill:none;stroke:#D24A43;stroke-width:1.4173;stroke-linejoin:round;stroke-miterlimit:10;}
	.st28{fill:none;stroke:#D24A43;stroke-width:1.4173;stroke-linejoin:round;stroke-miterlimit:22.9256;}
	.st29{fill:none;stroke:#D24A43;stroke-width:1.4173;stroke-linecap:round;stroke-linejoin:round;stroke-miterlimit:10;}
	.st30{fill:none;stroke:#D24A43;stroke-width:1.4173;stroke-miterlimit:22.9256;}
	.st31{fill-rule:evenodd;clip-rule:evenodd;fill:#E61C21;}
	.st32{fill:none;stroke:#FFFFFF;stroke-width:1.5487;stroke-linecap:round;stroke-linejoin:round;stroke-miterlimit:10;}
	.st33{fill:none;stroke:#FFFFFF;stroke-width:1.4017;stroke-linecap:round;stroke-linejoin:round;stroke-miterlimit:10;}
	.st34{fill:none;stroke:#FFFFFF;stroke-width:1.752;stroke-linecap:round;stroke-linejoin:round;stroke-miterlimit:10;}
	.st35{fill:none;stroke:#FFFFFF;stroke-width:1.7008;stroke-miterlimit:22.9256;}
	.st36{fill:none;stroke:#FFFFFF;stroke-width:1.5459;stroke-linecap:round;stroke-linejoin:round;stroke-miterlimit:10;}
	.st37{fill:none;stroke:#FFFFFF;stroke-width:1.4173;stroke-linecap:round;stroke-linejoin:round;stroke-miterlimit:10;}
	.st38{fill:none;stroke:#FFFFFF;stroke-width:1.5158;stroke-linecap:round;stroke-linejoin:round;stroke-miterlimit:10;}
	.st39{fill:none;stroke:#B6B8BD;stroke-width:1.4173;stroke-miterlimit:22.9256;}
	.st40{fill:none;stroke:#B6B8BD;stroke-width:1.4174;stroke-linecap:round;stroke-linejoin:round;stroke-miterlimit:10;}
	.st41{fill:none;stroke:#B6B8BD;stroke-width:1.5177;stroke-linecap:round;stroke-linejoin:round;stroke-miterlimit:10;}
	.st42{fill-rule:evenodd;clip-rule:evenodd;fill:#FFFEFF;}
	.st43{fill:#E62A13;}
	.st44{fill:none;stroke:#E62A13;stroke-width:1.486;stroke-linecap:round;stroke-linejoin:round;stroke-miterlimit:10;}
	.st45{fill:none;stroke:#E62A13;stroke-width:1.4121;stroke-linecap:round;stroke-linejoin:round;stroke-miterlimit:10;}
	.st46{fill:none;stroke:#E62A13;stroke-width:1.4173;stroke-miterlimit:22.9256;}
	.st47{fill-rule:evenodd;clip-rule:evenodd;fill:#E62A13;}
	.st48{fill:none;stroke:#E61C21;stroke-width:1.4173;stroke-linecap:round;stroke-linejoin:round;stroke-miterlimit:10;}
	.st49{fill:none;stroke:#E61C21;stroke-width:1.4173;stroke-miterlimit:22.9256;}
	.st50{fill:none;stroke:#FFFFFF;stroke-width:1.4173;stroke-miterlimit:22.9256;}
	.st51{fill:none;stroke:#F1444C;stroke-width:1.4173;stroke-miterlimit:22.9256;}
	.st52{fill-rule:evenodd;clip-rule:evenodd;fill:#FF0000;}
	.st53{fill-rule:evenodd;clip-rule:evenodd;fill:#5C768B;}
	.st54{fill:#D24A43;}
	.st55{fill:none;stroke:#D24A43;stroke-width:2.8347;stroke-miterlimit:22.9256;}
	.st56{fill-rule:evenodd;clip-rule:evenodd;fill:#D24A43;}
	.st57{fill-rule:evenodd;clip-rule:evenodd;fill:#E61C21;stroke:#FFFEFF;stroke-width:1.77;stroke-miterlimit:22.9256;}
	.st58{fill:none;stroke:#E51921;stroke-width:1.3224;stroke-miterlimit:22.9256;stroke-dasharray:2.6447,3.9671;}
	.st59{fill:none;stroke:#D24A43;stroke-width:2.126;stroke-miterlimit:22.9256;}
</style>
<polygon class="st0" points="-1315.9,1598 -1315.9,-621.8 824.8,-621.8 824.8,1598 -1315.9,1598 "/>
<g>
	<g>
		<path class="st57" d="M82.4,19.4l18-18c0.7-0.7,1.8-0.7,2.5,0L121,19.5c0.7,0.7,0.7,1.8,0,2.5l-18,18c-0.7,0.7-1.8,0.7-2.5,0
			L82.4,21.9C81.7,21.2,81.7,20.1,82.4,19.4L82.4,19.4z"/>
		<path class="st9" d="M100.2,19.5h1.4c0.5,0,0.9-0.2,1.2-0.6c0.3-0.4,0.4-0.9,0.4-1.5c0-0.6-0.1-1.1-0.4-1.4
			c-0.3-0.3-0.6-0.5-1-0.5c-0.4,0-0.7,0.2-1,0.5c-0.3,0.3-0.4,0.7-0.4,1.2h-3c0-0.8,0.2-1.5,0.5-2.1c0.4-0.6,0.9-1.1,1.5-1.5
			c0.7-0.4,1.4-0.5,2.2-0.5c1.4,0,2.5,0.4,3.3,1.2c0.8,0.8,1.2,1.8,1.2,3.2c0,0.7-0.2,1.3-0.5,1.9c-0.4,0.6-0.8,1-1.4,1.4
			c0.7,0.3,1.3,0.8,1.6,1.4c0.3,0.6,0.5,1.3,0.5,2.2c0,1.4-0.4,2.4-1.3,3.3c-0.9,0.8-2,1.2-3.4,1.2c-1.3,0-2.4-0.4-3.2-1.2
			c-0.8-0.8-1.2-1.9-1.2-3.2h3c0,0.5,0.1,1,0.4,1.4c0.3,0.4,0.6,0.6,1.1,0.6c0.5,0,0.9-0.2,1.2-0.6c0.3-0.4,0.4-0.9,0.4-1.5
			c0-1.5-0.6-2.3-1.7-2.3h-1.5V19.5L100.2,19.5z"/>
	</g>
	<polyline class="st58" points="73.4,19.9 0.7,19.9 0.7,120.9 102.2,120.9 102.2,46.7 	"/>
	<path class="st59" d="M17,40.9c1.5,0,2.8,1.3,2.8,2.8c0,1.5-1.3,2.8-2.8,2.8c-1.5,0-2.8-1.3-2.8-2.8C14.2,42.1,15.5,40.9,17,40.9
		L17,40.9z M86.2,40.9c1.5,0,2.8,1.3,2.8,2.8c0,1.5-1.3,2.8-2.8,2.8c-1.5,0-2.8-1.3-2.8-2.8C83.4,42.1,84.6,40.9,86.2,40.9
		L86.2,40.9z"/>
	<path class="st54" d="M19.8,42.7h28.8v-1.7h5.2v1.7h29.4v2.1H59.9c3.9,1,7.5,2.6,10.8,4.7c5.6,3.7,10.1,9.1,12.8,15.4l-2,0.8
		c-2.5-5.9-6.7-10.9-12-14.4c-4.5-3-9.8-4.9-15.5-5.3v1h-5.2V46c-5.6,0.5-10.9,2.4-15.3,5.5c-5.3,3.6-9.5,8.8-11.9,14.9l-2-0.8
		c2.6-6.5,7-12,12.7-15.9c3.3-2.3,7.1-4,11.1-5H19.8V42.7L19.8,42.7z"/>
	<path class="st59" d="M17.8,65.6h4.8v5.7h-4.8V65.6L17.8,65.6z M80.1,65.6h4.8v5.7h-4.8V65.6L80.1,65.6z M48.3,59.9
		c-2.8,6.7-6.1,12.1-9.3,17.9c3.5,2.7,4.4,6.6,4.9,10.4c4.8,0,9.7,0,14.5,0c0.8-3.6,1.5-6.6,5.4-10.6c-3.2-6-6.5-11.3-9.2-17.6
		c0.8-0.8,1.2-1.8,1.2-3c0-2.1-1.5-3.9-3.6-4.3v20.8c1.2,0.3,2.2,1.4,2.2,2.7c0,1.5-1.3,2.8-2.8,2.8c-1.5,0-2.8-1.3-2.8-2.8
		c0-0.8,0.4-1.6,0.9-2.1c0.3-0.2,0.6-0.4,0.9-0.5V52.6c-0.3,0.1-0.6,0.2-0.9,0.3c-1.5,0.7-2.6,2.2-2.6,4
		C47.2,58,47.6,59.1,48.3,59.9L48.3,59.9z M44.4,90.9h14.1v1.3H60c0.5,0,0.8,0.4,0.8,0.8v2.5c0,0.5-0.4,0.8-0.8,0.8h-1.6V109H44.4
		V96.3h-1.9c-0.5,0-0.8-0.4-0.8-0.8V93c0-0.5,0.4-0.8,0.8-0.8h1.9V90.9L44.4,90.9z"/>
</g>
</svg>
