<?xml version="1.0" encoding="utf-8"?>
<!-- Generator: Adobe Illustrator 18.1.1, SVG Export Plug-In . SVG Version: 6.00 Build 0)  -->
<svg version="1.1" id="Слой_1" xmlns="http://www.w3.org/2000/svg" xmlns:xlink="http://www.w3.org/1999/xlink" x="0px" y="0px"
	 viewBox="0 0 123 122.2" style="enable-background:new 0 0 123 122.2;" xml:space="preserve">
<style type="text/css">
	.st0{fill-rule:evenodd;clip-rule:evenodd;fill:#100F10;stroke:#201600;stroke-width:0.5669;stroke-miterlimit:22.9256;}
	.st1{fill:#E9ECEB;}
	.st2{fill:#E2E2E2;}
	.st3{fill:none;stroke:#E2E2E2;stroke-width:1.4173;stroke-miterlimit:22.9256;}
	.st4{fill-rule:evenodd;clip-rule:evenodd;fill:#FFFFFF;}
	.st5{fill:#FFFFFF;}
	.st6{fill:none;stroke:#FFFEFF;stroke-width:2.8347;stroke-miterlimit:22.9256;}
	.st7{fill:none;stroke:#ECECEC;stroke-width:1.7007;stroke-miterlimit:22.9256;stroke-dasharray:3.4015,5.1022;}
	.st8{fill-rule:evenodd;clip-rule:evenodd;fill:#E61C21;stroke:#FFFEFF;stroke-width:1.9844;stroke-miterlimit:22.9256;}
	.st9{fill:#FFFEFF;}
	.st10{fill-rule:evenodd;clip-rule:evenodd;fill:#E2E2E2;}
	.st11{fill-rule:evenodd;clip-rule:evenodd;fill:none;stroke:#FFFEFF;stroke-width:1.9844;stroke-miterlimit:22.9256;}
	.st12{fill:#F3444E;}
	.st13{fill-rule:evenodd;clip-rule:evenodd;fill:#F3444E;}
	.st14{fill:none;stroke:#F3444E;stroke-width:1.4173;stroke-miterlimit:22.9256;}
	.st15{fill-rule:evenodd;clip-rule:evenodd;fill:#F3444E;stroke:#F3444E;stroke-width:1.4173;stroke-miterlimit:22.9256;}
	.st16{fill-rule:evenodd;clip-rule:evenodd;fill:#F3444E;stroke:#F3444E;stroke-width:0.5669;stroke-miterlimit:22.9256;}
	.st17{fill:#DC7D43;}
	.st18{fill:none;stroke:#201600;stroke-width:0.5669;stroke-miterlimit:22.9256;}
	.st19{fill:none;stroke:#201600;stroke-width:0.216;stroke-miterlimit:22.9256;}
	.st20{fill:none;stroke:#FFFFFF;stroke-width:1.4172;stroke-miterlimit:22.9256;}
	.st21{fill:none;stroke:#E2E2E2;stroke-width:1.4175;stroke-miterlimit:22.9256;}
	.st22{fill-rule:evenodd;clip-rule:evenodd;fill:#E2E2E2;stroke:#E2E2E2;stroke-width:1.4173;stroke-miterlimit:22.9256;}
	.st23{fill:none;stroke:#E2E2E2;stroke-width:1.4172;stroke-miterlimit:22.9256;}
	.st24{fill:none;stroke:#E2E2E2;stroke-width:1.4176;stroke-miterlimit:22.9256;}
	.st25{fill:none;stroke:#E2E2E2;stroke-width:1.4173;stroke-linecap:round;stroke-linejoin:round;stroke-miterlimit:10;}
	.st26{fill:none;stroke:#E2E2E2;stroke-width:1.3421;stroke-linecap:round;stroke-linejoin:round;stroke-miterlimit:10;}
	.st27{fill:none;stroke:#D24A43;stroke-width:1.4173;stroke-linejoin:round;stroke-miterlimit:10;}
	.st28{fill:none;stroke:#D24A43;stroke-width:1.4173;stroke-linejoin:round;stroke-miterlimit:22.9256;}
	.st29{fill:none;stroke:#D24A43;stroke-width:1.4173;stroke-linecap:round;stroke-linejoin:round;stroke-miterlimit:10;}
	.st30{fill:none;stroke:#D24A43;stroke-width:1.4173;stroke-miterlimit:22.9256;}
	.st31{fill-rule:evenodd;clip-rule:evenodd;fill:#E61C21;}
	.st32{fill:none;stroke:#FFFFFF;stroke-width:1.5487;stroke-linecap:round;stroke-linejoin:round;stroke-miterlimit:10;}
	.st33{fill:none;stroke:#FFFFFF;stroke-width:1.4017;stroke-linecap:round;stroke-linejoin:round;stroke-miterlimit:10;}
	.st34{fill:none;stroke:#FFFFFF;stroke-width:1.752;stroke-linecap:round;stroke-linejoin:round;stroke-miterlimit:10;}
	.st35{fill:none;stroke:#FFFFFF;stroke-width:1.7008;stroke-miterlimit:22.9256;}
	.st36{fill:none;stroke:#FFFFFF;stroke-width:1.5459;stroke-linecap:round;stroke-linejoin:round;stroke-miterlimit:10;}
	.st37{fill:none;stroke:#FFFFFF;stroke-width:1.4173;stroke-linecap:round;stroke-linejoin:round;stroke-miterlimit:10;}
	.st38{fill:none;stroke:#FFFFFF;stroke-width:1.5158;stroke-linecap:round;stroke-linejoin:round;stroke-miterlimit:10;}
	.st39{fill:none;stroke:#B6B8BD;stroke-width:1.4173;stroke-miterlimit:22.9256;}
	.st40{fill:none;stroke:#B6B8BD;stroke-width:1.4174;stroke-linecap:round;stroke-linejoin:round;stroke-miterlimit:10;}
	.st41{fill:none;stroke:#B6B8BD;stroke-width:1.5177;stroke-linecap:round;stroke-linejoin:round;stroke-miterlimit:10;}
	.st42{fill-rule:evenodd;clip-rule:evenodd;fill:#FFFEFF;}
	.st43{fill:#E62A13;}
	.st44{fill:none;stroke:#E62A13;stroke-width:1.486;stroke-linecap:round;stroke-linejoin:round;stroke-miterlimit:10;}
	.st45{fill:none;stroke:#E62A13;stroke-width:1.4121;stroke-linecap:round;stroke-linejoin:round;stroke-miterlimit:10;}
	.st46{fill:none;stroke:#E62A13;stroke-width:1.4173;stroke-miterlimit:22.9256;}
	.st47{fill-rule:evenodd;clip-rule:evenodd;fill:#E62A13;}
	.st48{fill:none;stroke:#E61C21;stroke-width:1.4173;stroke-linecap:round;stroke-linejoin:round;stroke-miterlimit:10;}
	.st49{fill:none;stroke:#E61C21;stroke-width:1.4173;stroke-miterlimit:22.9256;}
	.st50{fill:none;stroke:#FFFFFF;stroke-width:1.4173;stroke-miterlimit:22.9256;}
	.st51{fill:none;stroke:#F1444C;stroke-width:1.4173;stroke-miterlimit:22.9256;}
	.st52{fill-rule:evenodd;clip-rule:evenodd;fill:#FF0000;}
	.st53{fill-rule:evenodd;clip-rule:evenodd;fill:#5C768B;}
	.st54{fill:#D24A43;}
	.st55{fill:none;stroke:#D24A43;stroke-width:2.8347;stroke-miterlimit:22.9256;}
	.st56{fill-rule:evenodd;clip-rule:evenodd;fill:#D24A43;}
	.st57{fill-rule:evenodd;clip-rule:evenodd;fill:#E61C21;stroke:#FFFEFF;stroke-width:1.77;stroke-miterlimit:22.9256;}
	.st58{fill:none;stroke:#E51921;stroke-width:1.3224;stroke-miterlimit:22.9256;stroke-dasharray:2.6447,3.9671;}
	.st59{fill:none;stroke:#D24A43;stroke-width:2.126;stroke-miterlimit:22.9256;}
</style>
<polygon class="st0" points="-1462.6,1603 -1462.6,-616.9 678.1,-616.9 678.1,1603 -1462.6,1603 "/>
<g>
	<g>
		<path class="st57" d="M1.4,19.4l18-18c0.7-0.7,1.8-0.7,2.5,0L40,19.5c0.7,0.7,0.7,1.8,0,2.5l-18,18c-0.7,0.7-1.8,0.7-2.5,0
			L1.4,21.9C0.7,21.2,0.7,20.1,1.4,19.4L1.4,19.4z"/>
		<path class="st9" d="M24.1,22.7h1.3v2.4h-1.3v3.3h-3v-3.3h-5L16,23.2l5.2-10h3V22.7L24.1,22.7z M18.9,22.7h2.3v-5.1l-0.1,0.1
			L18.9,22.7L18.9,22.7z"/>
	</g>
	<polyline class="st58" points="49.6,20.6 122.3,20.6 122.3,121.6 20.8,121.6 20.8,47.4 	"/>
	<path class="st59" d="M45.8,101.7V73.3l25.3-21l25.6,20.9v28.6 M31.4,70l33.4-28.1l0.1-0.1l0.1-0.1c1.8-1.2,3.8-1.8,5.9-1.8
		c2.1,0,4.2,0.6,5.9,1.8l0.2,0.1l0.2,0.1c11,9.2,22,18.4,33,27.6c2.7,2.9-0.7,7.7-4.5,5.4L72.9,47.5c-0.6-0.3-1.2-0.5-1.9-0.5
		c-0.6,0-1.2,0.2-1.8,0.5c-11.1,9.3-22.2,18.6-33.3,28C32.3,77.6,28.7,72.6,31.4,70L31.4,70z"/>
	<path class="st30" d="M53.7,93.5h34.8c1.2,0,2.2,1,2.2,2.2v4c0,1.2-1,2.2-2.2,2.2H53.7c-1.2,0-2.2-1-2.2-2.2v-4
		C51.5,94.5,52.5,93.5,53.7,93.5L53.7,93.5z"/>
	<path class="st56" d="M55.7,95.4L55.7,95.4c0.4,0,0.7,0.3,0.7,0.6v2.5c0,0.3-0.3,0.6-0.6,0.6h-0.1c-0.3,0-0.6-0.3-0.6-0.6V96
		C55.1,95.6,55.3,95.4,55.7,95.4L55.7,95.4z"/>
	<path class="st56" d="M61.8,95.4L61.8,95.4c0.4,0,0.7,0.3,0.7,0.6v2.5c0,0.3-0.3,0.6-0.6,0.6h-0.1c-0.3,0-0.6-0.3-0.6-0.6V96
		C61.2,95.6,61.5,95.4,61.8,95.4L61.8,95.4z"/>
	<path class="st56" d="M68,95.4L68,95.4c0.4,0,0.7,0.3,0.7,0.6v2.5c0,0.3-0.3,0.6-0.6,0.6H68c-0.3,0-0.6-0.3-0.6-0.6V96
		C67.3,95.6,67.6,95.4,68,95.4L68,95.4z"/>
	<path class="st56" d="M74.3,95.4L74.3,95.4c0.4,0,0.7,0.3,0.7,0.6v2.5c0,0.3-0.3,0.6-0.6,0.6h-0.1c-0.3,0-0.6-0.3-0.6-0.6V96
		C73.7,95.6,74,95.4,74.3,95.4L74.3,95.4z"/>
	<path class="st56" d="M80.5,95.4L80.5,95.4c0.4,0,0.7,0.3,0.7,0.6v2.5c0,0.3-0.3,0.6-0.6,0.6h-0.1c-0.3,0-0.6-0.3-0.6-0.6V96
		C79.9,95.6,80.1,95.4,80.5,95.4L80.5,95.4z"/>
	<path class="st56" d="M86.8,95.4L86.8,95.4c0.4,0,0.7,0.3,0.7,0.6v2.5c0,0.3-0.3,0.6-0.6,0.6h-0.1c-0.3,0-0.6-0.3-0.6-0.6V96
		C86.2,95.6,86.5,95.4,86.8,95.4L86.8,95.4z"/>
	<path class="st56" d="M83.7,95.4L83.7,95.4c0.4,0,0.7,0.3,0.7,0.6v1c0,0.3-0.3,0.6-0.6,0.6h-0.1c-0.3,0-0.6-0.3-0.6-0.6v-1
		C83,95.6,83.3,95.4,83.7,95.4L83.7,95.4z"/>
	<path class="st56" d="M77.4,95.4L77.4,95.4c0.4,0,0.7,0.3,0.7,0.6v1c0,0.3-0.3,0.6-0.6,0.6h-0.1c-0.3,0-0.6-0.3-0.6-0.6v-1
		C76.8,95.6,77,95.4,77.4,95.4L77.4,95.4z"/>
	<path class="st56" d="M71.2,95.4L71.2,95.4c0.4,0,0.7,0.3,0.7,0.6v1c0,0.3-0.3,0.6-0.6,0.6h-0.1c-0.3,0-0.6-0.3-0.6-0.6v-1
		C70.5,95.6,70.8,95.4,71.2,95.4L71.2,95.4z"/>
	<path class="st56" d="M64.9,95.4L64.9,95.4c0.4,0,0.7,0.3,0.7,0.6v1c0,0.3-0.3,0.6-0.6,0.6h-0.1c-0.3,0-0.6-0.3-0.6-0.6v-1
		C64.3,95.6,64.6,95.4,64.9,95.4L64.9,95.4z"/>
	<path class="st56" d="M58.7,95.4L58.7,95.4c0.4,0,0.7,0.3,0.7,0.6v1c0,0.3-0.3,0.6-0.6,0.6h-0.1c-0.3,0-0.6-0.3-0.6-0.6v-1
		C58.1,95.6,58.4,95.4,58.7,95.4L58.7,95.4z"/>
	<path class="st56" d="M57.4,88.8c0-0.3,0.1-0.5,0.2-0.8c0.1-0.2,0.2-0.5,0.2-0.8l1.1,1.1L57.4,88.8L57.4,88.8z M59.1,82.5
		c0.2,0,0.6,0.2,0.8,0.4c0.4,0.2,2.2,1,2.3,1.1c0.1,0.1,1.4,2.9,1.5,3c-0.1,0.1-3.3,1-3.4,1c-0.1,0-1.7-1.8-2-2
		C58.4,84.9,58.9,83.6,59.1,82.5L59.1,82.5z M64.6,86.4c-0.1-0.4-0.5-1-0.6-1.4c-0.2-0.3-0.6-1.1-0.7-1.4l13.5-13.5l2,2L64.6,86.4
		L64.6,86.4z M62.5,82.9c-0.4-0.2-0.9-0.5-1.4-0.7c-0.4-0.2-1.1-0.6-1.4-0.7l14.2-14.2l2.1,2L62.5,82.9L62.5,82.9z M77.5,65.1
		c2.6,0,4.4,2.7,3.1,5.2c-0.2,0.4-0.7,0.9-1,1.1l-4.9-4.9c0.3-0.5,1.2-1.1,1.9-1.3C76.7,65.2,77.3,65.1,77.5,65.1L77.5,65.1z
		 M55.9,89.7c0,0.3,0.3,0.5,0.6,0.5c0.2,0,1.1-0.3,1.4-0.4c0.5-0.1,0.9-0.3,1.4-0.4l4.8-1.3c0.9-0.3,0.7-0.2,1.5-1.1l15-15
		c0.2-0.2,0.2-0.3,0.4-0.5c2.6-3.3,0.1-7.6-3.5-7.6c-0.4,0-0.9,0.1-1.2,0.2c-1.1,0.3-1.9,1.1-2.6,1.8L58.9,80.8
		c-0.1,0.1-0.2,0.2-0.3,0.3c-0.5,0.5-0.3,0.2-0.5,1c-0.1,0.2-0.1,0.4-0.2,0.6c-0.2,0.8-0.4,1.5-0.7,2.3c-0.2,0.7-0.4,1.5-0.6,2.3
		C56.4,87.7,55.9,89.4,55.9,89.7L55.9,89.7z"/>
</g>
</svg>
