<?xml version="1.0" encoding="utf-8"?>
<!-- Generator: Adobe Illustrator 18.1.1, SVG Export Plug-In . SVG Version: 6.00 Build 0)  -->
<svg version="1.1" id="Слой_1" xmlns="http://www.w3.org/2000/svg" xmlns:xlink="http://www.w3.org/1999/xlink" x="0px" y="0px"
	 viewBox="0 0 122.6 122.2" style="enable-background:new 0 0 122.6 122.2;" xml:space="preserve">
<style type="text/css">
	.st0{fill-rule:evenodd;clip-rule:evenodd;fill:#100F10;stroke:#201600;stroke-width:0.5669;stroke-miterlimit:22.9256;}
	.st1{fill:#E9ECEB;}
	.st2{fill:#E2E2E2;}
	.st3{fill:none;stroke:#E2E2E2;stroke-width:1.4173;stroke-miterlimit:22.9256;}
	.st4{fill-rule:evenodd;clip-rule:evenodd;fill:#FFFFFF;}
	.st5{fill:#FFFFFF;}
	.st6{fill:none;stroke:#FFFEFF;stroke-width:2.8347;stroke-miterlimit:22.9256;}
	.st7{fill:none;stroke:#ECECEC;stroke-width:1.7007;stroke-miterlimit:22.9256;stroke-dasharray:3.4015,5.1022;}
	.st8{fill-rule:evenodd;clip-rule:evenodd;fill:#E61C21;stroke:#FFFEFF;stroke-width:1.9844;stroke-miterlimit:22.9256;}
	.st9{fill:#FFFEFF;}
	.st10{fill-rule:evenodd;clip-rule:evenodd;fill:#E2E2E2;}
	.st11{fill-rule:evenodd;clip-rule:evenodd;fill:none;stroke:#FFFEFF;stroke-width:1.9844;stroke-miterlimit:22.9256;}
	.st12{fill:#F3444E;}
	.st13{fill-rule:evenodd;clip-rule:evenodd;fill:#F3444E;}
	.st14{fill:none;stroke:#F3444E;stroke-width:1.4173;stroke-miterlimit:22.9256;}
	.st15{fill-rule:evenodd;clip-rule:evenodd;fill:#F3444E;stroke:#F3444E;stroke-width:1.4173;stroke-miterlimit:22.9256;}
	.st16{fill-rule:evenodd;clip-rule:evenodd;fill:#F3444E;stroke:#F3444E;stroke-width:0.5669;stroke-miterlimit:22.9256;}
	.st17{fill:#DC7D43;}
	.st18{fill:none;stroke:#201600;stroke-width:0.5669;stroke-miterlimit:22.9256;}
	.st19{fill:none;stroke:#201600;stroke-width:0.216;stroke-miterlimit:22.9256;}
	.st20{fill:none;stroke:#FFFFFF;stroke-width:1.4172;stroke-miterlimit:22.9256;}
	.st21{fill:none;stroke:#E2E2E2;stroke-width:1.4175;stroke-miterlimit:22.9256;}
	.st22{fill-rule:evenodd;clip-rule:evenodd;fill:#E2E2E2;stroke:#E2E2E2;stroke-width:1.4173;stroke-miterlimit:22.9256;}
	.st23{fill:none;stroke:#E2E2E2;stroke-width:1.4172;stroke-miterlimit:22.9256;}
	.st24{fill:none;stroke:#E2E2E2;stroke-width:1.4176;stroke-miterlimit:22.9256;}
	.st25{fill:none;stroke:#E2E2E2;stroke-width:1.4173;stroke-linecap:round;stroke-linejoin:round;stroke-miterlimit:10;}
	.st26{fill:none;stroke:#E2E2E2;stroke-width:1.3421;stroke-linecap:round;stroke-linejoin:round;stroke-miterlimit:10;}
	.st27{fill:none;stroke:#D24A43;stroke-width:1.4173;stroke-linejoin:round;stroke-miterlimit:10;}
	.st28{fill:none;stroke:#D24A43;stroke-width:1.4173;stroke-linejoin:round;stroke-miterlimit:22.9256;}
	.st29{fill:none;stroke:#D24A43;stroke-width:1.4173;stroke-linecap:round;stroke-linejoin:round;stroke-miterlimit:10;}
	.st30{fill:none;stroke:#D24A43;stroke-width:1.4173;stroke-miterlimit:22.9256;}
	.st31{fill-rule:evenodd;clip-rule:evenodd;fill:#E61C21;}
	.st32{fill:none;stroke:#FFFFFF;stroke-width:1.5487;stroke-linecap:round;stroke-linejoin:round;stroke-miterlimit:10;}
	.st33{fill:none;stroke:#FFFFFF;stroke-width:1.4017;stroke-linecap:round;stroke-linejoin:round;stroke-miterlimit:10;}
	.st34{fill:none;stroke:#FFFFFF;stroke-width:1.752;stroke-linecap:round;stroke-linejoin:round;stroke-miterlimit:10;}
	.st35{fill:none;stroke:#FFFFFF;stroke-width:1.7008;stroke-miterlimit:22.9256;}
	.st36{fill:none;stroke:#FFFFFF;stroke-width:1.5459;stroke-linecap:round;stroke-linejoin:round;stroke-miterlimit:10;}
	.st37{fill:none;stroke:#FFFFFF;stroke-width:1.4173;stroke-linecap:round;stroke-linejoin:round;stroke-miterlimit:10;}
	.st38{fill:none;stroke:#FFFFFF;stroke-width:1.5158;stroke-linecap:round;stroke-linejoin:round;stroke-miterlimit:10;}
	.st39{fill:none;stroke:#B6B8BD;stroke-width:1.4173;stroke-miterlimit:22.9256;}
	.st40{fill:none;stroke:#B6B8BD;stroke-width:1.4174;stroke-linecap:round;stroke-linejoin:round;stroke-miterlimit:10;}
	.st41{fill:none;stroke:#B6B8BD;stroke-width:1.5177;stroke-linecap:round;stroke-linejoin:round;stroke-miterlimit:10;}
	.st42{fill-rule:evenodd;clip-rule:evenodd;fill:#FFFEFF;}
	.st43{fill:#E62A13;}
	.st44{fill:none;stroke:#E62A13;stroke-width:1.486;stroke-linecap:round;stroke-linejoin:round;stroke-miterlimit:10;}
	.st45{fill:none;stroke:#E62A13;stroke-width:1.4121;stroke-linecap:round;stroke-linejoin:round;stroke-miterlimit:10;}
	.st46{fill:none;stroke:#E62A13;stroke-width:1.4173;stroke-miterlimit:22.9256;}
	.st47{fill-rule:evenodd;clip-rule:evenodd;fill:#E62A13;}
	.st48{fill:none;stroke:#E61C21;stroke-width:1.4173;stroke-linecap:round;stroke-linejoin:round;stroke-miterlimit:10;}
	.st49{fill:none;stroke:#E61C21;stroke-width:1.4173;stroke-miterlimit:22.9256;}
	.st50{fill:none;stroke:#FFFFFF;stroke-width:1.4173;stroke-miterlimit:22.9256;}
	.st51{fill:none;stroke:#F1444C;stroke-width:1.4173;stroke-miterlimit:22.9256;}
	.st52{fill-rule:evenodd;clip-rule:evenodd;fill:#FF0000;}
	.st53{fill-rule:evenodd;clip-rule:evenodd;fill:#5C768B;}
	.st54{fill:#D24A43;}
	.st55{fill:none;stroke:#D24A43;stroke-width:2.8347;stroke-miterlimit:22.9256;}
	.st56{fill-rule:evenodd;clip-rule:evenodd;fill:#D24A43;}
	.st57{fill-rule:evenodd;clip-rule:evenodd;fill:#E61C21;stroke:#FFFEFF;stroke-width:1.77;stroke-miterlimit:22.9256;}
	.st58{fill:none;stroke:#E51921;stroke-width:1.3224;stroke-miterlimit:22.9256;stroke-dasharray:2.6447,3.9671;}
	.st59{fill:none;stroke:#D24A43;stroke-width:2.126;stroke-miterlimit:22.9256;}
</style>
<polygon class="st0" points="-1005.3,1598.9 -1005.3,-620.9 1135.4,-620.9 1135.4,1598.9 -1005.3,1598.9 "/>
<g>
	<g>
		<path class="st57" d="M1.4,19.4l18-18c0.7-0.7,1.8-0.7,2.5,0L40,19.5c0.7,0.7,0.7,1.8,0,2.5l-18,18c-0.7,0.7-1.8,0.7-2.5,0
			L1.4,21.9C0.7,21.2,0.7,20.1,1.4,19.4L1.4,19.4z"/>
		<polygon class="st9" points="23.1,28.4 20.1,28.4 20.1,16.8 17.2,17.9 17.2,15.5 22.8,13.2 23.1,13.2 23.1,28.4 		"/>
	</g>
	<polyline class="st58" points="49.2,20.6 122,20.6 122,121.6 20.4,121.6 20.4,47.4 	"/>
	<path class="st56" d="M68.8,86.7v-4.5c0-0.9,0.5-1.4,1.4-1.4h2c0.9,0,1.4,0.5,1.4,1.4v4.5c0,0.8-0.5,1.4-1.3,1.4H70
		C69.3,88.1,68.8,87.5,68.8,86.7L68.8,86.7z M66.3,82v1.2H59l2.4-5.1c0.1-0.2,0.1-0.3,0.2-0.5l1.9-4.1c0.1-0.2,0.1-0.3,0.3-0.5
		c0.6-1.2,1.3-2.9,1.9-4.1c0.1-0.3,0.9-1.9,1-2.1l1,0.3c2,0.7,5.1,0.7,7.1,0l1-0.3c0,0.2,2.1,4.6,2.4,5.2c0.2,0.4,0.3,0.7,0.5,1.1
		l2.2,4.6c0.8,1.7,1.6,3.5,2.4,5.2c0.1,0.2,0.2,0.4,0.2,0.5h-7.3c0-1.5,0.1-2.6-1.1-3.8c-1.4-1.4-3.1-1.1-4.9-1.1
		C68,78.4,66.3,80,66.3,82L66.3,82z M78,65.6l1.3-0.9c0.2-0.2,0.4-0.3,0.6-0.5c1-0.8,1.6-1.6,2.3-2.6c0.1-0.1,0.1-0.3,0.3-0.3
		c0.1,0.4,10.4,26.5,11.6,29.5c0.8,1.9,1.1,2.7,1.3,4.6c0.2,1.4,0.1,6.1,0.1,7.6l-0.1-0.2c0-0.1-0.1-0.2-0.1-0.3
		c-0.8-1.7-1.7-3.6-2.5-5.3l-5.2-11.2c-0.1-0.2-0.2-0.4-0.3-0.6l-1.1-2.3c-0.8-1.7-1.7-3.7-2.4-5.3c-0.6-1.3-1.3-2.9-1.9-4.1
		l-1.9-4.1c-0.4-0.9-0.9-2.1-1.4-3L78,65.6L78,65.6z M46.9,103.1c0-0.5,0-6.5,0-6.8c0.2-1.4,0.1-1.3,0.5-2.9
		c0.1-0.4,0.3-0.9,0.4-1.3c1.1-2.8,2.3-5.8,3.4-8.6c1.5-4.1,3.2-8.2,4.8-12.3c0.5-1.4,1.5-3.6,1.9-4.9c0.4-1.1,1-2.5,1.5-3.7
		l0.5-1.3c0.2,0,0.2,0.1,0.3,0.3l0.7,0.9c0.8,1,2.3,2.4,3.6,3l-7.9,17c-0.1,0.2-0.2,0.4-0.3,0.6L55.4,85c-0.1,0.2-0.2,0.3-0.3,0.6
		l-1.1,2.4c-0.5,1.1-1.1,2.5-1.6,3.5c-0.2,0.4-0.4,0.8-0.6,1.2c-0.1,0.2-0.2,0.4-0.3,0.6l-1.9,4.1c-0.4,1-1.2,2.5-1.7,3.5
		L46.9,103.1L46.9,103.1z M71,43.1c3.2,0,5.8,1.1,8,3.3l0.9,1.1c1.4,1.7,2.3,4.5,2.2,6.6c-0.1,1.6-0.2,2.6-0.8,4
		c-1,2.5-2.6,4.2-4.8,5.5c-0.7,0.4-1.6,0.8-2.4,1c-0.7,0.2-1.7,0.4-2.4,0.4c-0.3,0-0.3,0.1-0.6,0.1c-0.3,0-0.4,0-0.6-0.1
		c-1.4-0.1-2.6-0.3-3.9-0.9c-1.3-0.6-2.3-1.2-3.2-2.2c-0.7-0.7-1.3-1.4-1.8-2.3c-0.7-1.2-1.2-2.6-1.4-4.1c-0.4-2.9,0.5-6,2.4-8.3
		c0.2-0.3,0.4-0.5,0.6-0.7C65.4,44.4,68,43.1,71,43.1L71,43.1z M68.8,40.9V36c0-0.4,0.1-0.7,0.3-1c0.2-0.2,0.5-0.4,0.9-0.4h2.4
		c0.8,0,1.2,0.6,1.2,1.4v4.9c-0.4,0-1.1-0.2-2-0.2c-0.7,0-1.3,0-1.9,0.1C69.4,40.8,69,40.9,68.8,40.9L68.8,40.9z M66.3,41.6
		c-0.6,0.1-2.6,1.3-3.1,1.7c-0.3,0.2-0.6,0.5-0.9,0.7c-0.3,0.3-0.6,0.5-0.8,0.8l-0.5,0.6c-0.1,0.1-0.1,0.1-0.2,0.2
		c-0.2,0.3-0.5,0.6-0.7,0.9l-0.6,1c-1,1.6-1.7,4.3-1.7,6.4l0.1,1.5c0,0.4,0.1,1,0.2,1.4c0.1,0.2,0.1,0.4,0.2,0.6
		c0.2,1,0.3,0.4-0.4,2.2c-1.9,4.7-3.7,9.4-5.5,14l-2.5,6.2c-0.2,0.5-1.1,2.7-1.2,3.2h-4.6c-0.2-0.3-0.4-0.6-0.7-0.8
		c-1-0.7-2.3-0.5-3.2,0.3c-1.4,1.4-0.6,4.2,1.9,4.2c0.7,0,1.8-0.6,1.9-1.2h3.6c-0.2,0.4-0.4,0.8-0.5,1.2c-1.1,3.1-2.8,6-2.8,9.5
		v12.5c0,1.1,1.4,1.5,2.1,0.8c0.2-0.2,0.3-0.5,0.4-0.7c0.1-0.1,0.1-0.2,0.2-0.4l1.6-3.5c0.1-0.3,0.2-0.5,0.4-0.8
		c0.5-1,0.9-2.1,1.4-3.1l1.3-2.7c0.1-0.1,0.1-0.3,0.2-0.4c0.5-1.2,1.6-3.3,2.2-4.6l1.6-3.5c0.5-1.2,1-2.3,1.6-3.5
		c0.1-0.2,0.3-0.6,0.4-0.8h8.5c0,1.6,0,2.5,1,3.8c0.6,0.6,1.7,1.1,2.5,1.1h2.7c0.9,0,1.9-0.4,2.5-1.1c1.1-1.2,1-2.2,1-3.8h8.5
		c0,0.2,0.3,0.6,0.3,0.8l0.7,1.5c0.1,0.3,0.2,0.5,0.4,0.8l1.4,3.1c0.5,1,1,2,1.4,3.1c0.3,0.8,0.8,1.5,1.1,2.3c0.4,1,2.4,5.3,2.9,6.2
		c0.5,0.9,2.6,5.7,2.9,6.1c0.7,0.8,2.1,0.3,2.1-0.8V96.5c0-2.2-0.6-4.2-1.3-5.8c-0.5-1.2-1.1-2.6-1.5-3.8c-0.1-0.4-0.3-0.9-0.5-1.3
		h3.6c0.2,0.6,1.2,1.2,2.2,1.2c2.1,0,3.1-2.7,1.7-4.2c-1.1-1.1-3.1-1-3.9,0.5h-4.6c-0.1-0.5-1-2.6-1.2-3.1c-1.2-3.1-2.4-6.2-3.7-9.3
		l-4.9-12.5c0-0.1,0.1-0.3,0.1-0.5c0.3-1.1,0.5-2.1,0.5-3.2l0-1.2c-0.1-0.8,0-0.9-0.2-1.8c-0.2-1.4-0.7-2.7-1.3-3.9l-1-1.6
		c-0.1-0.1-0.2-0.2-0.3-0.4c-0.4-0.5-0.8-0.9-1.2-1.4c-0.1-0.1-0.2-0.2-0.3-0.3c-0.7-0.6-1.5-1.2-2.3-1.7c-0.3-0.2-1.5-0.8-1.8-0.9
		c0-1.3,0.1-5.4-0.1-6.4c-0.1-0.9-0.6-1.6-1.1-2.1c-0.5-0.4-1.4-1-2.3-1h-2.9c-1.6,0-3.2,1.5-3.4,3.1C66.2,36.2,66.3,40.3,66.3,41.6
		L66.3,41.6z"/>
	<path class="st56" d="M68.8,53.9v0.3c0,1.2,1.1,2.3,2.3,2.3h0.2c1.2,0,2.3-1.1,2.3-2.3c0-0.6-0.1-1-0.4-1.5
		c-0.1-0.1-0.2-0.3-0.3-0.3c-0.1-0.1-0.5-0.4-0.7-0.5c-0.7-0.3-1.5-0.3-2.1,0c-0.2,0.1-0.6,0.4-0.7,0.5c-0.2,0.2-0.3,0.5-0.5,0.7
		C68.9,53.2,68.8,53.5,68.8,53.9L68.8,53.9z"/>
	<path class="st56" d="M69.9,106.7c0,0.9-0.1,2.3,0.2,2.9c0.2,0.3,0.5,0.5,0.9,0.5h0.3c0.6-0.1,1.1-0.5,1.1-1.6
		c0-0.9,0.1-2.3-0.3-2.9c-0.4-0.6-1.5-0.6-1.9,0C70,105.9,69.9,106.2,69.9,106.7L69.9,106.7z"/>
	<path class="st56" d="M57.8,106.5v2.1c0,0.9,0.6,1.3,1.1,1.4h0.2c0.6,0,1.1-0.4,1.1-1.1v-2.7c0-1-1.5-1.5-2.1-0.7
		C57.9,105.8,57.8,106.1,57.8,106.5L57.8,106.5z"/>
	<path class="st56" d="M82.2,106.2v2.7c0,0.5,0.5,1.1,1.1,1.1c0.9,0,1.4-0.5,1.4-1.4v-2.1C84.6,104.6,82.2,104.9,82.2,106.2
		L82.2,106.2z"/>
	<path class="st56" d="M51.7,106.3v2.6c0,0.6,0.5,1.1,1.3,1.1c0.6,0,1.1-0.6,1.1-1.1v-2.6c0-0.6-0.5-1.1-1.3-1.1
		C52.3,105.1,51.7,105.7,51.7,106.3L51.7,106.3z"/>
	<path class="st56" d="M88.2,106.3v2.6c0,0.6,0.5,1.1,1.3,1.1c0.6,0,1.1-0.6,1.1-1.1v-2.6c0-0.6-0.5-1.1-1.3-1.1
		C88.8,105.1,88.2,105.7,88.2,106.3L88.2,106.3z"/>
	<path class="st56" d="M76.1,106.3v2.6c0,0.6,0.5,1.1,1.3,1.1c0.6,0,1.1-0.6,1.1-1.1v-2.6c0-0.6-0.5-1.1-1.3-1.1
		C76.6,105.1,76.1,105.7,76.1,106.3L76.1,106.3z"/>
	<path class="st56" d="M63.9,106.3v2.6c0,0.6,0.5,1.1,1.3,1.1c0.6,0,1.1-0.6,1.1-1.1v-2.6c0-0.6-0.5-1.1-1.3-1.1
		C64.5,105.1,63.9,105.7,63.9,106.3L63.9,106.3z"/>
</g>
</svg>
