<?xml version="1.0" encoding="utf-8"?>
<!-- Generator: Adobe Illustrator 24.1.0, SVG Export Plug-In . SVG Version: 6.00 Build 0)  -->
<!DOCTYPE svg PUBLIC "-//W3C//DTD SVG 1.1//EN" "http://www.w3.org/Graphics/SVG/1.1/DTD/svg11.dtd" [
	<!ENTITY ns_extend "http://ns.adobe.com/Extensibility/1.0/">
	<!ENTITY ns_ai "http://ns.adobe.com/AdobeIllustrator/10.0/">
	<!ENTITY ns_graphs "http://ns.adobe.com/Graphs/1.0/">
	<!ENTITY ns_vars "http://ns.adobe.com/Variables/1.0/">
	<!ENTITY ns_imrep "http://ns.adobe.com/ImageReplacement/1.0/">
	<!ENTITY ns_sfw "http://ns.adobe.com/SaveForWeb/1.0/">
	<!ENTITY ns_custom "http://ns.adobe.com/GenericCustomNamespace/1.0/">
	<!ENTITY ns_adobe_xpath "http://ns.adobe.com/XPath/1.0/">
]>
<svg version="1.1" id="Слой_1" xmlns:x="&ns_extend;" xmlns:i="&ns_ai;" xmlns:graph="&ns_graphs;"
	 xmlns="http://www.w3.org/2000/svg" xmlns:xlink="http://www.w3.org/1999/xlink" x="0px" y="0px" viewBox="0 0 12.49 12.49"
	 style="enable-background:new 0 0 12.49 12.49;" xml:space="preserve">
<style type="text/css">
	.st0{fill-rule:evenodd;clip-rule:evenodd;fill:#100F10;stroke:#201600;stroke-width:0.5669;stroke-miterlimit:22.9256;}
	.st1{fill:#E9ECEB;}
	.st2{fill:#E2E2E2;}
	.st3{fill:none;stroke:#E2E2E2;stroke-width:1.4173;stroke-miterlimit:22.9256;}
	.st4{fill-rule:evenodd;clip-rule:evenodd;fill:#FFFFFF;}
	.st5{fill:#FFFFFF;}
	.st6{fill:none;stroke:#FFFEFF;stroke-width:2.8347;stroke-miterlimit:22.9256;}
	.st7{fill-rule:evenodd;clip-rule:evenodd;fill:#E2E2E2;}
	.st8{fill:#FFFEFF;}
	.st9{fill:none;stroke:#ECECEC;stroke-width:1.7007;stroke-miterlimit:22.9256;stroke-dasharray:3.4015,5.1022;}
	.st10{fill-rule:evenodd;clip-rule:evenodd;fill:#E61C21;stroke:#FFFEFF;stroke-width:1.9844;stroke-miterlimit:22.9256;}
	.st11{fill-rule:evenodd;clip-rule:evenodd;fill:#F3444E;}
	.st12{fill:none;stroke:#F3444E;stroke-width:1.4173;stroke-miterlimit:22.9256;}
	.st13{fill-rule:evenodd;clip-rule:evenodd;fill:#F3444E;stroke:#F3444E;stroke-width:1.4173;stroke-miterlimit:22.9256;}
	.st14{fill-rule:evenodd;clip-rule:evenodd;fill:#F3444E;stroke:#F3444E;stroke-width:0.5669;stroke-miterlimit:22.9256;}
	.st15{fill:#DC7D43;}
	.st16{fill:none;stroke:#201600;stroke-width:0.5669;stroke-miterlimit:22.9256;}
	.st17{fill:none;stroke:#201600;stroke-width:0.216;stroke-miterlimit:22.9256;}
	.st18{fill:none;stroke:#FFFFFF;stroke-width:1.4172;stroke-miterlimit:22.9256;}
	.st19{fill:none;stroke:#E2E2E2;stroke-width:1.4175;stroke-miterlimit:22.9256;}
	.st20{fill-rule:evenodd;clip-rule:evenodd;fill:#E2E2E2;stroke:#E2E2E2;stroke-width:1.4173;stroke-miterlimit:22.9256;}
	.st21{fill:none;stroke:#E2E2E2;stroke-width:1.4172;stroke-miterlimit:22.9256;}
	.st22{fill:none;stroke:#E2E2E2;stroke-width:1.4176;stroke-miterlimit:22.9256;}
	.st23{fill:none;stroke:#E2E2E2;stroke-width:1.4173;stroke-linecap:round;stroke-linejoin:round;stroke-miterlimit:10;}
	.st24{fill:none;stroke:#E2E2E2;stroke-width:1.3421;stroke-linecap:round;stroke-linejoin:round;stroke-miterlimit:10;}
	.st25{fill:none;stroke:#D24A43;stroke-width:1.4173;stroke-linejoin:round;stroke-miterlimit:10;}
	.st26{fill:none;stroke:#D24A43;stroke-width:1.4173;stroke-linejoin:round;stroke-miterlimit:22.9256;}
	.st27{fill:none;stroke:#D24A43;stroke-width:1.4173;stroke-linecap:round;stroke-linejoin:round;stroke-miterlimit:10;}
	.st28{fill:none;stroke:#D24A43;stroke-width:1.4173;stroke-miterlimit:22.9256;}
	.st29{fill-rule:evenodd;clip-rule:evenodd;fill:#E61C21;}
	.st30{fill:none;stroke:#FFFFFF;stroke-width:1.5487;stroke-linecap:round;stroke-linejoin:round;stroke-miterlimit:10;}
	.st31{fill:none;stroke:#FFFFFF;stroke-width:1.4017;stroke-linecap:round;stroke-linejoin:round;stroke-miterlimit:10;}
	.st32{fill:none;stroke:#FFFFFF;stroke-width:1.752;stroke-linecap:round;stroke-linejoin:round;stroke-miterlimit:10;}
	.st33{fill:none;stroke:#FFFFFF;stroke-width:1.7008;stroke-miterlimit:22.9256;}
	.st34{fill:none;stroke:#FFFFFF;stroke-width:1.5459;stroke-linecap:round;stroke-linejoin:round;stroke-miterlimit:10;}
	.st35{fill:none;stroke:#FFFFFF;stroke-width:1.4173;stroke-linecap:round;stroke-linejoin:round;stroke-miterlimit:10;}
	.st36{fill:none;stroke:#FFFFFF;stroke-width:1.5158;stroke-linecap:round;stroke-linejoin:round;stroke-miterlimit:10;}
	.st37{fill:none;stroke:#B6B8BD;stroke-width:1.4173;stroke-miterlimit:22.9256;}
	.st38{fill:none;stroke:#B6B8BD;stroke-width:1.4174;stroke-linecap:round;stroke-linejoin:round;stroke-miterlimit:10;}
	.st39{fill:none;stroke:#B6B8BD;stroke-width:1.5177;stroke-linecap:round;stroke-linejoin:round;stroke-miterlimit:10;}
	.st40{fill-rule:evenodd;clip-rule:evenodd;fill:#FFFEFF;}
	.st41{fill:#E62A13;}
	.st42{fill:none;stroke:#E62A13;stroke-width:1.486;stroke-linecap:round;stroke-linejoin:round;stroke-miterlimit:10;}
	.st43{fill:none;stroke:#E62A13;stroke-width:1.4121;stroke-linecap:round;stroke-linejoin:round;stroke-miterlimit:10;}
	.st44{fill:none;stroke:#E62A13;stroke-width:1.4173;stroke-miterlimit:22.9256;}
	.st45{fill-rule:evenodd;clip-rule:evenodd;fill:#E62A13;}
	.st46{fill:none;stroke:#E61C21;stroke-width:1.4173;stroke-linecap:round;stroke-linejoin:round;stroke-miterlimit:10;}
	.st47{fill:none;stroke:#E61C21;stroke-width:1.4173;stroke-miterlimit:22.9256;}
	.st48{fill:none;stroke:#FFFFFF;stroke-width:1.4173;stroke-miterlimit:22.9256;}
	.st49{fill:none;stroke:#F1444C;stroke-width:1.4173;stroke-miterlimit:22.9256;}
	.st50{fill-rule:evenodd;clip-rule:evenodd;fill:#FF0000;}
	.st51{fill-rule:evenodd;clip-rule:evenodd;fill:#5C768B;}
	.st52{fill:#D24A43;}
	.st53{fill:none;stroke:#D24A43;stroke-width:2.8347;stroke-miterlimit:22.9256;}
	.st54{fill-rule:evenodd;clip-rule:evenodd;fill:#D24A43;}
</style>
		<polygon class="st0" points="-1715.04,1967.65 -1715.04,-252.21 425.68,-252.21 425.68,1967.65 -1715.04,1967.65 		"/>
		<path class="st40" d="M11.08,5.23H9.93c0.09,0.32,0.14,0.66,0.14,1.01c0,2.11-1.71,3.82-3.82,3.82c-2.11,0-3.82-1.71-3.82-3.82
			c0-0.35,0.05-0.69,0.14-1.01H1.4v5.23c0,0.34,0.28,0.62,0.62,0.62h8.43c0.34,0,0.62-0.28,0.62-0.62V5.23L11.08,5.23z M11.08,2.03
			c0-0.35-0.28-0.62-0.62-0.62H9.21c-0.34,0-0.62,0.28-0.62,0.62v1.25c0,0.34,0.28,0.62,0.62,0.62h1.25c0.34,0,0.62-0.28,0.62-0.62
			V2.03L11.08,2.03z M6.24,3.82c-0.97,0-1.81,0.58-2.19,1.4h0c0,0.01-0.01,0.02-0.01,0.03c-0.02,0.05-0.04,0.1-0.06,0.16
			C3.96,5.44,3.95,5.46,3.95,5.49C3.93,5.54,3.91,5.6,3.9,5.65C3.89,5.68,3.89,5.71,3.88,5.73C3.87,5.79,3.86,5.85,3.85,5.91
			c0,0.02-0.01,0.05-0.01,0.07C3.83,6.07,3.82,6.16,3.82,6.24c0,1.34,1.08,2.42,2.42,2.42c1.34,0,2.42-1.08,2.42-2.42
			c0-0.09-0.01-0.17-0.01-0.26c0-0.02-0.01-0.05-0.01-0.07C8.63,5.85,8.62,5.79,8.61,5.73C8.6,5.71,8.59,5.68,8.59,5.65
			C8.57,5.6,8.56,5.54,8.54,5.49C8.53,5.46,8.52,5.44,8.51,5.41C8.49,5.36,8.47,5.31,8.45,5.26c0-0.01-0.01-0.02-0.01-0.03h0
			C8.05,4.4,7.22,3.82,6.24,3.82L6.24,3.82z M10.93,12.49H1.56C0.7,12.49,0,11.79,0,10.93V1.56C0,0.7,0.7,0,1.56,0h9.37
			c0.86,0,1.56,0.7,1.56,1.56v9.36C12.49,11.79,11.79,12.49,10.93,12.49L10.93,12.49z"/>
</svg>
