<?xml version="1.0" encoding="utf-8"?>
<!-- Generator: Adobe Illustrator 18.1.1, SVG Export Plug-In . SVG Version: 6.00 Build 0)  -->
<svg version="1.1" id="Слой_1" xmlns="http://www.w3.org/2000/svg" xmlns:xlink="http://www.w3.org/1999/xlink" x="0px" y="0px"
	 viewBox="0 0 31.7 31.7" style="enable-background:new 0 0 31.7 31.7;" xml:space="preserve">
<style type="text/css">
	.st0{fill-rule:evenodd;clip-rule:evenodd;fill:#100F10;stroke:#201600;stroke-width:0.5669;stroke-miterlimit:22.9256;}
	.st1{fill:#FFFFFF;}
	.st2{fill:#E9ECEB;}
	.st3{fill:#E2E2E2;}
	.st4{fill:none;stroke:#E2E2E2;stroke-width:1.4173;stroke-miterlimit:22.9256;}
	.st5{fill-rule:evenodd;clip-rule:evenodd;fill:#FFFFFF;}
	.st6{fill:none;stroke:#FFFEFF;stroke-width:2.8347;stroke-miterlimit:22.9256;}
	.st7{fill:none;stroke:#ECECEC;stroke-width:1.7007;stroke-miterlimit:22.9256;stroke-dasharray:3.4015,5.1022;}
	.st8{fill-rule:evenodd;clip-rule:evenodd;fill:#E61C21;stroke:#FFFEFF;stroke-width:1.9844;stroke-miterlimit:22.9256;}
	.st9{fill:#FFFEFF;}
	.st10{fill-rule:evenodd;clip-rule:evenodd;fill:#E2E2E2;}
	.st11{fill-rule:evenodd;clip-rule:evenodd;fill:none;stroke:#FFFEFF;stroke-width:1.9844;stroke-miterlimit:22.9256;}
	.st12{fill:#F3444E;}
	.st13{fill-rule:evenodd;clip-rule:evenodd;fill:#F3444E;}
	.st14{fill:none;stroke:#F3444E;stroke-width:1.4173;stroke-miterlimit:22.9256;}
	.st15{fill-rule:evenodd;clip-rule:evenodd;fill:#F3444E;stroke:#F3444E;stroke-width:1.4173;stroke-miterlimit:22.9256;}
	.st16{fill-rule:evenodd;clip-rule:evenodd;fill:#F3444E;stroke:#F3444E;stroke-width:0.5669;stroke-miterlimit:22.9256;}
	.st17{fill:#DC7D43;}
	.st18{fill:none;stroke:#201600;stroke-width:0.5669;stroke-miterlimit:22.9256;}
	.st19{fill:none;stroke:#201600;stroke-width:0.216;stroke-miterlimit:22.9256;}
	.st20{fill:none;stroke:#FFFFFF;stroke-width:1.4172;stroke-miterlimit:22.9256;}
	.st21{fill:none;stroke:#E2E2E2;stroke-width:1.4175;stroke-miterlimit:22.9256;}
	.st22{fill-rule:evenodd;clip-rule:evenodd;fill:#E2E2E2;stroke:#E2E2E2;stroke-width:1.4173;stroke-miterlimit:22.9256;}
	.st23{fill:none;stroke:#E2E2E2;stroke-width:1.4172;stroke-miterlimit:22.9256;}
	.st24{fill:none;stroke:#E2E2E2;stroke-width:1.4176;stroke-miterlimit:22.9256;}
	.st25{fill:none;stroke:#E2E2E2;stroke-width:1.4173;stroke-linecap:round;stroke-linejoin:round;stroke-miterlimit:10;}
	.st26{fill:none;stroke:#E2E2E2;stroke-width:1.3421;stroke-linecap:round;stroke-linejoin:round;stroke-miterlimit:10;}
	.st27{fill:none;stroke:#D24A43;stroke-width:1.4173;stroke-linejoin:round;stroke-miterlimit:10;}
	.st28{fill:none;stroke:#D24A43;stroke-width:1.4173;stroke-linejoin:round;stroke-miterlimit:22.9256;}
	.st29{fill:none;stroke:#D24A43;stroke-width:1.4173;stroke-linecap:round;stroke-linejoin:round;stroke-miterlimit:10;}
	.st30{fill:none;stroke:#D24A43;stroke-width:1.4173;stroke-miterlimit:22.9256;}
	.st31{fill-rule:evenodd;clip-rule:evenodd;fill:#E61C21;}
	.st32{fill:none;stroke:#FFFFFF;stroke-width:1.5487;stroke-linecap:round;stroke-linejoin:round;stroke-miterlimit:10;}
	.st33{fill:none;stroke:#FFFFFF;stroke-width:1.4017;stroke-linecap:round;stroke-linejoin:round;stroke-miterlimit:10;}
	.st34{fill:none;stroke:#FFFFFF;stroke-width:1.752;stroke-linecap:round;stroke-linejoin:round;stroke-miterlimit:10;}
	.st35{fill:none;stroke:#FFFFFF;stroke-width:1.7008;stroke-miterlimit:22.9256;}
	.st36{fill:none;stroke:#FFFFFF;stroke-width:1.5459;stroke-linecap:round;stroke-linejoin:round;stroke-miterlimit:10;}
	.st37{fill:none;stroke:#FFFFFF;stroke-width:1.4173;stroke-linecap:round;stroke-linejoin:round;stroke-miterlimit:10;}
	.st38{fill:none;stroke:#FFFFFF;stroke-width:1.5158;stroke-linecap:round;stroke-linejoin:round;stroke-miterlimit:10;}
	.st39{fill:none;stroke:#B6B8BD;stroke-width:1.4173;stroke-miterlimit:22.9256;}
	.st40{fill:none;stroke:#B6B8BD;stroke-width:1.4174;stroke-linecap:round;stroke-linejoin:round;stroke-miterlimit:10;}
	.st41{fill:none;stroke:#B6B8BD;stroke-width:1.5177;stroke-linecap:round;stroke-linejoin:round;stroke-miterlimit:10;}
	.st42{fill-rule:evenodd;clip-rule:evenodd;fill:none;stroke:#FFFFFF;stroke-width:0.7087;stroke-miterlimit:10;}
	.st43{fill-rule:evenodd;clip-rule:evenodd;fill:none;stroke:#FFFFFF;stroke-width:0.8504;stroke-miterlimit:10;}
	.st44{fill:none;stroke:#FFFFFF;stroke-width:0.9921;stroke-miterlimit:10;}
	.st45{fill-rule:evenodd;clip-rule:evenodd;fill:#FFFEFF;}
	.st46{fill:#E62A13;}
	.st47{fill:none;stroke:#E62A13;stroke-width:1.486;stroke-linecap:round;stroke-linejoin:round;stroke-miterlimit:10;}
	.st48{fill:none;stroke:#E62A13;stroke-width:1.4121;stroke-linecap:round;stroke-linejoin:round;stroke-miterlimit:10;}
	.st49{fill:none;stroke:#E62A13;stroke-width:1.4173;stroke-miterlimit:22.9256;}
	.st50{fill-rule:evenodd;clip-rule:evenodd;fill:#E62A13;}
	.st51{fill:none;stroke:#E61C21;stroke-width:1.4173;stroke-linecap:round;stroke-linejoin:round;stroke-miterlimit:10;}
	.st52{fill:none;stroke:#E61C21;stroke-width:1.4173;stroke-miterlimit:22.9256;}
	.st53{fill:none;stroke:#FFFFFF;stroke-width:1.4173;stroke-miterlimit:22.9256;}
	.st54{fill:none;stroke:#F1444C;stroke-width:1.4173;stroke-miterlimit:22.9256;}
	.st55{fill-rule:evenodd;clip-rule:evenodd;fill:#FF0000;}
	.st56{fill-rule:evenodd;clip-rule:evenodd;fill:#5C768B;}
	.st57{fill:#D24A43;}
	.st58{fill:none;stroke:#D24A43;stroke-width:2.8347;stroke-miterlimit:22.9256;}
	.st59{fill-rule:evenodd;clip-rule:evenodd;fill:#D24A43;}
	.st60{fill:none;stroke:#E41F1F;stroke-width:1.4173;stroke-miterlimit:22.9256;}
	.st61{fill:none;stroke:#E41F1F;stroke-width:2.8347;stroke-miterlimit:22.9256;}
	.st62{fill-rule:evenodd;clip-rule:evenodd;fill:#E20613;stroke:#E41F1F;stroke-width:0.216;stroke-miterlimit:22.9256;}
	.st63{fill:none;stroke:#E41F1F;stroke-width:1.8249;stroke-linecap:round;stroke-linejoin:round;stroke-miterlimit:10;}
	.st64{fill:none;stroke:#E41D23;stroke-width:1.4173;stroke-miterlimit:22.9256;}
	.st65{fill:none;stroke:#E41D23;stroke-width:1.4174;stroke-linecap:round;stroke-linejoin:round;stroke-miterlimit:10;}
	.st66{fill:#FFFEFF;stroke:#FFFFFF;stroke-width:0.5669;stroke-miterlimit:10;}
	.st67{fill:none;stroke:#FFFFFF;stroke-width:0.7087;stroke-miterlimit:10;}
</style>
<g>
	<path class="st47" d="M14.7,9h4.8L19,12h6.9c0,0,0.3-6-6.3-6c-6.6,0-3.2,0-3.2,0"/>
	<path class="st46" d="M14.4,17.7c0,0.4-0.3,0.8-0.8,0.8s-0.8-0.3-0.8-0.8c0-0.4,0.3-0.8,0.8-0.8S14.4,17.3,14.4,17.7L14.4,17.7z"/>
	<path class="st46" d="M16.9,17.7c0,0.4-0.3,0.8-0.8,0.8c-0.4,0-0.8-0.3-0.8-0.8c0-0.4,0.3-0.8,0.8-0.8
		C16.5,16.9,16.9,17.3,16.9,17.7L16.9,17.7z"/>
	<path class="st46" d="M19.3,17.7c0,0.4-0.3,0.8-0.8,0.8c-0.4,0-0.8-0.3-0.8-0.8c0-0.4,0.3-0.8,0.8-0.8C19,16.9,19.3,17.3,19.3,17.7
		L19.3,17.7z"/>
	<path class="st46" d="M14.4,20.2c0,0.4-0.3,0.8-0.8,0.8s-0.8-0.3-0.8-0.8c0-0.4,0.3-0.8,0.8-0.8S14.4,19.8,14.4,20.2L14.4,20.2z"/>
	<path class="st46" d="M16.9,20.2c0,0.4-0.3,0.8-0.8,0.8c-0.4,0-0.8-0.3-0.8-0.8c0-0.4,0.3-0.8,0.8-0.8
		C16.5,19.5,16.9,19.8,16.9,20.2L16.9,20.2z"/>
	<path class="st46" d="M19.3,20.2c0,0.4-0.3,0.8-0.8,0.8c-0.4,0-0.8-0.3-0.8-0.8c0-0.4,0.3-0.8,0.8-0.8C19,19.5,19.3,19.8,19.3,20.2
		L19.3,20.2z"/>
	<path class="st46" d="M14.4,22.7c0,0.4-0.3,0.8-0.8,0.8s-0.8-0.3-0.8-0.8c0-0.4,0.3-0.8,0.8-0.8S14.4,22.3,14.4,22.7L14.4,22.7z"/>
	<path class="st46" d="M16.9,22.7c0,0.4-0.3,0.8-0.8,0.8c-0.4,0-0.8-0.3-0.8-0.8c0-0.4,0.3-0.8,0.8-0.8C16.5,22,16.9,22.3,16.9,22.7
		L16.9,22.7z"/>
	<path class="st46" d="M19.3,22.7c0,0.4-0.3,0.8-0.8,0.8c-0.4,0-0.8-0.3-0.8-0.8c0-0.4,0.3-0.8,0.8-0.8C19,22,19.3,22.3,19.3,22.7
		L19.3,22.7z"/>
	<path class="st47" d="M15.3,9h-3l0.5,2.9H5.8c0,0-0.3-6,6.3-6c6.6,0,3.2,0,3.2,0 M25.9,21.3c0,2.5-2,4.5-4.5,4.5H10.2
		c-2.5,0-4.5-2-4.5-4.5v-2.2c0-2.5,2-4.5,4.5-4.5h11.2c2.5,0,4.5,2,4.5,4.5V21.3L25.9,21.3z"/>
</g>
</svg>
