<?xml version="1.0" encoding="utf-8"?>
<!-- Generator: Adobe Illustrator 18.1.1, SVG Export Plug-In . SVG Version: 6.00 Build 0)  -->
<svg version="1.1" id="Слой_1" xmlns="http://www.w3.org/2000/svg" xmlns:xlink="http://www.w3.org/1999/xlink" x="0px" y="0px"
	 viewBox="0 0 41.6 41.4" style="enable-background:new 0 0 41.6 41.4;" xml:space="preserve">
<style type="text/css">
	.st0{fill-rule:evenodd;clip-rule:evenodd;fill:#100F10;stroke:#201600;stroke-width:0.5669;stroke-miterlimit:22.9256;}
	.st1{fill:#FFFFFF;}
	.st2{fill:#E9ECEB;}
	.st3{fill:#E2E2E2;}
	.st4{fill:none;stroke:#E2E2E2;stroke-width:1.4173;stroke-miterlimit:22.9256;}
	.st5{fill-rule:evenodd;clip-rule:evenodd;fill:#FFFFFF;}
	.st6{fill:none;stroke:#FFFEFF;stroke-width:2.8347;stroke-miterlimit:22.9256;}
	.st7{fill:none;stroke:#ECECEC;stroke-width:1.7007;stroke-miterlimit:22.9256;stroke-dasharray:3.4015,5.1022;}
	.st8{fill-rule:evenodd;clip-rule:evenodd;fill:#E61C21;stroke:#FFFEFF;stroke-width:1.9844;stroke-miterlimit:22.9256;}
	.st9{fill:#FFFEFF;}
	.st10{fill-rule:evenodd;clip-rule:evenodd;fill:#E2E2E2;}
	.st11{fill-rule:evenodd;clip-rule:evenodd;fill:none;stroke:#FFFEFF;stroke-width:1.9844;stroke-miterlimit:22.9256;}
	.st12{fill:#F3444E;}
	.st13{fill-rule:evenodd;clip-rule:evenodd;fill:#F3444E;}
	.st14{fill:none;stroke:#F3444E;stroke-width:1.4173;stroke-miterlimit:22.9256;}
	.st15{fill-rule:evenodd;clip-rule:evenodd;fill:#F3444E;stroke:#F3444E;stroke-width:1.4173;stroke-miterlimit:22.9256;}
	.st16{fill-rule:evenodd;clip-rule:evenodd;fill:#F3444E;stroke:#F3444E;stroke-width:0.5669;stroke-miterlimit:22.9256;}
	.st17{fill:#DC7D43;}
	.st18{fill:none;stroke:#201600;stroke-width:0.5669;stroke-miterlimit:22.9256;}
	.st19{fill:none;stroke:#201600;stroke-width:0.216;stroke-miterlimit:22.9256;}
	.st20{fill:none;stroke:#FFFFFF;stroke-width:1.4172;stroke-miterlimit:22.9256;}
	.st21{fill:none;stroke:#E2E2E2;stroke-width:1.4175;stroke-miterlimit:22.9256;}
	.st22{fill-rule:evenodd;clip-rule:evenodd;fill:#E2E2E2;stroke:#E2E2E2;stroke-width:1.4173;stroke-miterlimit:22.9256;}
	.st23{fill:none;stroke:#E2E2E2;stroke-width:1.4172;stroke-miterlimit:22.9256;}
	.st24{fill:none;stroke:#E2E2E2;stroke-width:1.4176;stroke-miterlimit:22.9256;}
	.st25{fill:none;stroke:#E2E2E2;stroke-width:1.4173;stroke-linecap:round;stroke-linejoin:round;stroke-miterlimit:10;}
	.st26{fill:none;stroke:#E2E2E2;stroke-width:1.3421;stroke-linecap:round;stroke-linejoin:round;stroke-miterlimit:10;}
	.st27{fill:none;stroke:#D24A43;stroke-width:1.4173;stroke-linejoin:round;stroke-miterlimit:10;}
	.st28{fill:none;stroke:#D24A43;stroke-width:1.4173;stroke-linejoin:round;stroke-miterlimit:22.9256;}
	.st29{fill:none;stroke:#D24A43;stroke-width:1.4173;stroke-linecap:round;stroke-linejoin:round;stroke-miterlimit:10;}
	.st30{fill:none;stroke:#D24A43;stroke-width:1.4173;stroke-miterlimit:22.9256;}
	.st31{fill-rule:evenodd;clip-rule:evenodd;fill:#E61C21;}
	.st32{fill:none;stroke:#FFFFFF;stroke-width:1.5487;stroke-linecap:round;stroke-linejoin:round;stroke-miterlimit:10;}
	.st33{fill:none;stroke:#FFFFFF;stroke-width:1.4017;stroke-linecap:round;stroke-linejoin:round;stroke-miterlimit:10;}
	.st34{fill:none;stroke:#FFFFFF;stroke-width:1.752;stroke-linecap:round;stroke-linejoin:round;stroke-miterlimit:10;}
	.st35{fill:none;stroke:#FFFFFF;stroke-width:1.7008;stroke-miterlimit:22.9256;}
	.st36{fill:none;stroke:#FFFFFF;stroke-width:1.5459;stroke-linecap:round;stroke-linejoin:round;stroke-miterlimit:10;}
	.st37{fill:none;stroke:#FFFFFF;stroke-width:1.4173;stroke-linecap:round;stroke-linejoin:round;stroke-miterlimit:10;}
	.st38{fill:none;stroke:#FFFFFF;stroke-width:1.5158;stroke-linecap:round;stroke-linejoin:round;stroke-miterlimit:10;}
	.st39{fill:none;stroke:#B6B8BD;stroke-width:1.4173;stroke-miterlimit:22.9256;}
	.st40{fill:none;stroke:#B6B8BD;stroke-width:1.4174;stroke-linecap:round;stroke-linejoin:round;stroke-miterlimit:10;}
	.st41{fill:none;stroke:#B6B8BD;stroke-width:1.5177;stroke-linecap:round;stroke-linejoin:round;stroke-miterlimit:10;}
	.st42{fill-rule:evenodd;clip-rule:evenodd;fill:none;stroke:#FFFFFF;stroke-width:0.7087;stroke-miterlimit:10;}
	.st43{fill-rule:evenodd;clip-rule:evenodd;fill:none;stroke:#FFFFFF;stroke-width:0.8504;stroke-miterlimit:10;}
	.st44{fill:none;stroke:#FFFFFF;stroke-width:0.9921;stroke-miterlimit:10;}
	.st45{fill-rule:evenodd;clip-rule:evenodd;fill:#FFFEFF;}
	.st46{fill:#E62A13;}
	.st47{fill:none;stroke:#E62A13;stroke-width:1.486;stroke-linecap:round;stroke-linejoin:round;stroke-miterlimit:10;}
	.st48{fill:none;stroke:#E62A13;stroke-width:1.4121;stroke-linecap:round;stroke-linejoin:round;stroke-miterlimit:10;}
	.st49{fill:none;stroke:#E62A13;stroke-width:1.4173;stroke-miterlimit:22.9256;}
	.st50{fill-rule:evenodd;clip-rule:evenodd;fill:#E62A13;}
	.st51{fill:none;stroke:#E61C21;stroke-width:1.4173;stroke-linecap:round;stroke-linejoin:round;stroke-miterlimit:10;}
	.st52{fill:none;stroke:#E61C21;stroke-width:1.4173;stroke-miterlimit:22.9256;}
	.st53{fill:none;stroke:#FFFFFF;stroke-width:1.4173;stroke-miterlimit:22.9256;}
	.st54{fill:none;stroke:#F1444C;stroke-width:1.4173;stroke-miterlimit:22.9256;}
	.st55{fill-rule:evenodd;clip-rule:evenodd;fill:#FF0000;}
	.st56{fill-rule:evenodd;clip-rule:evenodd;fill:#5C768B;}
	.st57{fill:#D24A43;}
	.st58{fill:none;stroke:#D24A43;stroke-width:2.8347;stroke-miterlimit:22.9256;}
	.st59{fill-rule:evenodd;clip-rule:evenodd;fill:#D24A43;}
	.st60{fill-rule:evenodd;clip-rule:evenodd;fill:#F3444E;stroke:#F3444E;stroke-width:0.216;stroke-miterlimit:22.9256;}
	.st61{fill:none;stroke:#F3444E;stroke-width:2.8347;stroke-miterlimit:22.9256;}
	.st62{fill:none;stroke:#F3444E;stroke-width:1.8249;stroke-linecap:round;stroke-linejoin:round;stroke-miterlimit:10;}
	.st63{fill:none;stroke:#F3444E;stroke-width:1.4174;stroke-linecap:round;stroke-linejoin:round;stroke-miterlimit:10;}
	.st64{fill:#FFFEFF;stroke:#FFFFFF;stroke-width:0.5669;stroke-miterlimit:10;}
	.st65{fill:none;stroke:#FFFFFF;stroke-width:0.7087;stroke-miterlimit:10;}
	.st66{fill-rule:evenodd;clip-rule:evenodd;fill:#E8444C;}
	.st67{fill:none;stroke:#FFFFFF;stroke-width:3.5774;stroke-linecap:round;stroke-linejoin:round;stroke-miterlimit:10;}
	.st68{fill:none;stroke:#FFFFFF;stroke-width:2.647;stroke-linecap:round;stroke-linejoin:round;stroke-miterlimit:10;}
	.st69{fill:none;stroke:#FFFFFF;stroke-width:2.8347;stroke-miterlimit:22.9256;}
	.st70{fill:none;stroke:#FFFFFF;stroke-width:2.126;stroke-miterlimit:22.9256;}
	.st71{fill:none;stroke:#FFFFFF;stroke-width:3.8998;stroke-linecap:round;stroke-linejoin:round;stroke-miterlimit:10;}
</style>
<polygon class="st0" points="-1461,1482.8 -1461,-737.1 679.7,-737.1 679.7,1482.8 -1461,1482.8 "/>
<path class="st60" d="M11.1,39.6L9,42c-0.3,0.4-0.9,0.4-1.3,0.1l0,0c-0.4-0.3-0.4-0.9-0.1-1.3l2.1-2.4L11.1,39.6L11.1,39.6z"/>
<g>
	<path class="st14" d="M30.8,6.3c-7.5,9.1-15,18.2-22.5,27.4c-0.8,1.5-0.6,2.6,0.4,3.7c1.1,0.9,2.2,1.8,3.3,2.7
		c1.3,0.9,2.4,0.9,4-0.1c7.5-9.2,14.9-18.4,22.4-27.5c0.2-0.2,0.4-0.7-0.1-1.2l-5.9-4.7C31.7,5.9,31.5,5.5,30.8,6.3L30.8,6.3z"/>
	<line class="st61" x1="20.4" y1="19.6" x2="27.8" y2="25.6"/>
	<path class="st14" d="M38.4,11.9c4.8,4.2,2,11.6-1.9,15.5c-2.9,3.1-6.5,6.2-9.5,7.6 M33.5,7.3l2.2-2.8c0.3-0.3,0.7-0.4,1-0.1l2.4,2
		c0.3,0.3,0.4,0.7,0.1,1l-2.2,2.8L33.5,7.3L33.5,7.3z"/>
	<path class="st14" d="M8.1,8.1c-2.2,2.7-4.5,5.4-6.7,8.1c-0.9,1.3-1.1,2.7,0.1,4.1c1.8,1.6,3.6,3.2,5.3,4.8c1.5,1,2.7,1.2,4.6-0.2
		c5-5.9,9.3-11.3,14.3-17.1c0.9-1.3,1.2-2.6,0.5-3.5c-1-0.9-2.1-2.1-3.2-3.1c-0.9-0.8-2.7-0.9-4.1,0.3c-3.7,4.5-7.1,8.3-10.8,12.8
		c-0.5,0.7-0.7,1.4-0.1,2.1c0.7,0.6,1.5,1.2,2.2,1.8c0.9,0.7,1.4-0.1,2-0.8c2.3-2.7,4.7-5.4,7-8.2"/>
</g>
</svg>
