<?xml version="1.0" encoding="utf-8"?>
<!-- Generator: Adobe Illustrator 24.1.0, SVG Export Plug-In . SVG Version: 6.00 Build 0)  -->
<!DOCTYPE svg PUBLIC "-//W3C//DTD SVG 1.1//EN" "http://www.w3.org/Graphics/SVG/1.1/DTD/svg11.dtd" [
	<!ENTITY ns_extend "http://ns.adobe.com/Extensibility/1.0/">
	<!ENTITY ns_ai "http://ns.adobe.com/AdobeIllustrator/10.0/">
	<!ENTITY ns_graphs "http://ns.adobe.com/Graphs/1.0/">
	<!ENTITY ns_vars "http://ns.adobe.com/Variables/1.0/">
	<!ENTITY ns_imrep "http://ns.adobe.com/ImageReplacement/1.0/">
	<!ENTITY ns_sfw "http://ns.adobe.com/SaveForWeb/1.0/">
	<!ENTITY ns_custom "http://ns.adobe.com/GenericCustomNamespace/1.0/">
	<!ENTITY ns_adobe_xpath "http://ns.adobe.com/XPath/1.0/">
]>
<svg version="1.1" id="Слой_1" xmlns:x="&ns_extend;" xmlns:i="&ns_ai;" xmlns:graph="&ns_graphs;"
	 xmlns="http://www.w3.org/2000/svg" xmlns:xlink="http://www.w3.org/1999/xlink" x="0px" y="0px" viewBox="0 0 54.46 41.68"
	 style="enable-background:new 0 0 54.46 41.68;" xml:space="preserve">
<style type="text/css">
	.st0{fill-rule:evenodd;clip-rule:evenodd;fill:#100F10;stroke:#201600;stroke-width:0.5669;stroke-miterlimit:22.9256;}
	.st1{fill:#E9ECEB;}
	.st2{fill:#E2E2E2;}
	.st3{fill:none;stroke:#E2E2E2;stroke-width:1.4173;stroke-miterlimit:22.9256;}
	.st4{fill-rule:evenodd;clip-rule:evenodd;fill:#FFFFFF;}
	.st5{fill:#FFFFFF;}
	.st6{fill:none;stroke:#FFFEFF;stroke-width:2.8347;stroke-miterlimit:22.9256;}
	.st7{fill-rule:evenodd;clip-rule:evenodd;fill:#E2E2E2;}
	.st8{fill:#FFFEFF;}
	.st9{fill:none;stroke:#ECECEC;stroke-width:1.7007;stroke-miterlimit:22.9256;stroke-dasharray:3.4015,5.1022;}
	.st10{fill-rule:evenodd;clip-rule:evenodd;fill:#E61C21;stroke:#FFFEFF;stroke-width:1.9844;stroke-miterlimit:22.9256;}
	.st11{fill-rule:evenodd;clip-rule:evenodd;fill:#F3444E;}
	.st12{fill:none;stroke:#F3444E;stroke-width:1.4173;stroke-miterlimit:22.9256;}
	.st13{fill-rule:evenodd;clip-rule:evenodd;fill:#F3444E;stroke:#F3444E;stroke-width:1.4173;stroke-miterlimit:22.9256;}
	.st14{fill-rule:evenodd;clip-rule:evenodd;fill:#F3444E;stroke:#F3444E;stroke-width:0.5669;stroke-miterlimit:22.9256;}
	.st15{fill:#DC7D43;}
	.st16{fill:none;stroke:#201600;stroke-width:0.5669;stroke-miterlimit:22.9256;}
	.st17{fill:none;stroke:#201600;stroke-width:0.216;stroke-miterlimit:22.9256;}
	.st18{fill:none;stroke:#FFFFFF;stroke-width:1.4172;stroke-miterlimit:22.9256;}
	.st19{fill:none;stroke:#E2E2E2;stroke-width:1.4175;stroke-miterlimit:22.9256;}
	.st20{fill-rule:evenodd;clip-rule:evenodd;fill:#E2E2E2;stroke:#E2E2E2;stroke-width:1.4173;stroke-miterlimit:22.9256;}
	.st21{fill:none;stroke:#E2E2E2;stroke-width:1.4172;stroke-miterlimit:22.9256;}
	.st22{fill:none;stroke:#E2E2E2;stroke-width:1.4176;stroke-miterlimit:22.9256;}
	.st23{fill:none;stroke:#E2E2E2;stroke-width:1.4173;stroke-linecap:round;stroke-linejoin:round;stroke-miterlimit:10;}
	.st24{fill:none;stroke:#E2E2E2;stroke-width:1.3421;stroke-linecap:round;stroke-linejoin:round;stroke-miterlimit:10;}
	.st25{fill:none;stroke:#D24A43;stroke-width:1.4173;stroke-linejoin:round;stroke-miterlimit:10;}
	.st26{fill:none;stroke:#D24A43;stroke-width:1.4173;stroke-linejoin:round;stroke-miterlimit:22.9256;}
	.st27{fill:none;stroke:#D24A43;stroke-width:1.4173;stroke-linecap:round;stroke-linejoin:round;stroke-miterlimit:10;}
	.st28{fill:none;stroke:#D24A43;stroke-width:1.4173;stroke-miterlimit:22.9256;}
	.st29{fill-rule:evenodd;clip-rule:evenodd;fill:#E61C21;}
	.st30{fill:none;stroke:#FFFFFF;stroke-width:1.5487;stroke-linecap:round;stroke-linejoin:round;stroke-miterlimit:10;}
	.st31{fill:none;stroke:#FFFFFF;stroke-width:1.4017;stroke-linecap:round;stroke-linejoin:round;stroke-miterlimit:10;}
	.st32{fill:none;stroke:#FFFFFF;stroke-width:1.752;stroke-linecap:round;stroke-linejoin:round;stroke-miterlimit:10;}
	.st33{fill:none;stroke:#FFFFFF;stroke-width:1.7008;stroke-miterlimit:22.9256;}
	.st34{fill:none;stroke:#FFFFFF;stroke-width:1.5459;stroke-linecap:round;stroke-linejoin:round;stroke-miterlimit:10;}
	.st35{fill:none;stroke-width:1.4173;stroke-linecap:round;stroke-linejoin:round;stroke-miterlimit:10;}
	.st36{fill:none;stroke:#FFFFFF;stroke-width:1.5158;stroke-linecap:round;stroke-linejoin:round;stroke-miterlimit:10;}
	.st37{fill:none;stroke:#B6B8BD;stroke-width:1.4173;stroke-miterlimit:22.9256;}
	.st38{fill:none;stroke:#B6B8BD;stroke-width:1.4174;stroke-linecap:round;stroke-linejoin:round;stroke-miterlimit:10;}
	.st39{fill:none;stroke:#B6B8BD;stroke-width:1.5177;stroke-linecap:round;stroke-linejoin:round;stroke-miterlimit:10;}
	.st40{fill-rule:evenodd;clip-rule:evenodd;fill:#FFFEFF;}
	.st41{fill:#E62A13;}
	.st42{fill:none;stroke:#E62A13;stroke-width:1.486;stroke-linecap:round;stroke-linejoin:round;stroke-miterlimit:10;}
	.st43{fill:none;stroke:#E62A13;stroke-width:1.4121;stroke-linecap:round;stroke-linejoin:round;stroke-miterlimit:10;}
	.st44{fill:none;stroke:#E62A13;stroke-width:1.4173;stroke-miterlimit:22.9256;}
	.st45{fill-rule:evenodd;clip-rule:evenodd;fill:#E62A13;}
	.st46{fill:none;stroke:#E61C21;stroke-width:1.4173;stroke-linecap:round;stroke-linejoin:round;stroke-miterlimit:10;}
	.st47{fill:none;stroke:#E61C21;stroke-width:1.4173;stroke-miterlimit:22.9256;}
	.st48{fill:none;stroke:#FFFFFF;stroke-width:1.4173;stroke-miterlimit:22.9256;}
	.st49{fill:none;stroke:#F1444C;stroke-width:1.4173;stroke-miterlimit:22.9256;}
	.st50{fill-rule:evenodd;clip-rule:evenodd;fill:#FF0000;}
	.st51{fill-rule:evenodd;clip-rule:evenodd;fill:#5C768B;}
	.st52{fill:#D24A43;}
	.st53{fill:none;stroke:#D24A43;stroke-width:2.8347;stroke-miterlimit:22.9256;}
	.st54{fill-rule:evenodd;clip-rule:evenodd;fill:#D24A43;}
</style>
		<path class="st35" d="M28.71,9.85l-0.03,3.06c0,0.03,0.06,0,0.08,0c1.04,0.24,1.97,0.68,2.85,1.21c0.02,0.03,0.09-0.03,0.11-0.03
			l2.34-2.34c0.82-0.84,2.16-0.84,2.98,0c0.82,0.82,0.82,2.16,0,2.98l-2.32,2.32c-0.02,0-0.02,0.05-0.01,0.08
			c0.56,0.87,0.97,1.84,1.22,2.9c0.01,0.03,0.03,0.05,0.06,0.05h1.75 M40.35,20.44c0.51,0.32,0.89,0.82,0.98,1.42
			c0.18,1.29-0.82,2.42-2.09,2.42h-3.26c-0.03,0-0.05,0-0.06,0.03c-0.24,1.05-0.66,2.03-1.22,2.92c-0.02,0.03-0.01,0.05,0.01,0.08
			l2.32,2.32c0.89,0.87,0.82,2.37-0.23,3.16c-0.86,0.66-2.1,0.45-2.86-0.32l-2.22-2.21c-0.02-0.03-0.05-0.03-0.07,0
			c-0.88,0.53-1.85,0.92-2.89,1.16c-0.03,0-0.05,0.03-0.05,0.05v3.34c0,1.26-1.11,2.27-2.41,2.08c-0.33-0.05-0.62-0.18-0.87-0.37
			 M12.23,23.36c-0.29-0.42-0.44-0.95-0.36-1.5c0.15-1.05,1.17-1.79,2.25-1.79h3.29c0.03,0,0.05-0.03,0.06-0.05
			c0.23-1,0.63-1.95,1.15-2.79c0.01-0.03,0.01-0.05-0.01-0.08l-2.44-2.42c-0.82-0.82-0.82-2.16,0-2.98c0.82-0.84,2.16-0.84,2.98,0
			l2.41,2.4c0.02,0.03,0.26-0.08,0.29-0.11c0.85-0.53,1.59-0.82,2.6-1.08c0.03,0,0.01,0.03,0.01,0l0.04-3.42
			c0-1.26,1.11-2.27,2.41-2.08c0.33,0.03,0.62,0.16,0.87,0.34 M24.5,34.48v-3.06c0-0.03-0.02-0.05-0.05-0.05
			c-1.01-0.24-1.96-0.66-2.81-1.18c-0.02-0.03-0.05-0.03-0.07,0l-2.41,2.42c-0.89,0.9-2.39,0.82-3.18-0.24
			c-0.65-0.87-0.45-2.11,0.32-2.87l2.32-2.32c0.02-0.03,0.02-0.05,0.01-0.08c-0.52-0.84-0.91-1.79-1.15-2.79
			c-0.01-0.03-0.03-0.03-0.06-0.03h-3.12 M28.73,18.54c-0.63-0.37-1.35-0.58-2.13-0.58c-2.33,0-4.21,1.87-4.21,4.21
			c0,0.76,0.23,1.5,0.6,2.13 M30.22,20.04c0.37,0.63,0.6,1.34,0.6,2.13c0,2.32-1.89,4.21-4.21,4.21c-0.78,0-1.5-0.24-2.13-0.61"/>
</svg>
