<?xml version="1.0" encoding="utf-8"?>
<!-- Generator: Adobe Illustrator 24.1.0, SVG Export Plug-In . SVG Version: 6.00 Build 0)  -->
<svg version="1.1" id="Слой_1" xmlns="http://www.w3.org/2000/svg" xmlns:xlink="http://www.w3.org/1999/xlink" x="0px" y="0px"
	 viewBox="0 0 154.5 153.9" style="enable-background:new 0 0 154.5 153.9;" xml:space="preserve">
<style type="text/css">
	.st0{fill-rule:evenodd;clip-rule:evenodd;fill:#100F10;stroke:#201600;stroke-width:0.5669;stroke-miterlimit:22.9256;}
	.st1{fill:#E9ECEB;}
	.st2{fill:#E2E2E2;}
	.st3{fill:none;stroke:#E2E2E2;stroke-width:1.4173;stroke-miterlimit:22.9256;}
	.st4{fill-rule:evenodd;clip-rule:evenodd;fill:#FFFFFF;}
	.st5{fill:#FFFFFF;}
	.st6{fill:none;stroke:#FFFEFF;stroke-width:2.8347;stroke-miterlimit:22.9256;}
	.st7{fill:none;stroke:#ECECEC;stroke-width:1.7007;stroke-miterlimit:22.9256;stroke-dasharray:3.4015,5.1022;}
	.st8{fill-rule:evenodd;clip-rule:evenodd;fill:#E61C21;stroke:#FFFEFF;stroke-width:1.9844;stroke-miterlimit:22.9256;}
	.st9{fill:#FFFEFF;}
	.st10{fill-rule:evenodd;clip-rule:evenodd;fill:#E2E2E2;}
	.st11{fill-rule:evenodd;clip-rule:evenodd;fill:none;stroke:#FFFEFF;stroke-width:1.9844;stroke-miterlimit:22.9256;}
	.st12{fill:#F3444E;}
	.st13{fill-rule:evenodd;clip-rule:evenodd;fill:#F3444E;}
	.st14{fill:none;stroke:#F3444E;stroke-width:1.4173;stroke-miterlimit:22.9256;}
	.st15{fill-rule:evenodd;clip-rule:evenodd;fill:#F3444E;stroke:#F3444E;stroke-width:1.4173;stroke-miterlimit:22.9256;}
	.st16{fill-rule:evenodd;clip-rule:evenodd;fill:#F3444E;stroke:#F3444E;stroke-width:0.5669;stroke-miterlimit:22.9256;}
	.st17{fill:#DC7D43;}
	.st18{fill:none;stroke:#201600;stroke-width:0.5669;stroke-miterlimit:22.9256;}
	.st19{fill:none;stroke:#201600;stroke-width:0.216;stroke-miterlimit:22.9256;}
	.st20{fill:none;stroke:#FFFFFF;stroke-width:1.4172;stroke-miterlimit:22.9256;}
	.st21{fill:none;stroke:#E2E2E2;stroke-width:1.4175;stroke-miterlimit:22.9256;}
	.st22{fill-rule:evenodd;clip-rule:evenodd;fill:#E2E2E2;stroke:#E2E2E2;stroke-width:1.4173;stroke-miterlimit:22.9256;}
	.st23{fill:none;stroke:#E2E2E2;stroke-width:1.4172;stroke-miterlimit:22.9256;}
	.st24{fill:none;stroke:#E2E2E2;stroke-width:1.4176;stroke-miterlimit:22.9256;}
	.st25{fill:none;stroke:#E2E2E2;stroke-width:1.4173;stroke-linecap:round;stroke-linejoin:round;stroke-miterlimit:10;}
	.st26{fill:none;stroke:#E2E2E2;stroke-width:1.3421;stroke-linecap:round;stroke-linejoin:round;stroke-miterlimit:10;}
	.st27{fill:none;stroke:#D24A43;stroke-width:1.4173;stroke-linejoin:round;stroke-miterlimit:10;}
	.st28{fill:none;stroke:#D24A43;stroke-width:1.4173;stroke-linejoin:round;stroke-miterlimit:22.9256;}
	.st29{fill:none;stroke:#D24A43;stroke-width:1.4173;stroke-linecap:round;stroke-linejoin:round;stroke-miterlimit:10;}
	.st30{fill:none;stroke:#D24A43;stroke-width:1.4173;stroke-miterlimit:22.9256;}
	.st31{fill-rule:evenodd;clip-rule:evenodd;fill:#E61C21;}
	.st32{fill:none;stroke:#FFFFFF;stroke-width:1.5487;stroke-linecap:round;stroke-linejoin:round;stroke-miterlimit:10;}
	.st33{fill:none;stroke:#FFFFFF;stroke-width:1.4017;stroke-linecap:round;stroke-linejoin:round;stroke-miterlimit:10;}
	.st34{fill:none;stroke:#FFFFFF;stroke-width:1.752;stroke-linecap:round;stroke-linejoin:round;stroke-miterlimit:10;}
	.st35{fill:none;stroke:#FFFFFF;stroke-width:1.7008;stroke-miterlimit:22.9256;}
	.st36{fill:none;stroke:#FFFFFF;stroke-width:1.5459;stroke-linecap:round;stroke-linejoin:round;stroke-miterlimit:10;}
	.st37{fill:none;stroke:#FFFFFF;stroke-width:1.4173;stroke-linecap:round;stroke-linejoin:round;stroke-miterlimit:10;}
	.st38{fill:none;stroke:#FFFFFF;stroke-width:1.5158;stroke-linecap:round;stroke-linejoin:round;stroke-miterlimit:10;}
	.st39{fill:none;stroke:#B6B8BD;stroke-width:1.4173;stroke-miterlimit:22.9256;}
	.st40{fill:none;stroke:#B6B8BD;stroke-width:1.4174;stroke-linecap:round;stroke-linejoin:round;stroke-miterlimit:10;}
	.st41{fill:none;stroke:#B6B8BD;stroke-width:1.5177;stroke-linecap:round;stroke-linejoin:round;stroke-miterlimit:10;}
	.st42{fill-rule:evenodd;clip-rule:evenodd;fill:#FFFEFF;}
	.st43{fill:#E62A13;}
	.st44{fill:none;stroke:#E62A13;stroke-width:1.486;stroke-linecap:round;stroke-linejoin:round;stroke-miterlimit:10;}
	.st45{fill:none;stroke:#E62A13;stroke-width:1.4121;stroke-linecap:round;stroke-linejoin:round;stroke-miterlimit:10;}
	.st46{fill:none;stroke:#E62A13;stroke-width:1.4173;stroke-miterlimit:22.9256;}
	.st47{fill-rule:evenodd;clip-rule:evenodd;fill:#E62A13;}
	.st48{fill:none;stroke:#E61C21;stroke-width:1.4173;stroke-linecap:round;stroke-linejoin:round;stroke-miterlimit:10;}
	.st49{fill:none;stroke:#E61C21;stroke-width:1.4173;stroke-miterlimit:22.9256;}
	.st50{fill:none;stroke:#FFFFFF;stroke-width:1.4173;stroke-miterlimit:22.9256;}
	.st51{fill:none;stroke:#F1444C;stroke-width:1.4173;stroke-miterlimit:22.9256;}
	.st52{fill-rule:evenodd;clip-rule:evenodd;fill:#FF0000;}
	.st53{fill-rule:evenodd;clip-rule:evenodd;fill:#5C768B;}
	.st54{fill:#D24A43;}
	.st55{fill:none;stroke:#D24A43;stroke-width:2.8347;stroke-miterlimit:22.9256;}
	.st56{fill-rule:evenodd;clip-rule:evenodd;fill:#D24A43;}
</style>
<polygon class="st0" points="-212.4,1620.8 -212.4,-599.1 1928.3,-599.1 1928.3,1620.8 -212.4,1620.8 "/>
<g>
	<g>
		<polyline class="st7" points="60.1,23.2 153.6,23.2 153.6,153 23.1,153 23.1,57.6 		"/>
		<path class="st11" d="M1.6,21.7L21.7,1.6c0.8-0.8,2.1-0.8,2.8,0l20.3,20.3c0.8,0.8,0.8,2.1,0,2.8L24.7,44.9
			c-0.8,0.8-2.1,0.8-2.8,0L1.6,24.6C0.8,23.8,0.8,22.5,1.6,21.7L1.6,21.7z"/>
		<path class="st12" d="M28.6,31.9H18.6v-2.3l4.6-5.9c0.6-0.8,1-1.5,1.3-2.1c0.3-0.6,0.4-1.2,0.4-1.8c0-0.8-0.1-1.4-0.4-1.8
			c-0.3-0.4-0.6-0.6-1.1-0.6c-0.5,0-1,0.3-1.3,0.8c-0.3,0.5-0.5,1.2-0.5,2.1h-3.3c0-1,0.2-2,0.7-2.9c0.4-0.9,1-1.5,1.8-2
			c0.8-0.5,1.7-0.7,2.7-0.7c1.5,0,2.7,0.4,3.5,1.3c0.8,0.8,1.3,2,1.3,3.6c0,1-0.2,1.9-0.7,2.9c-0.5,1-1.3,2.2-2.5,3.7l-2.2,3.1h5.8
			V31.9L28.6,31.9z"/>
	</g>
	<g>
		<path class="st14" d="M62.1,30.1h54.1c1.3,0,2.3,1,2.3,2.3v14.4c0,1.3-1,2.3-2.3,2.3H62.1c-1.3,0-2.3-1-2.3-2.3V32.4
			C59.7,31.2,60.8,30.1,62.1,30.1L62.1,30.1z M68.1,52.2h5.3c0.3,0,0.6,0.3,0.6,0.6v17.9c0,0.3-0.3,0.6-0.6,0.6h-5.3
			c-0.3,0-0.6-0.3-0.6-0.6V52.8C67.4,52.5,67.7,52.2,68.1,52.2L68.1,52.2z M79.8,52.2h26.6c0.4,0,0.7,0.3,0.7,0.7v17.7
			c0,0.4-0.3,0.7-0.7,0.7H79.8c-0.4,0-0.7-0.3-0.7-0.7V52.9C79,52.5,79.3,52.2,79.8,52.2L79.8,52.2z M109.7,52.2L109.7,52.2
			c0.1,0,0.2,0.1,0.2,0.2v18.8c0,0.1-0.1,0.2-0.2,0.2h0c-0.1,0-0.2-0.1-0.2-0.2V52.4C109.5,52.3,109.6,52.2,109.7,52.2L109.7,52.2z
			 M68.5,73.6c1.8,0,3.7,0,5.5,0c0.8,0,0.6,0,1,0.7c0.6,1.2,1.3,2.4,1.9,3.7c0.5,0.9,0.4,0.7-0.8,0.7c-1,0-1.9,0-2.9,0
			c-1,0-0.8,0.1-1.5-0.7c-1.2-1.2-2.4-2.4-3.6-3.6C67.3,73.5,67.2,73.6,68.5,73.6L68.5,73.6z M80.3,73.6c7.9,0,15.7,0,23.6,0
			c1.3,0,1.3-0.2,0.4,0.8c-1,1.1-1.9,2.2-2.9,3.3c-0.8,1-1.2,1-2.5,1c-6,0-11.3,0-17.1,0c-1.1,0-1.2-0.2-1.4-0.7
			c-0.3-1.2-0.5-2.3-0.8-3.5C79.3,73.5,79.2,73.6,80.3,73.6L80.3,73.6z M108.6,73.6c0.4,0,0.7,0,1.1,0c0.9,0,0.8-0.1,0.2,0.6
			c-1.2,1.4-2.5,2.7-3.7,4.1c-0.4,0.5-0.3,0.4-0.9,0.4c-0.3,0-0.6,0-0.9,0c-0.8,0-0.7,0.1-0.2-0.5c1.2-1.4,2.3-2.7,3.5-4.1
			C108.1,73.6,108,73.6,108.6,73.6L108.6,73.6z M73.4,81.1h31.3c0.5,0,0.8,0.4,0.8,0.8v1.9c0,0.5-0.4,0.8-0.8,0.8H73.4
			c-0.5,0-0.8-0.4-0.8-0.8v-1.9C72.6,81.5,73,81.1,73.4,81.1L73.4,81.1z M73.5,87.8c10.5,0,20.8,0,31.3,0c0.5,0,0.4,0.7,0,1
			c-3.4,2.2-6.8,4.5-10.1,6.7c-1.2,0.8-1,0.9-2.5,0.9h-6.2c-1.3,0-1.4-0.1-2.5-0.8c-3.4-2.2-6.4-4.3-9.8-6.5
			C73,88.8,73,87.8,73.5,87.8L73.5,87.8z M84.3,99.1c0,0.9,0,1.8,0,2.7c0,0.5,0.1,0.5-0.4,0.5c-0.1,0-0.3,0-0.4,0
			c-0.4,0-0.4,0.4-0.4,1.1c0,0.8,0,1.7,0,2.5c0,1.1-0.1,0.9,0.5,1.8c1,1.6,2.1,3.2,3.1,4.8c0.7,1.1,0.4,1,1.6,1c0.5,0,1,0,1.6,0
			c1.2,0,0.9,0.1,1.5-1c0.9-1.5,1.7-2.9,2.6-4.4c0.6-1.1,0.6-0.9,0.6-2.2c0-1,0-2,0-3c0-0.6,0.1-0.5-0.4-0.5c-0.6,0-0.4,0.1-0.4-0.5
			v-2.6L84.3,99.1L84.3,99.1z"/>
		<path class="st15" d="M88,115.6h2.4c0.4,0,0.7,0.3,0.7,0.7v1.2l-3.8,2.2v-3.4C87.3,115.9,87.6,115.6,88,115.6L88,115.6z
			 M91.1,120.8v2.9l-3.8,2.2V123L91.1,120.8L91.1,120.8z M91.1,126.9v2.8l-3.8,2.2v-2.8L91.1,126.9L91.1,126.9z M91.1,133v4.7
			l-3.8,2.6v-5.1L91.1,133L91.1,133z"/>
		<path class="st13" d="M110.2,68.5h1.7v2.1h-1.7V68.5L110.2,68.5z M110.2,62.8h1.7v4.7h-1.7V62.8L110.2,62.8z M110.2,59.7h1.7v2.1
			h-1.7V59.7L110.2,59.7z"/>
		<path class="st13" d="M112.5,67h1.7v1.2h-1.7V67L112.5,67z M112.5,62.1h1.7v1.2h-1.7V62.1L112.5,62.1z M112.5,63.9h1.7v2.6h-1.7
			V63.9L112.5,63.9z"/>
		<path class="st14" d="M114.2,63.1c2.6,0.4,5.3,0.5,7.5-0.4c2.2-0.8,4.3-2.6,6.4-5.6c1.9-4.1,1.9-8.1,1.9-12c0-5.3,0-10.5,3.9-16.1
			l3.2,2.2c-3.1,4.7-3.1,9.2-3.1,13.9c0,4.4,0,8.9-2.3,13.8l0,0.1l-0.1,0.2c-2.6,3.9-5.4,6.1-8.4,7.3c-3,1.1-5.8,1.2-8.9,0.7V63.1
			L114.2,63.1z"/>
		<path class="st13" d="M79.7,146.8c0.9-1.3,1.9-2.4,2.8-4c0.9-1.6,0.8-4.1,0.3-5.1c-2.2-3.1-7-2.4-8,0.4c-0.7,2.7-0.3,4.2,3,5.9
			l-4,0.9c-2.8-2.2-4.2-3.8-2.7-7c-2.6,3.3-0.9,5.5,1.4,7.3l-0.8,0.2c-0.9-0.4-1.8-1.2-2.4-2.6c-2.6-5.7,8.2-11.2,13.2-6.6
			c0.5,0.5,0.9,1.2,1.2,2.4C84.3,141.8,83,143,79.7,146.8L79.7,146.8z"/>
		<path class="st13" d="M95.5,137.7c1.2-4.3,4.1-5.6,6.7-4.2c2.4,1.4,3.1,2.8,2.1,6.2l3.4-2c0.4-3.4,0.2-5.5-3-6.9
			c4.1,0.7,4.4,3.3,4.1,6.2l0.6-0.4c0.3-0.9,0.3-2.1-0.2-3.4c-2.1-5.5-8-4.6-11.7-1.4c-3,2.7-2.8,6.4-2.4,8.7l0.1,0
			C95.1,140.1,95.2,138.6,95.5,137.7L95.5,137.7z"/>
		<path class="st14" d="M92.1,145.2c-0.3-4.4,2.1-7.7,6-8.8c2.1-0.7,3.9,0.8,3.8,2.8c-0.3,3.9-4.9,3-4.9,0.3 M89.3,148.6
			c0.2-3.6-1.9-6.2-5.2-7.2c-1.8-0.6-3.4,0.6-3.3,2.3c0.2,3.2,4.3,2.4,4.3,0.3"/>
	</g>
</g>
</svg>
