<?xml version="1.0" encoding="utf-8"?>
<!-- Generator: Adobe Illustrator 24.1.0, SVG Export Plug-In . SVG Version: 6.00 Build 0)  -->
<svg version="1.1" id="Слой_1" xmlns="http://www.w3.org/2000/svg" xmlns:xlink="http://www.w3.org/1999/xlink" x="0px" y="0px"
	 viewBox="0 0 154.5 153.9" style="enable-background:new 0 0 154.5 153.9;" xml:space="preserve">
<style type="text/css">
	.st0{fill-rule:evenodd;clip-rule:evenodd;fill:#100F10;stroke:#201600;stroke-width:0.5669;stroke-miterlimit:22.9256;}
	.st1{fill:#E9ECEB;}
	.st2{fill:#E2E2E2;}
	.st3{fill:none;stroke:#E2E2E2;stroke-width:1.4173;stroke-miterlimit:22.9256;}
	.st4{fill-rule:evenodd;clip-rule:evenodd;fill:#FFFFFF;}
	.st5{fill:#FFFFFF;}
	.st6{fill:none;stroke:#FFFEFF;stroke-width:2.8347;stroke-miterlimit:22.9256;}
	.st7{fill:none;stroke:#ECECEC;stroke-width:1.7007;stroke-miterlimit:22.9256;stroke-dasharray:3.4015,5.1022;}
	.st8{fill-rule:evenodd;clip-rule:evenodd;fill:#E61C21;stroke:#FFFEFF;stroke-width:1.9844;stroke-miterlimit:22.9256;}
	.st9{fill:#FFFEFF;}
	.st10{fill-rule:evenodd;clip-rule:evenodd;fill:#E2E2E2;}
	.st11{fill-rule:evenodd;clip-rule:evenodd;fill:none;stroke:#FFFEFF;stroke-width:1.9844;stroke-miterlimit:22.9256;}
	.st12{fill:#F3444E;}
	.st13{fill-rule:evenodd;clip-rule:evenodd;fill:#F3444E;}
	.st14{fill:none;stroke:#F3444E;stroke-width:1.4173;stroke-miterlimit:22.9256;}
	.st15{fill-rule:evenodd;clip-rule:evenodd;fill:#F3444E;stroke:#F3444E;stroke-width:1.4173;stroke-miterlimit:22.9256;}
	.st16{fill-rule:evenodd;clip-rule:evenodd;fill:#F3444E;stroke:#F3444E;stroke-width:0.5669;stroke-miterlimit:22.9256;}
	.st17{fill:#DC7D43;}
	.st18{fill:none;stroke:#201600;stroke-width:0.5669;stroke-miterlimit:22.9256;}
	.st19{fill:none;stroke:#201600;stroke-width:0.216;stroke-miterlimit:22.9256;}
	.st20{fill:none;stroke:#FFFFFF;stroke-width:1.4172;stroke-miterlimit:22.9256;}
	.st21{fill:none;stroke:#E2E2E2;stroke-width:1.4175;stroke-miterlimit:22.9256;}
	.st22{fill-rule:evenodd;clip-rule:evenodd;fill:#E2E2E2;stroke:#E2E2E2;stroke-width:1.4173;stroke-miterlimit:22.9256;}
	.st23{fill:none;stroke:#E2E2E2;stroke-width:1.4172;stroke-miterlimit:22.9256;}
	.st24{fill:none;stroke:#E2E2E2;stroke-width:1.4176;stroke-miterlimit:22.9256;}
	.st25{fill:none;stroke:#E2E2E2;stroke-width:1.4173;stroke-linecap:round;stroke-linejoin:round;stroke-miterlimit:10;}
	.st26{fill:none;stroke:#E2E2E2;stroke-width:1.3421;stroke-linecap:round;stroke-linejoin:round;stroke-miterlimit:10;}
	.st27{fill:none;stroke:#D24A43;stroke-width:1.4173;stroke-linejoin:round;stroke-miterlimit:10;}
	.st28{fill:none;stroke:#D24A43;stroke-width:1.4173;stroke-linejoin:round;stroke-miterlimit:22.9256;}
	.st29{fill:none;stroke:#D24A43;stroke-width:1.4173;stroke-linecap:round;stroke-linejoin:round;stroke-miterlimit:10;}
	.st30{fill:none;stroke:#D24A43;stroke-width:1.4173;stroke-miterlimit:22.9256;}
	.st31{fill-rule:evenodd;clip-rule:evenodd;fill:#E61C21;}
	.st32{fill:none;stroke:#FFFFFF;stroke-width:1.5487;stroke-linecap:round;stroke-linejoin:round;stroke-miterlimit:10;}
	.st33{fill:none;stroke:#FFFFFF;stroke-width:1.4017;stroke-linecap:round;stroke-linejoin:round;stroke-miterlimit:10;}
	.st34{fill:none;stroke:#FFFFFF;stroke-width:1.752;stroke-linecap:round;stroke-linejoin:round;stroke-miterlimit:10;}
	.st35{fill:none;stroke:#FFFFFF;stroke-width:1.7008;stroke-miterlimit:22.9256;}
	.st36{fill:none;stroke:#FFFFFF;stroke-width:1.5459;stroke-linecap:round;stroke-linejoin:round;stroke-miterlimit:10;}
	.st37{fill:none;stroke:#FFFFFF;stroke-width:1.4173;stroke-linecap:round;stroke-linejoin:round;stroke-miterlimit:10;}
	.st38{fill:none;stroke:#FFFFFF;stroke-width:1.5158;stroke-linecap:round;stroke-linejoin:round;stroke-miterlimit:10;}
	.st39{fill:none;stroke:#B6B8BD;stroke-width:1.4173;stroke-miterlimit:22.9256;}
	.st40{fill:none;stroke:#B6B8BD;stroke-width:1.4174;stroke-linecap:round;stroke-linejoin:round;stroke-miterlimit:10;}
	.st41{fill:none;stroke:#B6B8BD;stroke-width:1.5177;stroke-linecap:round;stroke-linejoin:round;stroke-miterlimit:10;}
	.st42{fill-rule:evenodd;clip-rule:evenodd;fill:#FFFEFF;}
	.st43{fill:#E62A13;}
	.st44{fill:none;stroke:#E62A13;stroke-width:1.486;stroke-linecap:round;stroke-linejoin:round;stroke-miterlimit:10;}
	.st45{fill:none;stroke:#E62A13;stroke-width:1.4121;stroke-linecap:round;stroke-linejoin:round;stroke-miterlimit:10;}
	.st46{fill:none;stroke:#E62A13;stroke-width:1.4173;stroke-miterlimit:22.9256;}
	.st47{fill-rule:evenodd;clip-rule:evenodd;fill:#E62A13;}
	.st48{fill:none;stroke:#E61C21;stroke-width:1.4173;stroke-linecap:round;stroke-linejoin:round;stroke-miterlimit:10;}
	.st49{fill:none;stroke:#E61C21;stroke-width:1.4173;stroke-miterlimit:22.9256;}
	.st50{fill:none;stroke:#FFFFFF;stroke-width:1.4173;stroke-miterlimit:22.9256;}
	.st51{fill:none;stroke:#F1444C;stroke-width:1.4173;stroke-miterlimit:22.9256;}
	.st52{fill-rule:evenodd;clip-rule:evenodd;fill:#FF0000;}
	.st53{fill-rule:evenodd;clip-rule:evenodd;fill:#5C768B;}
	.st54{fill:#D24A43;}
	.st55{fill:none;stroke:#D24A43;stroke-width:2.8347;stroke-miterlimit:22.9256;}
	.st56{fill-rule:evenodd;clip-rule:evenodd;fill:#D24A43;}
</style>
<polygon class="st0" points="-17.2,1653.2 -17.2,-566.6 2123.6,-566.6 2123.6,1653.2 -17.2,1653.2 "/>
<g>
	<polyline class="st7" points="60.1,23.2 153.6,23.2 153.6,153 23.1,153 23.1,57.6 	"/>
	<path class="st11" d="M1.6,21.7L21.7,1.6c0.8-0.8,2.1-0.8,2.8,0l20.3,20.3c0.8,0.8,0.8,2.1,0,2.8L24.7,44.9c-0.8,0.8-2.1,0.8-2.8,0
		L1.6,24.6C0.8,23.8,0.8,22.5,1.6,21.7L1.6,21.7z"/>
	<polygon class="st12" points="25.9,31.9 22.6,31.9 22.6,18.8 19.3,20.1 19.3,17.3 25.5,14.8 25.9,14.8 25.9,31.9 	"/>
	<g>
		<polygon class="st13" points="57.7,26.6 112.4,26.6 112.4,29.2 117.2,29.2 117.2,32.2 53.5,32.2 53.5,29.2 57.7,29.2 57.7,26.6 		
			"/>
		<path class="st13" d="M53.4,32.2l-2.2,2.1l0,3.6l2.2,1.9h2.2v-7.6H53.4L53.4,32.2z M56.7,39.8h1.7v-7.6h-1.7V39.8L56.7,39.8z
			 M59.4,39.8h1.7v-7.6h-1.7V39.8L59.4,39.8z M62.2,39.8h1.7v-7.6h-1.7V39.8L62.2,39.8z M64.9,39.8h1.7v-7.6h-1.7V39.8L64.9,39.8z
			 M67.7,39.8h1.7v-7.6h-1.7V39.8L67.7,39.8z M70.4,39.8h1.7v-7.6h-1.7V39.8L70.4,39.8z M73.2,39.8h1.7v-7.6h-1.7V39.8L73.2,39.8z
			 M76,39.8h1.7v-7.6H76V39.8L76,39.8z M78.7,39.8h1.7v-7.6h-1.7V39.8L78.7,39.8z M81.5,39.8h1.7v-7.6h-1.7V39.8L81.5,39.8z
			 M84.2,39.8h1.7v-7.6h-1.7V39.8L84.2,39.8z M87,39.8h1.7v-7.6H87V39.8L87,39.8z M89.7,39.8h1.7v-7.6h-1.7V39.8L89.7,39.8z
			 M92.5,39.8h1.7v-7.6h-1.7V39.8L92.5,39.8z M95.2,39.8h1.7v-7.6h-1.7V39.8L95.2,39.8z M98,39.8h1.7v-7.6H98V39.8L98,39.8z
			 M100.7,39.8h1.7v-7.6h-1.7V39.8L100.7,39.8z M103.5,39.8h1.7v-7.6h-1.7V39.8L103.5,39.8z M106.3,39.8h1.7v-7.6h-1.7V39.8
			L106.3,39.8z M109,39.8h1.7v-7.6H109V39.8L109,39.8z M111.8,39.8h1.7v-7.6h-1.7V39.8L111.8,39.8z M114.5,39.8h0.9l2.2-2.3l0-3.2
			l-2.2-2.1h-0.9V39.8L114.5,39.8z"/>
		<path class="st14" d="M55.9,43.6l1.7,2h4.6l0.6,4.6l1.5,7.8h41.6l1.6-7.8l0.4-4.6h4.1l2-2h1.4v-3H54.6v3H55.9L55.9,43.6z
			 M67.8,94.7h34.6c0.4,0,0.7,0.3,0.7,0.7v4c0,0.4-0.3,0.7-0.7,0.7c-1.4,0-1.9,0.7-1.9,2.2c0,0.3-0.2,0.5-0.5,0.5H70.1
			c-0.3,0-0.5-0.2-0.5-0.5c0-1.5-0.5-2.2-1.9-2.2c-0.4,0-0.7-0.3-0.7-0.7v-4C67.1,95,67.4,94.7,67.8,94.7L67.8,94.7z M70.7,104.7
			c0.9,1.9,2.8,4.3,5,4.4c1.7,0,1.4-0.2,1.4,1.6c0,1.1-0.2,1,0.9,1c0.3,0,0.7,0,1,0c1.2,0,0.9-0.1,0.9,1.1c0,0.9,0,1.9,0,2.8
			c0,0.5,0.1,0.5-0.4,0.5c-0.1,0-0.3,0-0.4,0c-0.5,0-0.4,0.4-0.4,1.1c0,0.9,0,1.8,0,2.6c0,1.1-0.1,0.9,0.5,1.9
			c1.1,1.7,2.2,3.3,3.3,5c0.7,1.1,0.4,1,1.7,1c0.5,0,1.1,0,1.6,0c1.2,0,0.9,0.1,1.6-1c0.9-1.5,1.8-3.1,2.7-4.6
			c0.7-1.1,0.7-0.9,0.7-2.2c0-1.1,0-2.1,0-3.2c0-0.6,0.1-0.6-0.4-0.6c-0.6,0-0.4,0.1-0.4-0.6c0-0.9,0-1.8,0-2.8
			c0-1.3-0.2-1.1,1.2-1.1c1.9,0,1.9,0.1,1.9-1.7c0-1.1-0.2-0.9,0.9-0.9c0.3,0,0.7,0,1,0c2.2-0.6,3.4-2.5,4.4-4.4
			C89.7,104.7,80.2,104.7,70.7,104.7L70.7,104.7z M71.5,60.4h27c0.4,0,0.8,0.4,0.8,0.8c0,0.4,0,0.8,0,1.2c0,1.7-0.4,0.7-1.4,2.1
			c-1.5,2.4-2.2,5.1-2.1,7.9c0,2.3,0.3,2.2-2,2.2H71.5c-0.4,0-0.8-0.4-0.8-0.8V61.1C70.7,60.7,71.1,60.4,71.5,60.4L71.5,60.4z
			 M70.4,76.9h25.1c1.2,0,1.3,0,1.6,1.2c0.3,1.3,0.8,2.6,2.1,2.6c0.2,0,0.4,0,0.6,0c0.6,0,1,0.7,1,1.5v3.3c0,0.7-0.5,1.2-1.2,1.2
			h-0.6V88h1.1c0.3,0,0.6,0.3,0.6,0.6v0.7c0,0.3-0.3,0.6-0.6,0.6h-1.1v0.6h1.1c0.3,0,0.6,0.3,0.6,0.6v0.7c0,0.3-0.3,0.6-0.6,0.6
			h-1.1v0.8H71.2v-0.8h-1.3c-0.3,0-0.6-0.3-0.6-0.6v-0.7c0-0.3,0.3-0.6,0.6-0.6h1.3V90h-1.3c-0.3,0-0.6-0.3-0.6-0.6v-0.7
			c0-0.3,0.3-0.6,0.6-0.6h1.3v-1.4h-0.8c-0.7,0-1.2-0.5-1.2-1.2v-7.3C69.2,77.5,69.8,76.9,70.4,76.9L70.4,76.9z M100.9,66.2
			c-1.5,3.2-2.4,8.3,0.1,11.5c0.4,0.5,1.8,1.2,2.1,2.1v1.9c0,0.3,0.3,0.6,0.6,0.6h1.5c0.3,0,0.6-0.3,0.6-0.6v-3.5h11.6V67.1h-11.6
			v-3.4c0-0.3-0.3-0.6-0.6-0.6h-2.4c-0.3,0-0.6,0.3-0.6,0.6v1.5C101.2,65.2,101.3,65.3,100.9,66.2L100.9,66.2z"/>
		<path class="st13" d="M118.3,75.9h1.7V78h-1.7V75.9L118.3,75.9z M118.3,70.2h1.7v4.7h-1.7V70.2L118.3,70.2z M118.3,67.1h1.7v2.1
			h-1.7V67.1L118.3,67.1z"/>
		<path class="st13" d="M120.6,74.4h1.7v1.2h-1.7V74.4L120.6,74.4z M120.6,69.5h1.7v1.2h-1.7V69.5L120.6,69.5z M120.6,71.3h1.7v2.6
			h-1.7V71.3L120.6,71.3z"/>
		<path class="st14" d="M122.3,70.5c2.6,0.4,5.3,0.5,7.5-0.4c2.2-0.8,4.3-2.6,6.4-5.6c1.9-4.1,1.9-8.1,1.9-12c0-5.3,0-10.5,3.9-16.1
			l3.2,2.2c-3.1,4.7-3.1,9.2-3.1,13.9c0,4.4,0,8.9-2.3,13.8l0,0.1l-0.1,0.2c-2.6,3.9-5.4,6.1-8.4,7.3c-3,1.1-5.8,1.2-8.9,0.7V70.5
			L122.3,70.5z"/>
		<path class="st13" d="M83.7,129.1l0.4,6.4v2.1l-6.2-1.4v1.6l-6.9-2.9l3.2,3l-25-4.5l23.2,6.4c-0.2,0.1-0.1,0-0.3,0l-22.9,5.1
			l25.7-3.6l-7.7,3.4l11.4-3.1l-3.1,2.3l9.1-2.3l0.4,6.9l0.1,0.9l0.1-0.9l0.5-7.1l8.7,2.5l-3-2.3l11.4,3.2l-8.1-3.8l26.4,3.7
			l-23.4-5l23.5-6.6l-25.5,4.5l3.6-2.5l-6.8,2.7v-1.6l-6.6,1.3v-1.2l0.5-7.2L83.7,129.1L83.7,129.1z"/>
	</g>
</g>
</svg>
