<?xml version="1.0" encoding="utf-8"?>
<!-- Generator: Adobe Illustrator 24.1.0, SVG Export Plug-In . SVG Version: 6.00 Build 0)  -->
<svg version="1.1" id="Слой_1" xmlns="http://www.w3.org/2000/svg" xmlns:xlink="http://www.w3.org/1999/xlink" x="0px" y="0px"
	 viewBox="0 0 154.5 153.9" style="enable-background:new 0 0 154.5 153.9;" xml:space="preserve">
<style type="text/css">
	.st0{fill-rule:evenodd;clip-rule:evenodd;fill:#100F10;stroke:#201600;stroke-width:0.5669;stroke-miterlimit:22.9256;}
	.st1{fill:#E9ECEB;}
	.st2{fill:#E2E2E2;}
	.st3{fill:none;stroke:#E2E2E2;stroke-width:1.4173;stroke-miterlimit:22.9256;}
	.st4{fill-rule:evenodd;clip-rule:evenodd;fill:#FFFFFF;}
	.st5{fill:#FFFFFF;}
	.st6{fill:none;stroke:#FFFEFF;stroke-width:2.8347;stroke-miterlimit:22.9256;}
	.st7{fill:none;stroke:#ECECEC;stroke-width:1.7007;stroke-miterlimit:22.9256;stroke-dasharray:3.4015,5.1022;}
	.st8{fill-rule:evenodd;clip-rule:evenodd;fill:#E61C21;stroke:#FFFEFF;stroke-width:1.9844;stroke-miterlimit:22.9256;}
	.st9{fill:#FFFEFF;}
	.st10{fill-rule:evenodd;clip-rule:evenodd;fill:#E2E2E2;}
	.st11{fill-rule:evenodd;clip-rule:evenodd;fill:none;stroke:#FFFEFF;stroke-width:1.9844;stroke-miterlimit:22.9256;}
	.st12{fill:#F3444E;}
	.st13{fill-rule:evenodd;clip-rule:evenodd;fill:#F3444E;}
	.st14{fill:none;stroke:#F3444E;stroke-width:1.4173;stroke-miterlimit:22.9256;}
	.st15{fill-rule:evenodd;clip-rule:evenodd;fill:#F3444E;stroke:#F3444E;stroke-width:1.4173;stroke-miterlimit:22.9256;}
	.st16{fill-rule:evenodd;clip-rule:evenodd;fill:#F3444E;stroke:#F3444E;stroke-width:0.5669;stroke-miterlimit:22.9256;}
	.st17{fill:#DC7D43;}
	.st18{fill:none;stroke:#201600;stroke-width:0.5669;stroke-miterlimit:22.9256;}
	.st19{fill:none;stroke:#201600;stroke-width:0.216;stroke-miterlimit:22.9256;}
	.st20{fill:none;stroke:#FFFFFF;stroke-width:1.4172;stroke-miterlimit:22.9256;}
	.st21{fill:none;stroke:#E2E2E2;stroke-width:1.4175;stroke-miterlimit:22.9256;}
	.st22{fill-rule:evenodd;clip-rule:evenodd;fill:#E2E2E2;stroke:#E2E2E2;stroke-width:1.4173;stroke-miterlimit:22.9256;}
	.st23{fill:none;stroke:#E2E2E2;stroke-width:1.4172;stroke-miterlimit:22.9256;}
	.st24{fill:none;stroke:#E2E2E2;stroke-width:1.4176;stroke-miterlimit:22.9256;}
	.st25{fill:none;stroke:#E2E2E2;stroke-width:1.4173;stroke-linecap:round;stroke-linejoin:round;stroke-miterlimit:10;}
	.st26{fill:none;stroke:#E2E2E2;stroke-width:1.3421;stroke-linecap:round;stroke-linejoin:round;stroke-miterlimit:10;}
	.st27{fill:none;stroke:#D24A43;stroke-width:1.4173;stroke-linejoin:round;stroke-miterlimit:10;}
	.st28{fill:none;stroke:#D24A43;stroke-width:1.4173;stroke-linejoin:round;stroke-miterlimit:22.9256;}
	.st29{fill:none;stroke:#D24A43;stroke-width:1.4173;stroke-linecap:round;stroke-linejoin:round;stroke-miterlimit:10;}
	.st30{fill:none;stroke:#D24A43;stroke-width:1.4173;stroke-miterlimit:22.9256;}
	.st31{fill-rule:evenodd;clip-rule:evenodd;fill:#E61C21;}
	.st32{fill:none;stroke:#FFFFFF;stroke-width:1.5487;stroke-linecap:round;stroke-linejoin:round;stroke-miterlimit:10;}
	.st33{fill:none;stroke:#FFFFFF;stroke-width:1.4017;stroke-linecap:round;stroke-linejoin:round;stroke-miterlimit:10;}
	.st34{fill:none;stroke:#FFFFFF;stroke-width:1.752;stroke-linecap:round;stroke-linejoin:round;stroke-miterlimit:10;}
	.st35{fill:none;stroke:#FFFFFF;stroke-width:1.7008;stroke-miterlimit:22.9256;}
	.st36{fill:none;stroke:#FFFFFF;stroke-width:1.5459;stroke-linecap:round;stroke-linejoin:round;stroke-miterlimit:10;}
	.st37{fill:none;stroke:#FFFFFF;stroke-width:1.4173;stroke-linecap:round;stroke-linejoin:round;stroke-miterlimit:10;}
	.st38{fill:none;stroke:#FFFFFF;stroke-width:1.5158;stroke-linecap:round;stroke-linejoin:round;stroke-miterlimit:10;}
	.st39{fill:none;stroke:#B6B8BD;stroke-width:1.4173;stroke-miterlimit:22.9256;}
	.st40{fill:none;stroke:#B6B8BD;stroke-width:1.4174;stroke-linecap:round;stroke-linejoin:round;stroke-miterlimit:10;}
	.st41{fill:none;stroke:#B6B8BD;stroke-width:1.5177;stroke-linecap:round;stroke-linejoin:round;stroke-miterlimit:10;}
	.st42{fill-rule:evenodd;clip-rule:evenodd;fill:#FFFEFF;}
	.st43{fill:#E62A13;}
	.st44{fill:none;stroke:#E62A13;stroke-width:1.486;stroke-linecap:round;stroke-linejoin:round;stroke-miterlimit:10;}
	.st45{fill:none;stroke:#E62A13;stroke-width:1.4121;stroke-linecap:round;stroke-linejoin:round;stroke-miterlimit:10;}
	.st46{fill:none;stroke:#E62A13;stroke-width:1.4173;stroke-miterlimit:22.9256;}
	.st47{fill-rule:evenodd;clip-rule:evenodd;fill:#E62A13;}
	.st48{fill:none;stroke:#E61C21;stroke-width:1.4173;stroke-linecap:round;stroke-linejoin:round;stroke-miterlimit:10;}
	.st49{fill:none;stroke:#E61C21;stroke-width:1.4173;stroke-miterlimit:22.9256;}
	.st50{fill:none;stroke:#FFFFFF;stroke-width:1.4173;stroke-miterlimit:22.9256;}
	.st51{fill:none;stroke:#F1444C;stroke-width:1.4173;stroke-miterlimit:22.9256;}
	.st52{fill-rule:evenodd;clip-rule:evenodd;fill:#FF0000;}
	.st53{fill-rule:evenodd;clip-rule:evenodd;fill:#5C768B;}
	.st54{fill:#D24A43;}
	.st55{fill:none;stroke:#D24A43;stroke-width:2.8347;stroke-miterlimit:22.9256;}
	.st56{fill-rule:evenodd;clip-rule:evenodd;fill:#D24A43;}
</style>
<polygon class="st0" points="-625.8,1630.8 -625.8,-589.1 1514.9,-589.1 1514.9,1630.8 -625.8,1630.8 "/>
<g>
	<g>
		<polyline class="st7" points="60.1,23.2 153.6,23.2 153.6,153 23.1,153 23.1,57.6 		"/>
		<path class="st11" d="M1.6,21.7L21.7,1.6c0.8-0.8,2.1-0.8,2.8,0l20.3,20.3c0.8,0.8,0.8,2.1,0,2.8L24.7,44.9
			c-0.8,0.8-2.1,0.8-2.8,0L1.6,24.6C0.8,23.8,0.8,22.5,1.6,21.7L1.6,21.7z"/>
		<path class="st12" d="M27.3,25.4h1.5v2.7h-1.5v3.7H24v-3.7h-5.6L18.2,26L24,14.8h3.3V25.4L27.3,25.4z M21.4,25.4H24v-5.7l-0.1,0.1
			L21.4,25.4L21.4,25.4z"/>
	</g>
	<g>
		<path class="st14" d="M106.3,125.4H72.8c-2.5,0-3.3-0.8-3.3-3.3V95.4c0-2.5,2-4.5,4.5-4.5h31c2.5,0,4.5,2,4.5,4.5v26.7
			C109.6,124.6,108.8,125.4,106.3,125.4L106.3,125.4z"/>
		<path class="st13" d="M74.6,93.3h29.6c0.7,0,1.3,0.6,1.3,1.3l0,0c0,0.7-0.6,1.3-1.3,1.3H74.6c-0.7,0-1.3-0.6-1.3-1.3l0,0
			C73.3,93.9,73.9,93.3,74.6,93.3L74.6,93.3z"/>
		<path class="st14" d="M55.8,77.9h5.7v-1.4c0-1.4,0.6-2.7,1.5-3.6c0.9-0.9,2.2-1.5,3.6-1.5h46.4c1.4,0,2.7,0.6,3.6,1.5
			c0.9,0.9,1.5,2.2,1.5,3.6v1.4h6c3.7,0,6.8,3,6.8,6.8v10.2c0,3.7-3,6.8-6.8,6.8h-0.1V130l2.9,8.3c0.3,0.8-0.1,1.6-0.9,1.9l-0.9,0.3
			c-0.8,0.3-1.6-0.1-1.9-0.9l-6.1-17.3c-0.3-0.8,0.1-1.6,0.9-1.9l0.9-0.3c0.4-0.1,0.7-0.1,1.1,0v-18.6h-7.3v-8.4
			c0-2.8-2.3-5.2-5.2-5.2H72c-2.8,0-5.2,2.3-5.2,5.2v8.4h-8.5v18.6c0.3-0.1,0.7-0.2,1.1,0l0.9,0.3c0.8,0.3,1.2,1.1,0.9,1.9
			l-6.1,17.3c-0.3,0.8-1.1,1.2-1.9,0.9l-0.9-0.3c-0.8-0.3-1.2-1.1-0.9-1.9l2.9-8.3v-28.5c-3-0.7-5.3-3.4-5.3-6.6V84.7
			C49,81,52.1,77.9,55.8,77.9L55.8,77.9z M64.3,77.9h50.9v-1.4c0-0.6-0.3-1.2-0.7-1.6c-0.4-0.4-1-0.7-1.6-0.7H66.6
			c-0.6,0-1.2,0.3-1.6,0.7c-0.4,0.4-0.7,1-0.7,1.6V77.9L64.3,77.9z"/>
		<path class="st13" d="M55.8,41.9c5,4.3,8.5,9.1,8.4,13.9c0.4,4.9-2.8,8.4-8.4,8.7c-5.1-0.2-8.3-2.6-8.2-8.7
			C47.4,51.1,51.7,46.4,55.8,41.9L55.8,41.9z M58.2,56.5l2.1,0.6c-0.3,1.2-0.9,2.1-1.6,2.6c-0.7,0.6-1.7,0.9-2.8,0.9
			c-1.4,0-2.6-0.5-3.5-1.5c-0.9-1-1.4-2.3-1.4-4c0-1.8,0.5-3.2,1.4-4.2c0.9-1,2.1-1.5,3.6-1.5c1.3,0,2.4,0.4,3.2,1.2
			c0.5,0.5,0.9,1.1,1.1,2l-2.1,0.5c-0.1-0.6-0.4-1-0.8-1.3c-0.4-0.3-0.9-0.5-1.5-0.5c-0.8,0-1.4,0.3-1.9,0.9
			c-0.5,0.6-0.7,1.5-0.7,2.8c0,1.4,0.2,2.3,0.7,2.9c0.5,0.6,1.1,0.9,1.9,0.9c0.6,0,1.1-0.2,1.5-0.5C57.7,57.8,58,57.2,58.2,56.5
			L58.2,56.5z"/>
		<path class="st13" d="M78.9,41.9c5,4.3,8.2,9.3,8.4,13.9c0.3,4.5-2.8,8.4-8.4,8.7c-5.1-0.2-8.3-2.6-8.2-8.7
			C70.7,51,74.9,46.4,78.9,41.9L78.9,41.9z M73.7,60.4V49.7H77l1.9,7.3l1.9-7.3h3.3v10.7h-2l0-8.4l-2.1,8.4h-2.1L75.7,52l0,8.4H73.7
			L73.7,60.4z"/>
		<path class="st13" d="M100.7,41.6c5,4.3,7.8,9.5,8.4,13.9c0.3,4.5-2.8,8.4-8.4,8.7c-5.1-0.2-8.3-2.6-8.2-8.7
			C92.8,50.1,96.6,46.1,100.7,41.6L100.7,41.6z M99.6,60.6v-4.5l-3.9-6.2h2.5l2.5,4.2l2.5-4.2h2.5l-3.9,6.2v4.5H99.6L99.6,60.6z"/>
		<path class="st13" d="M122.7,41.6c5,4.3,7.8,9.5,8.4,13.9c0.3,4.5-2.8,8.4-8.4,8.7c-5.1-0.2-8.3-2.6-8.2-8.7
			C114.6,50.3,118.7,46.1,122.7,41.6L122.7,41.6z M119.1,60.6V49.9h2.2v4.8l4.4-4.8h2.9l-4,4.2l4.3,6.6H126l-3-5l-1.7,1.8v3.2H119.1
			L119.1,60.6z"/>
	</g>
</g>
</svg>
