<?xml version="1.0" encoding="utf-8"?>
<!-- Generator: Adobe Illustrator 24.1.0, SVG Export Plug-In . SVG Version: 6.00 Build 0)  -->
<!DOCTYPE svg PUBLIC "-//W3C//DTD SVG 1.1//EN" "http://www.w3.org/Graphics/SVG/1.1/DTD/svg11.dtd" [
	<!ENTITY ns_extend "http://ns.adobe.com/Extensibility/1.0/">
	<!ENTITY ns_ai "http://ns.adobe.com/AdobeIllustrator/10.0/">
	<!ENTITY ns_graphs "http://ns.adobe.com/Graphs/1.0/">
	<!ENTITY ns_vars "http://ns.adobe.com/Variables/1.0/">
	<!ENTITY ns_imrep "http://ns.adobe.com/ImageReplacement/1.0/">
	<!ENTITY ns_sfw "http://ns.adobe.com/SaveForWeb/1.0/">
	<!ENTITY ns_custom "http://ns.adobe.com/GenericCustomNamespace/1.0/">
	<!ENTITY ns_adobe_xpath "http://ns.adobe.com/XPath/1.0/">
]>
<svg version="1.1" id="Слой_1" xmlns:x="&ns_extend;" xmlns:i="&ns_ai;" xmlns:graph="&ns_graphs;"
	 xmlns="http://www.w3.org/2000/svg" xmlns:xlink="http://www.w3.org/1999/xlink" x="0px" y="0px" viewBox="0 0 15.63 12.68"
	 style="enable-background:new 0 0 15.63 12.68;" xml:space="preserve">
<style type="text/css">
	.st0{fill-rule:evenodd;clip-rule:evenodd;fill:#100F10;stroke:#201600;stroke-width:0.5669;stroke-miterlimit:22.9256;}
	.st1{fill:#E9ECEB;}
	.st2{fill:#E2E2E2;}
	.st3{fill:none;stroke:#E2E2E2;stroke-width:1.4173;stroke-miterlimit:22.9256;}
	.st4{fill-rule:evenodd;clip-rule:evenodd;fill:#FFFFFF;}
	.st5{fill:#FFFFFF;}
	.st6{fill:none;stroke:#FFFEFF;stroke-width:2.8347;stroke-miterlimit:22.9256;}
	.st7{fill-rule:evenodd;clip-rule:evenodd;fill:#E2E2E2;}
	.st8{fill:#FFFEFF;}
	.st9{fill:none;stroke:#ECECEC;stroke-width:1.7007;stroke-miterlimit:22.9256;stroke-dasharray:3.4015,5.1022;}
	.st10{fill-rule:evenodd;clip-rule:evenodd;fill:#E61C21;stroke:#FFFEFF;stroke-width:1.9844;stroke-miterlimit:22.9256;}
	.st11{fill-rule:evenodd;clip-rule:evenodd;fill:#F3444E;}
	.st12{fill:none;stroke:#F3444E;stroke-width:1.4173;stroke-miterlimit:22.9256;}
	.st13{fill-rule:evenodd;clip-rule:evenodd;fill:#F3444E;stroke:#F3444E;stroke-width:1.4173;stroke-miterlimit:22.9256;}
	.st14{fill-rule:evenodd;clip-rule:evenodd;fill:#F3444E;stroke:#F3444E;stroke-width:0.5669;stroke-miterlimit:22.9256;}
	.st15{fill:#DC7D43;}
	.st16{fill:none;stroke:#201600;stroke-width:0.5669;stroke-miterlimit:22.9256;}
	.st17{fill:none;stroke:#201600;stroke-width:0.216;stroke-miterlimit:22.9256;}
	.st18{fill:none;stroke:#FFFFFF;stroke-width:1.4172;stroke-miterlimit:22.9256;}
	.st19{fill:none;stroke:#E2E2E2;stroke-width:1.4175;stroke-miterlimit:22.9256;}
	.st20{fill-rule:evenodd;clip-rule:evenodd;fill:#E2E2E2;stroke:#E2E2E2;stroke-width:1.4173;stroke-miterlimit:22.9256;}
	.st21{fill:none;stroke:#E2E2E2;stroke-width:1.4172;stroke-miterlimit:22.9256;}
	.st22{fill:none;stroke:#E2E2E2;stroke-width:1.4176;stroke-miterlimit:22.9256;}
	.st23{fill:none;stroke:#E2E2E2;stroke-width:1.4173;stroke-linecap:round;stroke-linejoin:round;stroke-miterlimit:10;}
	.st24{fill:none;stroke:#E2E2E2;stroke-width:1.3421;stroke-linecap:round;stroke-linejoin:round;stroke-miterlimit:10;}
	.st25{fill:none;stroke:#D24A43;stroke-width:1.4173;stroke-linejoin:round;stroke-miterlimit:10;}
	.st26{fill:none;stroke:#D24A43;stroke-width:1.4173;stroke-linejoin:round;stroke-miterlimit:22.9256;}
	.st27{fill:none;stroke:#D24A43;stroke-width:1.4173;stroke-linecap:round;stroke-linejoin:round;stroke-miterlimit:10;}
	.st28{fill:none;stroke:#D24A43;stroke-width:1.4173;stroke-miterlimit:22.9256;}
	.st29{fill-rule:evenodd;clip-rule:evenodd;fill:#E61C21;}
	.st30{fill:none;stroke:#FFFFFF;stroke-width:1.5487;stroke-linecap:round;stroke-linejoin:round;stroke-miterlimit:10;}
	.st31{fill:none;stroke:#FFFFFF;stroke-width:1.4017;stroke-linecap:round;stroke-linejoin:round;stroke-miterlimit:10;}
	.st32{fill:none;stroke:#FFFFFF;stroke-width:1.752;stroke-linecap:round;stroke-linejoin:round;stroke-miterlimit:10;}
	.st33{fill:none;stroke:#FFFFFF;stroke-width:1.7008;stroke-miterlimit:22.9256;}
	.st34{fill:none;stroke:#FFFFFF;stroke-width:1.5459;stroke-linecap:round;stroke-linejoin:round;stroke-miterlimit:10;}
	.st35{fill:none;stroke:#FFFFFF;stroke-width:1.4173;stroke-linecap:round;stroke-linejoin:round;stroke-miterlimit:10;}
	.st36{fill:none;stroke:#FFFFFF;stroke-width:1.5158;stroke-linecap:round;stroke-linejoin:round;stroke-miterlimit:10;}
	.st37{fill:none;stroke:#B6B8BD;stroke-width:1.4173;stroke-miterlimit:22.9256;}
	.st38{fill:none;stroke:#B6B8BD;stroke-width:1.4174;stroke-linecap:round;stroke-linejoin:round;stroke-miterlimit:10;}
	.st39{fill:none;stroke:#B6B8BD;stroke-width:1.5177;stroke-linecap:round;stroke-linejoin:round;stroke-miterlimit:10;}
	.st40{fill-rule:evenodd;clip-rule:evenodd;fill:#FFFEFF;}
	.st41{fill:#E62A13;}
	.st42{fill:none;stroke:#E62A13;stroke-width:1.486;stroke-linecap:round;stroke-linejoin:round;stroke-miterlimit:10;}
	.st43{fill:none;stroke:#E62A13;stroke-width:1.4121;stroke-linecap:round;stroke-linejoin:round;stroke-miterlimit:10;}
	.st44{fill:none;stroke:#E62A13;stroke-width:1.4173;stroke-miterlimit:22.9256;}
	.st45{fill-rule:evenodd;clip-rule:evenodd;fill:#E62A13;}
	.st46{fill:none;stroke:#E61C21;stroke-width:1.4173;stroke-linecap:round;stroke-linejoin:round;stroke-miterlimit:10;}
	.st47{fill:none;stroke:#E61C21;stroke-width:1.4173;stroke-miterlimit:22.9256;}
	.st48{fill:none;stroke:#FFFFFF;stroke-width:1.4173;stroke-miterlimit:22.9256;}
	.st49{fill:none;stroke:#F1444C;stroke-width:1.4173;stroke-miterlimit:22.9256;}
	.st50{fill-rule:evenodd;clip-rule:evenodd;fill:#FF0000;}
	.st51{fill-rule:evenodd;clip-rule:evenodd;fill:#5C768B;}
	.st52{fill:#D24A43;}
	.st53{fill:none;stroke:#D24A43;stroke-width:2.8347;stroke-miterlimit:22.9256;}
	.st54{fill-rule:evenodd;clip-rule:evenodd;fill:#D24A43;}
</style>
		<polygon class="st0" points="-1674.49,1967.65 -1674.49,-252.21 466.23,-252.21 466.23,1967.65 -1674.49,1967.65 		"/>
		<path class="st40" d="M10.63,0c1.24-0.02,1.9,0.43,2.53,1.01c0.54-0.05,1.23-0.35,1.64-0.55c0.13-0.07,0.27-0.15,0.4-0.22
			c-0.23,0.63-0.55,1.13-1.04,1.51c-0.11,0.08-0.22,0.2-0.35,0.25V2c0.7-0.01,1.27-0.32,1.81-0.49v0.01
			c-0.29,0.45-0.67,0.92-1.09,1.25c-0.17,0.13-0.33,0.27-0.5,0.4c0.01,0.74-0.01,1.44-0.15,2.06c-0.8,3.6-2.92,6.04-6.28,7.09
			c-1.21,0.38-3.15,0.53-4.54,0.19c-0.69-0.17-1.3-0.36-1.88-0.62c-0.32-0.14-0.62-0.29-0.91-0.47C0.19,11.35,0.09,11.29,0,11.24
			c0.31,0.01,0.68,0.1,1.02,0.04c0.32-0.05,0.62-0.04,0.92-0.1c0.73-0.16,1.37-0.37,1.92-0.69c0.27-0.16,0.68-0.34,0.87-0.57
			C4.37,9.92,4.04,9.83,3.78,9.74C2.74,9.37,2.14,8.7,1.74,7.69C2.06,7.72,2.96,7.8,3.18,7.63C2.78,7.6,2.4,7.38,2.13,7.21
			c-0.83-0.52-1.51-1.4-1.51-2.74c0.11,0.05,0.22,0.1,0.33,0.16C1.16,4.71,1.37,4.75,1.62,4.8c0.11,0.02,0.32,0.08,0.44,0.04H2.04
			C1.88,4.66,1.62,4.53,1.45,4.33C0.92,3.66,0.42,2.64,0.74,1.42c0.08-0.31,0.21-0.58,0.34-0.83c0.01,0,0.01,0.01,0.02,0.01
			c0.06,0.13,0.2,0.23,0.29,0.34c0.27,0.34,0.61,0.64,0.95,0.91c1.17,0.92,2.22,1.48,3.92,1.89C6.69,3.84,7.18,3.92,7.7,3.92
			C7.55,3.5,7.6,2.82,7.71,2.42C8,1.4,8.62,0.66,9.53,0.27c0.22-0.09,0.46-0.16,0.71-0.22C10.37,0.03,10.5,0.02,10.63,0L10.63,0z"/>
</svg>
